<svg width="20" height="21" viewBox="0 0 20 21" fill="none" xmlns="http://www.w3.org/2000/svg">
<path fill-rule="evenodd" clip-rule="evenodd" d="M18 12.2553V9.19421H20V12.2553V18.383V20.4201H18V18.383H2V20.4201H0V18.383V12.2553V0H2V12.2553H8V8.17021H13.0027C15.4187 8.17021 17.4347 9.92953 17.8987 12.2553H18ZM13.0027 10.2128H10V12.2499H15.824C15.4133 11.0625 14.304 10.2128 13.0027 10.2128ZM2 14.2979V16.3404H18V14.2979H2ZM5.99875 9.70621C5.99875 10.5515 5.32778 11.2368 4.50009 11.2368C3.6724 11.2368 3.00142 10.5515 3.00142 9.70621C3.00142 8.86091 3.6724 8.17566 4.50009 8.17566C5.32778 8.17566 5.99875 8.86091 5.99875 9.70621Z" fill="#958866"/>
</svg>
