<svg width="24" height="24" viewBox="0 0 24 24" fill="none" xmlns="http://www.w3.org/2000/svg">
<g id="room_service_24px">
<path id="icon/places/room_service_24px" fill-rule="evenodd" clip-rule="evenodd" d="M20.999 16C20.729 11.93 17.749 8.6 13.839 7.79C13.939 7.55 13.999 7.28 13.999 7C13.999 5.9 13.099 5 11.999 5C10.899 5 9.99902 5.9 9.99902 7C9.99902 7.28 10.059 7.55 10.159 7.79C6.24902 8.6 3.26902 11.93 2.99902 16H20.999ZM18.979 17H1.99902V19H21.999V17H18.979ZM18.499 13.99C17.469 11.41 14.949 9.58 11.999 9.58C9.04902 9.58 6.52902 11.41 5.49902 13.99H18.499Z" fill="#A18F57"/>
</g>
</svg>
