<svg width="151" height="25" viewBox="0 0 151 25" fill="none" xmlns="http://www.w3.org/2000/svg">
<path fill-rule="evenodd" clip-rule="evenodd" d="M129.642 5.96442C129.669 5.93687 129.71 5.93687 129.738 5.93687C130.399 5.95064 131.06 5.89555 131.708 5.96442C132.355 6.03329 133.03 6.39141 133.195 7.19031C133.209 7.28673 133.25 7.36938 133.264 7.4658C133.292 7.56221 133.305 7.63108 133.416 7.50712C133.788 7.10767 134.173 6.72199 134.628 6.41896C135.261 6.01951 135.936 5.75781 136.68 5.64761C137.204 5.57874 137.713 5.59252 138.209 5.67516C139.49 5.88177 140.468 6.54293 141.074 7.71373C141.226 7.98921 141.239 8.00299 141.418 7.75505C141.956 7.05257 142.603 6.51538 143.402 6.14348C143.925 5.89555 144.49 5.74403 145.069 5.66139C145.606 5.59252 146.129 5.60629 146.653 5.67516C148.195 5.89555 149.311 6.68067 149.876 8.18205C150.096 8.77434 150.206 9.3804 150.275 10.014C150.275 10.0416 150.275 10.0691 150.303 10.0967C150.303 13.2922 150.303 16.4878 150.303 19.6834C149.642 19.6834 148.98 19.6972 148.319 19.6697C147.782 19.6559 147.272 19.5319 146.914 19.1049C146.653 18.7881 146.529 18.4024 146.529 18.003C146.515 15.9231 146.515 13.8432 146.515 11.7633C146.515 11.2537 146.487 10.744 146.377 10.2344C146.239 9.64211 145.881 9.18756 145.124 9.14624C143.98 9.07737 143.195 9.62833 142.603 10.5374C142.245 11.0746 142.066 11.6807 141.942 12.3005C141.832 12.7688 141.804 13.2509 141.804 13.733C141.804 15.6476 141.804 17.5484 141.804 19.463C141.804 19.6283 141.749 19.6697 141.598 19.6697C140.468 19.6697 139.352 19.6697 138.223 19.6697C138.071 19.6697 138.016 19.6421 138.016 19.4768C138.016 16.846 138.03 14.2151 138.016 11.5843C138.016 11.0608 137.975 10.5236 137.755 10.0278C137.451 9.31153 136.845 9.07737 136.129 9.11869C135.33 9.17379 134.766 9.60078 134.311 10.2068C133.898 10.7578 133.65 11.3914 133.498 12.0663C133.347 12.7 133.305 13.3198 133.305 13.9672C133.305 15.7991 133.305 17.6311 133.305 19.463C133.305 19.6283 133.264 19.6559 133.099 19.6559C131.969 19.6421 130.854 19.6559 129.724 19.6559C129.573 19.6559 129.518 19.6283 129.518 19.463C129.531 17.7688 129.518 16.0746 129.518 14.3804C129.518 14.3253 129.504 14.2564 129.531 14.2013C129.559 14.2289 129.559 14.2564 129.559 14.284C129.559 16.0195 129.559 17.7551 129.559 19.4906C129.559 19.5181 129.6 19.4906 129.573 19.4906C129.573 19.4906 129.559 19.4906 129.559 19.4768C129.559 19.4217 129.559 19.3666 129.559 19.3115C129.559 14.9176 129.559 10.5236 129.559 6.12971C129.614 6.10216 129.6 6.03329 129.642 5.96442Z" fill="#63636F"/>
<path fill-rule="evenodd" clip-rule="evenodd" d="M61.5834 0.0137741C61.8588 0.0964189 62.1343 0.165289 62.3823 0.316805C63.1949 0.798899 63.6495 1.74931 63.498 2.68595C63.3327 3.60882 62.6164 4.3664 61.7073 4.54546C60.4263 4.80717 59.228 4.00827 58.9938 2.69973C58.7597 1.44628 59.5861 0.289257 60.7982 0.0413224C60.8258 0.0275482 60.8671 0.0413224 60.8947 0C61.1288 0.0137741 61.363 0.0137741 61.5834 0.0137741Z" fill="#63636F"/>
<path fill-rule="evenodd" clip-rule="evenodd" d="M58.3057 19.6835C57.066 19.6559 55.8539 19.7248 54.6417 19.6421C53.9668 19.6008 53.4572 19.2702 53.099 18.7055C52.7134 18.0857 52.3966 17.4107 52.0522 16.7634C51.6252 15.9645 51.1982 15.1656 50.7712 14.3529C50.6472 14.1187 50.4682 14.0223 50.234 13.981C50.055 13.9534 49.8897 13.9397 49.7106 13.9534C49.4351 13.9672 49.4627 13.9121 49.4627 14.1876C49.4627 15.8129 49.4627 17.4383 49.4627 19.0636C49.4627 19.2151 49.4627 19.3667 49.4627 19.5182C49.4627 19.6284 49.4351 19.6697 49.3112 19.6697C48.0853 19.6697 46.8594 19.6697 45.6335 19.6697C45.5233 19.6697 45.4819 19.6421 45.4957 19.5319C45.5095 19.3529 45.4957 19.1876 45.4957 19.0085C45.4957 12.9479 45.4957 6.88731 45.4957 0.826693C45.4957 0.55121 45.4682 0.592533 45.7299 0.592533C46.4461 0.606307 47.1624 0.564984 47.8924 0.620081C48.7189 0.675177 49.2147 1.04708 49.3938 1.76333C49.4627 1.99749 49.4764 2.2592 49.4764 2.49336C49.4764 5.0829 49.4764 7.67243 49.4764 10.262C49.4764 10.5099 49.4764 10.5099 49.7382 10.5099C49.9448 10.5099 50.1514 10.5099 50.358 10.4824C50.6886 10.4548 50.9503 10.3171 51.1293 10.0278C51.9833 8.69172 52.8511 7.35563 53.7189 6.00576C53.774 5.90934 53.8428 5.86802 53.953 5.86802C55.358 5.86802 56.763 5.86802 58.1679 5.86802C58.1955 5.86802 58.223 5.86802 58.2781 5.86802C58.1679 6.03331 58.0715 6.18483 57.9751 6.33634C56.8456 8.00301 55.7299 9.68345 54.6004 11.3501C54.4214 11.6118 54.2285 11.8598 53.9944 12.0939C53.953 12.1352 53.8979 12.1766 53.9668 12.2454C54.4902 12.7551 54.7657 13.4162 55.0687 14.0361C55.9365 15.7716 56.9833 17.4107 57.9751 19.0774C58.0577 19.284 58.1679 19.4631 58.3057 19.6835Z" fill="#63636F"/>
<path fill-rule="evenodd" clip-rule="evenodd" d="M69.4766 7.45151C69.7107 7.23113 69.9036 7.01074 70.1377 6.81791C71.0881 6.03278 72.1763 5.6471 73.4022 5.59201C74.2424 5.55069 75.0689 5.63333 75.854 5.92259C77.1212 6.40468 77.9063 7.32755 78.3058 8.59477C78.5262 9.29725 78.6226 10.0273 78.6226 10.7573C78.6226 12.0383 78.6226 13.3193 78.6226 14.6003C78.6226 16.2119 78.6364 17.8234 78.6364 19.4488C78.6364 19.7105 78.6639 19.6829 78.4022 19.6692C77.7273 19.6554 77.0661 19.6967 76.3912 19.6416C75.3443 19.5727 74.7383 18.9391 74.6832 17.8923C74.6419 16.873 74.6694 15.8675 74.6694 14.8482C74.6694 13.705 74.6694 12.5617 74.6694 11.4185C74.6694 11.0741 74.6419 10.7298 74.5454 10.3992C74.3526 9.6416 73.8705 9.28347 73.0992 9.25592C71.5565 9.20083 70.179 10.0961 69.7107 11.9143C69.6005 12.3551 69.5454 12.8096 69.5454 13.2642C69.5454 15.3303 69.5454 17.3827 69.5454 19.4488C69.5454 19.6141 69.5179 19.6692 69.325 19.6692C68.1405 19.6554 66.9697 19.6554 65.7851 19.6692C65.6336 19.6692 65.5923 19.6278 65.5923 19.4763C65.5923 15.4681 65.5923 11.4598 65.5923 7.45151C65.5923 6.96942 65.5923 6.5011 65.5923 6.01901C65.5923 5.95013 65.5785 5.88126 65.7024 5.88126C66.4049 5.89504 67.1074 5.83994 67.8099 5.90881C68.5812 5.99146 69.2424 6.37713 69.4215 7.31377C69.4352 7.36887 69.4628 7.41019 69.4766 7.45151Z" fill="#63636F"/>
<path fill-rule="evenodd" clip-rule="evenodd" d="M112.727 9.54525C112.727 9.87583 112.727 10.1926 112.727 10.5232C112.727 10.6334 112.7 10.6885 112.576 10.6747C111.942 10.6747 111.322 10.6885 110.689 10.661C110.014 10.6334 109.504 10.2891 109.298 9.5728C109.215 9.28354 108.967 9.15957 108.719 9.07693C107.397 8.62238 105.799 9.03561 104.904 10.11C104.518 10.5783 104.27 11.1017 104.132 11.694C103.981 12.3414 103.953 12.9888 104.077 13.6362C104.311 14.7932 104.931 15.661 106.006 16.1844C106.818 16.57 107.672 16.6802 108.54 16.5425C109.408 16.4048 110.193 16.0191 110.895 15.4957C111.198 15.2615 111.488 15.0273 111.736 14.7381C111.804 14.6692 111.832 14.6554 111.887 14.7519C112.383 15.5921 112.893 16.4185 113.402 17.2588C113.457 17.3552 113.43 17.424 113.361 17.5067C112.893 18.0439 112.328 18.4709 111.736 18.8428C111.074 19.256 110.358 19.5453 109.614 19.7381C108.581 19.9998 107.521 20.0411 106.446 19.9034C105.317 19.7656 104.256 19.4075 103.306 18.7877C102.052 17.975 101.157 16.8593 100.634 15.4543C100.289 14.5315 100.138 13.5811 100.165 12.6031C100.22 10.7023 100.868 9.03561 102.245 7.68574C103.044 6.90062 103.981 6.36343 105.041 6.01908C105.813 5.77114 106.612 5.64717 107.424 5.61963C108.526 5.59208 109.601 5.75737 110.62 6.18436C111.377 6.50117 112.039 6.94194 112.424 7.69952C112.617 8.05764 112.7 8.42955 112.7 8.829C112.727 9.07693 112.727 9.31109 112.727 9.54525Z" fill="#63636F"/>
<path fill-rule="evenodd" clip-rule="evenodd" d="M59.4212 12.7964C59.4212 10.5512 59.4212 8.30601 59.4212 6.07461C59.4212 5.99196 59.3936 5.90932 59.5314 5.90932C60.2476 5.92309 60.9639 5.88177 61.6939 5.93686C62.6443 6.01951 63.2366 6.6118 63.333 7.56221C63.3468 7.74127 63.3606 7.90656 63.3606 8.08563C63.3606 11.8873 63.3606 15.6889 63.3606 19.4906C63.3606 19.6421 63.333 19.6972 63.1677 19.6972C61.9832 19.6834 60.8124 19.6834 59.6278 19.6972C59.4625 19.6972 59.435 19.6421 59.435 19.4906C59.435 17.2454 59.435 15.014 59.4212 12.7964C59.435 12.7964 59.435 12.7964 59.4212 12.7964Z" fill="#63636F"/>
<path fill-rule="evenodd" clip-rule="evenodd" d="M97.2866 19.8346C96.0745 19.8759 94.9863 18.8428 94.9863 17.5343C94.9863 16.2395 96.0607 15.2478 97.2728 15.234C98.5263 15.2202 99.5869 16.2946 99.5869 17.5343C99.5869 18.774 98.5538 19.8759 97.2866 19.8346Z" fill="#63636F"/>
<path d="M10.7851 9.80705C10.6474 9.73818 10.5234 9.65553 10.3719 9.57289C10.4683 9.49024 10.551 9.42137 10.6336 9.3525C10.9367 9.09079 11.2259 8.82908 11.4738 8.51228C12.2039 7.54809 12.4794 6.45993 12.4105 5.26158C12.3141 3.55359 11.5152 2.2726 10.0276 1.43238C8.9945 0.840092 7.83748 0.619706 6.66668 0.619706C5.1102 0.605931 3.53995 0.605931 1.98347 0.619706C1.34986 0.619706 0.826447 0.881414 0.426998 1.37728C0.206612 1.65276 0.0964189 1.96957 0 2.30015C0 8.07151 0 13.8429 0 19.6142C0.0688706 19.6142 0.137741 19.6142 0.192838 19.6142C2.35537 19.6142 4.51791 19.6142 6.68045 19.6142C7.61709 19.6142 8.53996 19.4903 9.4215 19.1735C10.73 18.7327 11.8044 17.9751 12.4931 16.7492C13.1681 15.5371 13.3196 14.2285 13.0303 12.8787C12.7548 11.515 12.0248 10.4682 10.7851 9.80705ZM3.66392 6.50126C3.66392 5.97784 3.65014 5.4682 3.67769 4.94478C3.70524 4.1872 4.04959 3.80153 4.80717 3.76021C5.5372 3.71888 6.26723 3.69133 6.99725 3.78775C7.90635 3.9255 8.49863 4.49023 8.66392 5.38555C8.81544 6.17068 8.71902 6.91448 8.20938 7.56186C7.80993 8.08528 7.23141 8.27812 6.59781 8.29189C5.67494 8.30567 4.75207 8.29189 3.82921 8.29189C3.70524 8.29189 3.66392 8.25057 3.67769 8.1266C3.66392 7.58941 3.66392 7.03845 3.66392 6.50126ZM8.87053 15.5233C8.40222 16.1156 7.76861 16.3635 7.05235 16.3773C5.9642 16.4049 4.88981 16.3773 3.80166 16.3911C3.67769 16.3911 3.66392 16.3498 3.66392 16.2533C3.66392 15.606 3.66392 14.9448 3.66392 14.2974C3.66392 13.6776 3.65014 13.0577 3.66392 12.4241C3.67769 11.6528 4.10469 11.2533 4.87604 11.2533C5.56475 11.2533 6.23968 11.2396 6.92838 11.2533C7.80993 11.2809 8.55373 11.5701 9.02205 12.3553C9.58679 13.2506 9.51792 14.6969 8.87053 15.5233Z" fill="#63636F"/>
<path d="M93.2642 5.86802C92.8235 5.8818 92.3965 5.86802 91.9557 5.86802C91.7766 5.86802 91.6113 5.85425 91.4323 5.8818C90.716 5.89557 90.2202 6.23992 89.9171 6.90108C89.6416 6.65315 89.3662 6.43276 89.0494 6.26747C87.851 5.59254 86.5563 5.44102 85.2202 5.62009C82.9061 5.93689 81.3221 7.24543 80.4957 9.40797C79.8207 11.1848 79.7932 13.0168 80.3028 14.8488C80.6472 16.0884 81.2946 17.1628 82.2863 18.003C83.526 19.0499 84.9722 19.4493 86.5838 19.3667C87.6306 19.3116 88.5948 19.0223 89.4213 18.3336C89.4488 18.3198 89.4626 18.2923 89.5039 18.3061C89.5177 18.554 89.5039 18.7881 89.4901 19.0361C89.3937 19.9865 88.9392 20.7165 88.0439 21.116C87.0797 21.5567 86.0604 21.5292 85.0411 21.3777C84.4764 21.295 83.9254 21.1022 83.3882 20.9507C82.7133 20.7578 82.2587 20.9645 81.9557 21.5981C81.9282 21.6532 81.9006 21.722 81.8731 21.7771C81.6389 22.3694 81.4047 22.9479 81.1706 23.5402C81.1155 23.6642 81.143 23.7055 81.2532 23.7744C82.2725 24.3253 83.3469 24.6697 84.4764 24.8625C84.8069 24.9176 85.1238 24.959 85.4543 25.0003C85.9502 25.0003 86.4461 25.0003 86.9419 25.0003C86.9695 24.959 87.0108 24.9727 87.0384 24.9727C87.5204 24.9452 87.9888 24.8625 88.4433 24.7386C89.6692 24.4355 90.7849 23.9121 91.694 23.0168C92.8235 21.9011 93.3331 20.5375 93.4158 18.981C93.4158 18.9121 93.4158 18.8295 93.4158 18.7606C93.4158 14.5595 93.4158 10.3446 93.4158 6.1435C93.4158 6.10218 93.4158 6.07463 93.4158 6.03331C93.4571 5.90934 93.402 5.86802 93.2642 5.86802ZM89.3111 14.3116C88.9392 15.3308 88.1127 15.9231 87.0108 15.9369C85.6472 15.9507 84.6968 15.2895 84.2698 13.9948C83.8979 12.8515 83.8841 11.7083 84.3249 10.5925C84.7243 9.58704 85.4957 9.07739 86.57 9.03607C87.1348 9.0223 87.6995 9.07739 88.2091 9.3391C88.9254 9.69723 89.2698 10.3308 89.4488 11.0746C89.559 11.5292 89.5866 11.9975 89.6003 12.4934C89.5866 13.0857 89.5315 13.7193 89.3111 14.3116Z" fill="#63636F"/>
<path d="M128.017 10.9092C127.893 10.3307 127.672 9.7797 127.383 9.25629C126.763 8.09926 125.895 7.20394 124.752 6.55656C123.857 6.04692 122.893 5.77143 121.873 5.66124C121.171 5.5786 120.482 5.60614 119.793 5.70256C119.05 5.81276 118.347 6.01937 117.672 6.34995C116.529 6.90091 115.592 7.71359 114.904 8.78797C114.132 10.0001 113.788 11.3362 113.802 12.7687C113.815 13.1268 113.815 13.4849 113.871 13.8293C113.981 14.6144 114.201 15.3582 114.545 16.0745C115.055 17.1351 115.799 17.9891 116.777 18.6502C117.824 19.3665 118.994 19.7522 120.248 19.8624C121.501 19.9726 122.714 19.821 123.884 19.3665C125.014 18.9257 125.978 18.2232 126.736 17.2591C127.273 16.5841 127.658 15.8265 127.906 15.0001C128.072 14.4629 128.154 13.9119 128.209 13.3472C128.278 12.5208 128.196 11.7081 128.017 10.9092ZM124.339 12.6447C124.339 13.664 124.146 14.5042 123.609 15.2343C123.168 15.8541 122.576 16.2535 121.832 16.4188C121.074 16.5979 120.344 16.5566 119.642 16.2398C118.926 15.923 118.416 15.3858 118.085 14.6833C117.769 14.0221 117.631 13.3197 117.658 12.6034C117.7 11.5428 117.989 10.5648 118.788 9.80725C119.504 9.13232 120.372 8.88439 121.35 8.9808C122.741 9.13232 123.609 9.93122 124.091 11.1984C124.284 11.7081 124.366 12.2453 124.339 12.6447Z" fill="#63636F"/>
<path d="M40.2761 6.39115C38.3891 5.46828 36.4194 5.37186 34.4359 6.00547C32.3973 6.65285 30.9648 8.00272 30.1797 9.99996C29.6287 11.3912 29.5461 12.8374 29.8353 14.3113C30.1659 16.0055 31.0061 17.4104 32.3835 18.4573C33.7059 19.4628 35.221 19.8898 36.8601 19.8898C37.48 19.8898 38.0998 19.8347 38.7059 19.6832C40.7995 19.1735 42.3836 17.989 43.3477 16.0468C44.1191 14.4766 44.2706 12.7961 43.9125 11.0881C43.4579 8.95313 42.2458 7.35533 40.2761 6.39115ZM40.2348 12.7823C40.2348 13.7328 40.0282 14.6143 39.4221 15.3719C38.7334 16.2396 37.7968 16.584 36.7086 16.5427C35.1659 16.4738 33.9951 15.3856 33.6645 13.7741C33.4304 12.617 33.5406 11.5013 34.1742 10.4683C34.8767 9.33881 36.0475 8.82916 37.356 9.00823C38.8161 9.21484 39.67 10.1102 40.0833 11.4876C40.1935 11.9008 40.2348 12.3416 40.2348 12.7823Z" fill="#63636F"/>
<path d="M24.904 6.40521C23.2098 5.55122 21.4192 5.41348 19.601 5.84048C17.4247 6.36389 15.8407 7.64489 14.9178 9.69723C14.2979 11.0609 14.1602 12.4934 14.3806 13.9672C14.6148 15.5926 15.3172 16.9837 16.5294 18.0857C17.9343 19.3529 19.6148 19.8901 21.4743 19.9039C22.2043 19.9039 22.9068 19.8212 23.6093 19.6284C25.6203 19.0499 27.1217 17.8515 28.017 15.9507C28.7195 14.4355 28.871 12.8515 28.5404 11.2262C28.0858 9.0223 26.8875 7.39695 24.904 6.40521ZM24.298 14.9038C23.7608 15.8956 22.893 16.419 21.7773 16.5154C19.9729 16.6807 18.6506 15.5237 18.2649 13.857C18.2373 13.733 18.2098 13.5953 18.196 13.4713C18.1547 13.2372 18.1409 12.9892 18.1547 12.7551C18.1547 11.7771 18.3751 10.8818 19.0087 10.1105C19.7663 9.18759 20.7718 8.85701 21.9426 9.00852C23.2511 9.17381 24.1189 9.94516 24.5597 11.1711C25.0004 12.4383 24.9453 13.7055 24.298 14.9038Z" fill="#63636F"/>
</svg>
