<svg width="17" height="17" viewBox="0 0 17 17" fill="none" xmlns="http://www.w3.org/2000/svg">
<path d="M12.2979 0H4.69208C2.09988 0 0 2.09988 0 4.69208V12.3079C0 14.8901 2.09988 17 4.69208 17H12.3079C14.8901 17 17 14.9001 17 12.3079V4.69208C16.99 2.09988 14.88 0 12.2979 0ZM15.4829 12.2979C15.4829 14.0561 14.0561 15.4829 12.2979 15.4829H4.69208C2.93381 15.4829 1.50709 14.0561 1.50709 12.2979V4.69208C1.50709 2.93381 2.93381 1.50709 4.69208 1.50709H12.3079C14.0662 1.50709 15.4929 2.93381 15.4929 4.69208L15.4829 12.2979Z" fill="#A18F57"/>
<path d="M8.48971 3.77777C5.89032 3.77777 3.77832 5.8922 3.77832 8.49457C3.77832 11.0969 5.89032 13.2222 8.50054 13.2222C11.1108 13.2222 13.2228 11.1078 13.2228 8.49457C13.2119 5.8922 11.0999 3.77777 8.48971 3.77777ZM8.48971 11.5957C6.78928 11.5957 5.39211 10.2078 5.39211 8.49457C5.40294 6.79219 6.78928 5.40425 8.48971 5.40425C10.1901 5.40425 11.5873 6.79219 11.5873 8.50541C11.5873 10.2078 10.201 11.5957 8.48971 11.5957Z" fill="#A18F57"/>
<path d="M13.2228 2.83328C12.9738 2.83328 12.7334 2.93631 12.5531 3.10803C12.3728 3.27975 12.2783 3.52874 12.2783 3.77773C12.2783 4.02672 12.3814 4.26712 12.5531 4.44742C12.7248 4.61914 12.9738 4.72217 13.2228 4.72217C13.4718 4.72217 13.7122 4.61914 13.8925 4.44742C14.0728 4.27571 14.1672 4.02672 14.1672 3.77773C14.1672 3.52874 14.0642 3.28833 13.8925 3.10803C13.7207 2.92773 13.4718 2.83328 13.2228 2.83328Z" fill="#A18F57"/>
</svg>
