<svg width="138" height="104" viewBox="0 0 138 104" fill="none" xmlns="http://www.w3.org/2000/svg">
<g clip-path="url(#clip0)">
<path fill-rule="evenodd" clip-rule="evenodd" d="M126.303 51.3096C125.959 50.9354 125.745 46.5962 127.469 44.1775C129.194 41.7587 133.402 40.6023 133.511 40.7236C133.623 40.8424 133.347 46.2683 131.711 48.7826C130.078 51.2967 126.65 51.6839 126.303 51.3096ZM113.992 83.9479C113.913 83.2871 117.214 80.2179 121.104 80.7394C124.991 81.2582 130.618 85.6 130.641 85.8116C130.668 86.0234 125.938 89.206 122.069 88.8576C118.202 88.5091 114.07 84.6087 113.992 83.9506V83.9479ZM122.914 38.8754C122.851 39.02 121.597 39.3091 120.647 38.7903C119.697 38.2714 118.779 36.7716 118.8 36.7252C118.821 36.6787 120.462 36.516 121.427 36.9988C122.395 37.4815 122.979 38.7283 122.914 38.878V38.8754ZM114.13 19.4406C114.002 19.7375 111.464 20.3234 109.538 19.2703C107.613 18.2171 105.753 15.1814 105.795 15.0886C105.837 14.9956 109.16 14.6651 111.117 15.641C113.076 16.6167 114.258 19.1463 114.13 19.4406ZM118.45 77.7992C118.333 77.3243 120.277 74.5907 122.971 74.4074C125.664 74.2267 129.914 76.604 129.953 76.7563C129.989 76.9087 127.086 79.934 124.422 80.2386C121.758 80.5432 118.57 78.2742 118.453 77.7992H118.45ZM122.379 32.6079C122.358 32.1588 119.776 27.4943 117.201 25.1427C114.626 22.7938 111.307 22.1303 111.315 22.2723C111.32 22.4168 114.884 28.1784 117.464 30.6436C120.044 33.1087 122.403 33.0571 122.382 32.6079H122.379ZM125.327 62.239C125.066 61.8183 125.703 58.0572 127.834 56.4904C129.963 54.9235 134.242 55.1455 134.325 55.2798C134.409 55.414 133.091 59.9623 131.03 61.6375C128.969 63.3128 125.588 62.6572 125.327 62.239ZM107.663 85.8659C107.738 85.4348 110.78 84.5287 113.527 86.0207C116.272 87.5076 119.523 91.883 119.496 92.0198C119.473 92.1566 115.361 92.7038 112.594 91.3279C109.825 89.9495 107.587 86.2995 107.663 85.8659ZM109.458 12.6233C109.231 13.1473 104.626 13.0931 101.083 10.0859C97.5456 7.08123 94.0628 0.181343 94.1359 0.0135571C94.2089 -0.154229 100.254 0.787955 103.851 3.6558C107.451 6.52624 109.682 12.0993 109.458 12.6208V12.6233ZM122.418 30.6487C121.876 30.53 118.8 25.3983 118.651 20.7158C118.502 16.0332 121.31 10.4395 121.484 10.4782C121.657 10.5144 125.043 17.4659 125.332 22.1794C125.619 26.893 122.964 30.7675 122.418 30.6487ZM124.761 41.8259C124.242 41.4878 122.611 35.765 123.84 31.7044C125.069 27.644 129.582 24.0999 129.747 24.2083C129.911 24.3167 131.322 31.7278 130.227 35.8759C129.134 40.0242 125.278 42.1666 124.758 41.8284L124.761 41.8259ZM119.476 50.321C119.063 50.4682 117.871 53.6044 118.946 56.0412C120.021 58.4754 123.728 60.9096 123.861 60.8606C123.994 60.8115 124.975 56.6891 124.004 54.2163C123.037 51.7434 119.885 50.1712 119.476 50.321ZM116.89 58.2638C116.478 58.4135 115.286 61.5498 116.361 63.984C117.436 66.4207 121.145 68.8523 121.276 68.8034C121.406 68.7568 122.387 64.6344 121.419 62.159C120.451 59.6835 117.3 58.1166 116.89 58.2638ZM122.431 71.0619C122.181 70.4167 124.182 65.9148 127.691 64.841C131.197 63.7698 137.27 65.8915 137.351 66.0955C137.432 66.302 134.226 71.5111 130.782 72.7502C127.339 73.9892 122.682 71.7047 122.429 71.0619H122.431ZM113.342 82.3707C112.883 82.5772 110.835 80.8296 111.279 77.8406C111.722 74.8514 114.842 69.7171 114.988 69.6526C115.135 69.5855 117.232 72.363 116.908 75.2979C116.585 78.2355 113.801 82.1643 113.342 82.3734V82.3707ZM114.508 16.9678C114.109 16.9935 111.195 13.6223 110.405 9.96715C109.617 6.31458 110.775 1.30164 110.903 1.29389C111.031 1.28615 114.428 6.0203 115.32 9.66771C116.212 13.3151 114.907 16.9419 114.508 16.9651V16.9678ZM124.808 50.2591C125.134 49.8667 125.129 45.5198 123.287 43.2095C121.445 40.8992 117.185 39.9958 117.083 40.1196C116.979 40.2462 117.524 45.6462 119.283 48.0598C121.041 50.4734 124.485 50.654 124.811 50.2591H124.808Z" fill="#A18F57"/>
<path fill-rule="evenodd" clip-rule="evenodd" d="M11.0447 51.3132C11.389 50.939 11.6003 46.5998 9.8785 44.1811C8.15406 41.7624 3.94599 40.6059 3.83641 40.7272C3.72423 40.846 4.00077 46.272 5.63652 48.7862C7.26966 51.3004 10.6977 51.6876 11.0447 51.3132ZM23.3558 83.9515C23.434 83.2907 20.1339 80.2215 16.2441 80.743C12.3569 81.2617 6.72962 85.6036 6.70615 85.8152C6.68005 86.027 11.4099 89.2098 15.2788 88.8612C19.1451 88.5127 23.2776 84.6123 23.3558 83.9542V83.9515ZM14.4335 38.8791C14.4987 39.0236 15.751 39.3127 16.7006 38.7939C17.6529 38.275 18.5686 36.7752 18.5477 36.7288C18.5268 36.6823 16.8859 36.5198 15.9207 37.0024C14.9527 37.4851 14.3684 38.7319 14.431 38.8816L14.4335 38.8791ZM23.2202 19.4443C23.348 19.7411 25.8864 20.3271 27.8117 19.2739C29.737 18.2207 31.5972 15.1851 31.5554 15.0922C31.5137 14.9992 28.19 14.6688 26.2333 15.6446C24.2741 16.6203 23.0924 19.15 23.2202 19.4443ZM18.8999 77.8028C19.0173 77.3279 17.0737 74.5943 14.3787 74.4109C11.6864 74.2303 7.43663 76.6076 7.3975 76.76C7.36096 76.9123 10.2646 79.9376 12.9282 80.2421C15.5919 80.5468 18.7799 78.2778 18.8973 77.8028H18.8999ZM14.971 32.6116C14.9919 32.1624 17.5746 27.498 20.1495 25.1464C22.7245 22.7974 26.0429 22.134 26.0351 22.276C26.0298 22.4206 22.4662 28.182 19.886 30.6472C17.306 33.1124 14.9474 33.0607 14.9683 32.6116H14.971ZM12.0256 62.2426C12.2865 61.8219 11.6473 58.0608 9.51849 56.494C7.38966 54.9271 3.11116 55.1491 3.02766 55.2834C2.94419 55.4176 4.26165 59.9659 6.32264 61.6412C8.38364 63.3164 11.7647 62.6608 12.0256 62.2426ZM29.69 85.8695C29.6145 85.4384 26.5725 84.5323 23.8254 86.0243C21.0783 87.5112 17.8302 91.8866 17.8563 92.0234C17.8799 92.1601 21.9914 92.7074 24.7594 91.3315C27.5273 89.9531 29.7684 86.3031 29.69 85.8695ZM27.8952 12.627C28.1221 13.151 32.7267 13.0968 36.2696 10.0895C39.8072 7.08488 43.29 0.185005 43.217 0.0172191C43.1466 -0.150567 37.0992 0.791616 33.5016 3.65946C29.9015 6.5299 27.6709 12.103 27.8952 12.6244V12.627ZM14.9345 30.6524C15.4771 30.5336 18.553 25.4019 18.7016 20.7195C18.8503 16.037 16.0432 10.4432 15.8684 10.4819C15.6962 10.518 12.3099 17.4695 12.023 22.1831C11.736 26.8966 14.3918 30.7711 14.9371 30.6524H14.9345ZM12.5917 41.8295C13.1109 41.4914 14.7414 35.7686 13.5126 31.7082C12.2839 27.6478 7.77056 24.1035 7.6062 24.212C7.44184 24.3204 6.03046 31.7314 7.12617 35.8795C8.21928 40.0278 12.0752 42.1703 12.5943 41.832L12.5917 41.8295ZM17.8772 50.3247C18.2894 50.4718 19.4817 53.608 18.4068 56.0448C17.3294 58.4791 13.6222 60.9132 13.4917 60.8642C13.3587 60.8151 12.3804 56.6928 13.3483 54.2199C14.3161 51.747 17.465 50.175 17.8772 50.3247ZM20.4626 58.2674C20.8749 58.4171 22.067 61.5534 20.9921 63.9876C19.9174 66.4243 16.2102 68.8559 16.0771 68.807C15.9466 68.7604 14.9657 64.638 15.9336 62.1626C16.9016 59.6871 20.053 58.1203 20.4626 58.2674ZM14.9214 71.0656C15.1745 70.4203 13.1709 65.9184 9.66197 64.8446C6.15568 63.7734 0.0822794 65.8952 0.00140502 66.0991C-0.0768604 66.3056 3.1268 71.5147 6.57049 72.7538C10.0142 73.9928 14.671 71.7083 14.924 71.0656H14.9214ZM24.0107 82.3743C24.4697 82.5808 26.5177 80.8334 26.0743 77.8442C25.6307 74.8549 22.5105 69.7207 22.3645 69.6562C22.2184 69.5891 20.1209 72.3666 20.4443 75.3015C20.7678 78.2391 23.5515 82.1679 24.0107 82.377V82.3743ZM22.8419 16.9714C23.2436 16.9972 26.1551 13.626 26.9456 9.9708C27.7335 6.31822 26.5751 1.3053 26.4473 1.29756C26.3195 1.28981 22.9227 6.02396 22.0306 9.67137C21.1383 13.3188 22.4428 16.9455 22.8419 16.9688V16.9714ZM12.5421 50.2627C12.216 49.8703 12.2213 45.5234 14.0631 43.2131C15.9049 40.9028 20.1652 39.9994 20.267 40.1232C20.3713 40.2498 19.8261 45.6499 18.0676 48.0634C16.3093 50.477 12.8656 50.6576 12.5395 50.2627H12.5421Z" fill="#A18F57"/>
<path d="M39.6724 49.335H97.6799H97.9304V49.9028V50.4604V51.0308H97.6799H39.6724H39.4219V50.4604V49.9028V49.335H39.6724Z" fill="#A18F57"/>
<path d="M43.8132 51.8516H93.5354H93.7362V52.2078V52.6389V52.9925H93.5354H43.8132H43.6123V52.6389V52.2078V51.8516H43.8132Z" fill="#A18F57"/>
<path d="M35.5748 47.2286V39.2315H38.0011C38.9194 39.2315 39.522 39.2727 39.8012 39.3529C40.229 39.4715 40.5916 39.7323 40.8786 40.135C41.1683 40.5377 41.3143 41.0565 41.3143 41.6915C41.3143 42.1819 41.2309 42.5975 41.0639 42.9279C40.8969 43.2635 40.6856 43.5269 40.4273 43.7179C40.1691 43.9063 39.9082 44.0329 39.642 44.0947C39.282 44.1697 38.7576 44.2109 38.0715 44.2109H37.0854V47.2286H35.5723H35.5748ZM37.0879 40.5841V42.8506H37.915C38.5124 42.8506 38.9116 42.8093 39.1125 42.7266C39.3107 42.6441 39.4699 42.5123 39.5846 42.3343C39.6995 42.1562 39.7568 41.9497 39.7568 41.7122C39.7568 41.4231 39.6759 41.183 39.5142 40.9919C39.355 40.8035 39.1515 40.6847 38.9063 40.6383C38.7237 40.5997 38.361 40.5841 37.8185 40.5841H37.0854H37.0879ZM48.5408 47.2286H46.8921L46.2398 45.4113H43.2423L42.624 47.2286H41.0169L43.9362 39.2315H45.538L48.5408 47.2286ZM45.752 44.0663L44.7189 41.0978L43.7066 44.0663H45.752ZM49.3469 47.2286V39.2315H52.5324C53.3333 39.2315 53.915 39.3038 54.2777 39.4483C54.6429 39.5903 54.9298 39.8458 55.1491 40.2125C55.3656 40.579 55.4751 40.9997 55.4751 41.4721C55.4751 42.071 55.3108 42.5691 54.9821 42.959C54.6507 43.3462 54.1551 43.5939 53.4977 43.6946C53.8264 43.8986 54.0951 44.1231 54.309 44.3683C54.5229 44.611 54.8073 45.0447 55.17 45.6669L56.0857 47.2286H54.2751L53.182 45.4887C52.7932 44.8666 52.5271 44.4742 52.3836 44.3142C52.2402 44.1515 52.0888 44.0431 51.9271 43.9786C51.7653 43.9193 51.5149 43.8909 51.1653 43.8909H50.8601V47.2286H49.3469ZM50.8601 42.6131H51.9793C52.7045 42.6131 53.1585 42.5821 53.3385 42.5175C53.5186 42.453 53.6594 42.3369 53.7611 42.1794C53.8629 42.0194 53.915 41.8181 53.915 41.5805C53.915 41.3095 53.8473 41.0953 53.7115 40.9301C53.5785 40.7649 53.3881 40.659 53.1403 40.6151C53.0176 40.597 52.6497 40.5893 52.0367 40.5893H50.8574V42.6157L50.8601 42.6131ZM56.923 47.2286V39.2315H58.4361V42.7834L61.4937 39.2315H63.5286L60.7059 42.3471L63.6825 47.2286H61.7233L59.6649 43.4753L58.4361 44.8123V47.2286H56.923ZM67.3767 47.2286V39.2315H68.8925V42.3782H71.8587V39.2315H73.3718V47.2286H71.8587V43.7307H68.8925V47.2286H67.3767ZM74.6266 43.279C74.6266 42.4634 74.7415 41.7819 74.9684 41.2269C75.138 40.8217 75.3703 40.455 75.665 40.1298C75.9598 39.8071 76.2833 39.5671 76.6329 39.4097C77.0999 39.1979 77.6374 39.0947 78.2504 39.0947C79.3539 39.0947 80.2383 39.4613 80.901 40.1918C81.5637 40.9223 81.8949 41.9394 81.8949 43.2403C81.8949 44.5335 81.5637 45.5429 80.9062 46.2734C80.2488 47.0014 79.3696 47.3654 78.2687 47.3654C77.1547 47.3654 76.2677 47.0039 75.6102 46.2786C74.9528 45.5506 74.6241 44.5517 74.6241 43.279H74.6266ZM76.1842 43.2249C76.1842 44.1283 76.3824 44.8175 76.7712 45.2847C77.1651 45.7519 77.6608 45.9843 78.266 45.9843C78.8687 45.9843 79.3617 45.7546 79.7505 45.2874C80.1366 44.8227 80.3296 44.1283 80.3296 43.2017C80.3296 42.2853 80.1419 41.6011 79.7661 41.1494C79.3904 40.6977 78.8896 40.4731 78.266 40.4731C77.6425 40.4731 77.139 40.7029 76.7581 41.1571C76.3773 41.6141 76.1842 42.3007 76.1842 43.2223V43.2249ZM84.7621 47.2286V40.5841H82.5393V39.2289H88.4953V40.5841H86.2779V47.2286H84.7646H84.7621ZM89.4711 47.2286V39.2315H95.0279V40.5867H90.9842V42.3601H94.7462V43.705H90.9842V45.8811H95.1714V47.2286H89.4711ZM96.4967 47.2286V39.2961H98.0098V45.8811H101.772V47.2286H96.4967Z" fill="#A18F57"/>
<path fill-rule="evenodd" clip-rule="evenodd" d="M102.08 103.999H35.2725C35.3037 102.141 35.7785 100.749 37.696 98.7849H99.5597C101.334 100.349 102.085 101.79 102.08 103.999Z" fill="#A18F57"/>
<path d="M91.5924 90.4784H45.7549C45.7549 77.5022 45.7549 68.4959 45.7549 55.4319C45.7601 54.9569 46.1019 54.2239 46.6341 54.2239C47.0932 54.2239 47.4976 54.7556 47.5185 55.4319V87.8559H49.2455V55.4319C49.2559 54.7943 49.8821 54.2239 50.4691 54.2239C51.1057 54.2239 51.6718 54.7556 51.7005 55.4319V87.8559H53.8501V55.4319C53.8632 54.704 54.7372 54.2239 55.3346 54.2239C56.1067 54.2239 56.7955 54.7556 56.8295 55.4319V87.8559H59.5166V55.4319C59.5348 54.6213 60.7271 54.2239 61.3219 54.2239C62.2611 54.2239 63.0959 54.7556 63.1376 55.4319V87.8559H66.4431V55.4319C66.464 54.5543 68.0579 54.2239 68.6318 54.2239C69.7746 54.2239 70.7867 54.7556 70.8337 55.4319V87.8559H74.2122V55.4319C74.2539 54.7556 75.0862 54.2239 76.028 54.2239C76.6201 54.2239 77.815 54.6213 77.8307 55.4319V87.8559H80.5178V55.4319C80.5517 54.7556 81.2378 54.2239 82.0127 54.2239C82.6101 54.2239 83.4867 54.7013 83.4971 55.4319V87.8559H85.6494V55.4319C85.6754 54.7865 86.1895 54.2832 86.7868 54.2289C87.4052 54.1773 88.0913 54.7529 88.1017 55.4319V87.8559H89.8313V55.4319C89.8497 54.7556 90.2566 54.2239 90.7131 54.2239C91.2453 54.2239 91.5871 54.944 91.5924 55.4319V90.4784Z" fill="#A18F57"/>
<path fill-rule="evenodd" clip-rule="evenodd" d="M41.7578 96.485C43.8527 95.4576 44.9092 94.1335 45.1388 92.5847H92.2052C92.4373 94.1335 93.4912 95.4551 95.5887 96.485C67.6845 96.485 69.6673 96.485 41.7578 96.485Z" fill="#A18F57"/>
<path fill-rule="evenodd" clip-rule="evenodd" d="M51.1199 0.664062L52.2391 4.46376L55.8862 4.45602L52.9304 6.79728L54.0653 10.5944L51.1199 8.24023L48.1745 10.5944L49.3067 6.79728L46.3535 4.45602L50.0007 4.46376L51.1199 0.664062Z" fill="#A18F57"/>
<path fill-rule="evenodd" clip-rule="evenodd" d="M74.2156 0.664062L75.3348 4.46376L78.9819 4.45602L76.0261 6.79728L77.1609 10.5944L74.2156 8.24023L71.2702 10.5944L72.4024 6.79728L69.4492 4.45602L73.0963 4.46376L74.2156 0.664062Z" fill="#A18F57"/>
<path fill-rule="evenodd" clip-rule="evenodd" d="M62.6677 0.664062L63.7869 4.46376L67.434 4.45602L64.4783 6.79728L65.6131 10.5944L62.6677 8.24023L59.7223 10.5944L60.8546 6.79728L57.9014 4.45602L61.5485 4.46376L62.6677 0.664062Z" fill="#A18F57"/>
<path fill-rule="evenodd" clip-rule="evenodd" d="M85.7615 0.664062L86.8807 4.46376L90.5278 4.45602L87.572 6.79728L88.7069 10.5944L85.7615 8.24023L82.8161 10.5944L83.9483 6.79728L80.9951 4.45602L84.6423 4.46376L85.7615 0.664062Z" fill="#A18F57"/>
<path d="M95.6411 14.9233V17.0735H41.4316V14.9233H95.6411Z" fill="#A18F57"/>
<path d="M95.4895 12.835V13.6377H41.583V12.835H95.4895Z" fill="#A18F57"/>
<path fill-rule="evenodd" clip-rule="evenodd" d="M40.733 22.0837H96.6772C100.562 22.1328 106.471 23.0595 106.653 28.9295C106.943 38.3021 93.1448 38.6559 92.2135 31.1339C92.6048 25.0213 101.29 22.4736 102.19 28.7152C102.404 34.1127 94.2978 32.2903 96.7293 29.7116C97.285 29.1256 97.9842 29.3708 98.2789 29.8329C98.1798 29.7735 98.0651 29.74 97.9424 29.74C97.5746 29.74 97.2772 30.0368 97.2772 30.4008C97.2772 30.9505 98.0312 31.2448 98.412 30.868C100.04 29.3269 95.2998 27.6233 95.4197 31.1339C95.4197 31.7792 95.9232 32.5097 96.3823 32.9304C99.1869 35.4524 103.716 32.7859 103.244 28.9295C103.244 27.6749 102.688 26.5391 101.79 25.7183C100.898 24.9025 99.6669 24.3967 98.3078 24.3967C96.2859 24.3967 94.4518 25.1504 93.124 26.3636C92.9987 26.4797 92.8787 26.5985 92.7613 26.7199H44.6462C44.5315 26.5985 44.4115 26.4797 44.2863 26.3636C42.9584 25.1477 41.1244 24.3967 39.0999 24.3967C37.7406 24.3967 36.5092 24.9025 35.6171 25.7183C30.9003 29.3295 36.1257 36.9831 41.0252 32.9304C41.487 32.5097 41.9905 31.7792 41.9905 31.1339C42.1105 27.6233 37.3728 29.3295 38.9981 30.868C39.4025 31.2707 40.1304 30.9816 40.1304 30.4008C40.1304 30.0368 39.8329 29.74 39.4651 29.74C39.3425 29.74 39.2277 29.7735 39.1286 29.8329C39.4234 29.3735 40.1226 29.1256 40.6756 29.7116C43.1045 32.2903 35.0014 34.1127 35.2152 28.7152C36.718 23.3719 45.1367 25.5247 45.1915 31.1339C44.4455 38.4855 30.9655 37.8633 30.7515 28.9295C30.6106 23.0569 36.8432 22.1328 40.7278 22.0837H40.733ZM96.1763 18.8184H41.2391C31.4924 18.6532 23.6607 27.8349 31.8055 35.6873C35.2336 38.8261 42.2174 38.8184 45.1316 34.9827H92.2839C92.5343 35.3131 92.8161 35.6201 93.1265 35.9041C96.2545 38.7695 102.534 38.4984 105.607 35.6873C113.729 27.8865 105.631 18.5009 96.1763 18.8184ZM91.4934 33.6429H45.9194C46.0315 33.3848 46.1281 33.1189 46.2063 32.8453H91.2065C91.2847 33.1189 91.3813 33.3848 91.4907 33.6429H91.4934ZM90.9794 31.5029H89.2002C89.4141 31.3791 89.6046 31.2009 89.7611 30.9841C90.0586 30.5763 90.2385 30.0316 90.2385 29.438C90.2385 28.9836 90.1341 28.55 89.9437 28.1885C89.8498 28.0053 89.735 27.8401 89.6019 27.6981H91.9917C91.3395 28.7048 90.9664 29.8793 90.9664 31.1339C90.9664 31.2577 90.969 31.3817 90.9769 31.5029H90.9794ZM45.4186 27.6981C46.0707 28.7048 46.4438 29.8793 46.4438 31.1339C46.4438 31.2577 46.4412 31.3817 46.4334 31.5029H47.9491C47.7717 31.3843 47.6125 31.2268 47.4795 31.0435C47.1821 30.6383 47.0021 30.0911 47.0021 29.4973C47.0021 29.0429 47.109 28.6119 47.2969 28.248C47.4038 28.0415 47.5395 27.8531 47.696 27.6981H45.4211H45.4186ZM53.6572 27.6981H56.5896C56.4331 27.8531 56.2973 28.0388 56.1904 28.248C56.0026 28.6119 55.8956 29.0429 55.8956 29.4973C55.8956 30.0936 56.0757 30.6383 56.373 31.0435C56.5061 31.2268 56.6653 31.3843 56.8426 31.5029H53.2555C53.4694 31.3791 53.6598 31.2009 53.819 30.9841C54.1164 30.5763 54.2964 30.0316 54.2964 29.438C54.2964 28.9836 54.192 28.55 54.0016 28.1885C53.9077 28.0053 53.7928 27.8401 53.6598 27.6981H53.6572ZM62.5508 27.6981H65.5249C65.3684 27.8531 65.2327 28.0388 65.1257 28.248C64.9353 28.6119 64.8309 29.0429 64.8309 29.4973C64.8309 30.0936 65.011 30.6383 65.3083 31.0435C65.4414 31.2268 65.6006 31.3843 65.7779 31.5029H62.1464C62.3604 31.3791 62.5508 31.2009 62.71 30.9841C63.0073 30.5763 63.1874 30.0316 63.1874 29.438C63.1874 28.9836 63.0804 28.55 62.8926 28.1885C62.7987 28.0053 62.6838 27.8401 62.5508 27.6981ZM71.4861 27.6981H74.6428C74.4863 27.8531 74.3507 28.0388 74.2436 28.248C74.0558 28.6119 73.9489 29.0429 73.9489 29.4973C73.9489 30.0936 74.1289 30.6383 74.4289 31.0435C74.5645 31.2268 74.721 31.3843 74.8985 31.5029H71.0869C71.3009 31.3791 71.4913 31.2009 71.6478 30.9841C71.9453 30.5763 72.1254 30.0316 72.1254 29.438C72.1254 28.9836 72.021 28.55 71.8304 28.1885C71.7366 28.0053 71.6218 27.8401 71.4888 27.6981H71.4861ZM80.604 27.6981H83.6381C83.479 27.8531 83.3459 28.0388 83.239 28.248C83.0511 28.6119 82.9442 29.0429 82.9442 29.4973C82.9442 30.0936 83.1243 30.6383 83.4242 31.0435C83.5572 31.2268 83.7164 31.3843 83.8937 31.5029H80.2049C80.4188 31.3791 80.6093 31.2009 80.7657 30.9841C81.0632 30.5763 81.2433 30.0316 81.2433 29.438C81.2433 28.9836 81.1389 28.55 80.9485 28.1885C80.8545 28.0053 80.7397 27.8401 80.6067 27.6981H80.604Z" fill="#A18F57"/>
<path fill-rule="evenodd" clip-rule="evenodd" d="M41.2344 25.2148L95.7254 25.2691L92.8192 27.6103H44.0703L41.2344 25.2148Z" fill="#A18F57"/>
</g>
<defs>
<clipPath id="clip0">
<rect width="137.358" height="104" fill="white"/>
</clipPath>
</defs>
</svg>
