<svg width="21" height="20" viewBox="0 0 21 20" fill="none" xmlns="http://www.w3.org/2000/svg">
<path fill-rule="evenodd" clip-rule="evenodd" d="M13.9569 20H0.877795C0.395008 20 0 19.617 0 19.1489V0.851064C0 0.382979 0.395008 0 0.877795 0H13.9569C14.4397 0 14.8347 0.382979 14.8347 0.851064V5.00776L16.0636 3.82963C16.4148 3.4892 16.9414 3.4892 17.2925 3.82963L20.4087 6.80841C20.5843 6.97863 20.672 7.1914 20.672 7.40417C20.672 7.61694 20.5843 7.82971 20.4087 7.99992L14.829 13.3494C14.8328 13.3814 14.8347 13.4139 14.8347 13.4468V19.1489C14.8347 19.617 14.4397 20 13.9569 20ZM8.25131 11.3191L13.0791 6.6908V1.65957H1.7117V18.3404H13.0791V15.027L12.5525 15.532C12.4647 15.6171 12.333 15.7022 12.1575 15.7447L7.94408 16.8511H7.72464C7.50519 16.8511 7.28574 16.766 7.11018 16.5958C6.89074 16.3831 6.80296 16.0852 6.89074 15.7873L8.03186 11.7021C8.07575 11.5745 8.16353 11.4468 8.25131 11.3191ZM9.61188 12.383L8.90965 14.8511L11.4991 14.1702L18.5653 7.36161L16.6781 5.53179L9.61188 12.383ZM5.00339 6.89348H9.83121C10.2701 6.89348 10.709 6.51052 10.709 6.04247C10.709 5.57441 10.314 5.19145 9.83121 5.19145H5.00339C4.52061 5.19145 4.12561 5.57441 4.12561 6.04247C4.12561 6.51052 4.52061 6.89348 5.00339 6.89348Z" fill="#958866"/>
</svg>
