<svg width="40" height="40" viewBox="0 0 40 40" fill="none" xmlns="http://www.w3.org/2000/svg">
<path fill-rule="evenodd" clip-rule="evenodd" d="M5.07825 21.1719H3.51563C1.57711 21.1719 0 19.5948 0 17.6563V3.51563C0 1.57711 1.57711 0 3.51563 0H17.6563C19.5948 0 21.1719 1.57711 21.1719 3.51563V17.6563C21.1719 19.5948 19.5948 21.1719 17.6563 21.1719H16.172V23.8285H23.0975C23.1158 23.828 23.1342 23.828 23.1525 23.8285H29.9725C29.9908 23.828 30.0091 23.828 30.0275 23.8285H36.0158C38.2127 23.8285 40.0002 25.6159 40.0002 27.8128C40.0002 30.0098 38.2127 31.7972 36.0158 31.7972H35.547V38.8281C35.547 39.4753 35.0223 40 34.3751 40C33.7279 40 33.2032 39.4753 33.2032 38.8281V31.7972H28.1509C28.1424 31.7974 28.1338 31.7975 28.1252 31.7975C28.1167 31.7975 28.1081 31.7974 28.0995 31.7972H21.276L21.2503 31.7975L21.2245 31.7972H16.172V37.6562H18.7501C19.3973 37.6562 19.922 38.1809 19.922 38.8281C19.922 39.4753 19.3973 40 18.7501 40H15.0069L15.0001 40L14.9934 40H6.25688L6.25012 40L6.24337 40H2.50012C1.85294 40 1.32825 39.4753 1.32825 38.8281C1.32825 38.1809 1.85294 37.6562 2.50012 37.6562H5.07825V21.1719ZM29.751 29.4535H34.3469C34.3563 29.4532 34.3657 29.4531 34.3751 29.4531C34.3846 29.4531 34.394 29.4532 34.4034 29.4535H36.0158C36.9204 29.4535 37.6564 28.7174 37.6564 27.8128C37.6564 26.9082 36.9204 26.1722 36.0158 26.1722H30.8448L29.751 29.4535ZM28.3742 26.1722L27.2805 29.4535H22.8761L23.9698 26.1722H28.3742ZM16.172 26.1722H21.4992L20.4055 29.4535H16.172V26.1722ZM13.8282 21.1719V25.0003V30.6253V37.6562H7.422V21.1719H13.8282ZM17.6563 18.8281H15.0072L15.0001 18.8281L14.993 18.8281H6.25721L6.25012 18.8281L6.24304 18.8281H3.51563C2.86946 18.8281 2.34375 18.3024 2.34375 17.6563V3.51563C2.34375 2.86946 2.86946 2.34375 3.51563 2.34375H17.6563C18.3024 2.34375 18.8281 2.86946 18.8281 3.51563V17.6563C18.8281 18.3024 18.3024 18.8281 17.6563 18.8281ZM7.11693 5.4967C7.16614 5.41363 7.22582 5.33628 7.29513 5.26673C7.51497 5.04619 7.81365 4.9222 8.12513 4.9222H10.6049C12.664 4.9222 14.3392 6.57533 14.3392 8.60728C14.3392 10.6392 12.664 12.2924 10.6049 12.2924C10.3017 12.2924 9.78105 12.2946 9.297 12.297V15.0001C9.297 15.6473 8.77231 16.172 8.12512 16.172C7.47794 16.172 6.95325 15.6473 6.95325 15.0001V6.0944V6.09432C6.95324 6.08005 6.9535 6.06582 6.95401 6.05161C6.96127 5.84939 7.01977 5.66022 7.11693 5.4967ZM9.30221 8.14142L9.30029 7.26603H10.6048C11.3586 7.26603 11.9954 7.88033 11.9954 8.60736C11.9954 9.33439 11.3586 9.94869 10.6048 9.94869C10.3026 9.94869 9.78865 9.9508 9.30763 9.95322C9.30447 9.32331 9.30378 8.95219 9.30282 8.44412L9.30271 8.38447L9.30221 8.14142Z" fill="#A18F57"/>
</svg>
