<svg width="33" height="27" viewBox="0 0 33 27" fill="none" xmlns="http://www.w3.org/2000/svg">
<path fill-rule="evenodd" clip-rule="evenodd" d="M30.3589 8.29263C30.5874 8.52126 30.887 8.6355 31.1865 8.6355C31.486 8.6355 31.7856 8.52126 32.0141 8.29271C32.4712 7.8356 32.4712 7.09453 32.0141 6.63743C27.7339 2.35717 22.11 0 16.1784 0C10.2469 0 4.62301 2.35717 0.342831 6.63735C-0.114277 7.09446 -0.114277 7.83552 0.342831 8.29263C0.799938 8.74974 1.54108 8.74974 1.99811 8.29263C5.83616 4.45465 10.8721 2.34094 16.1784 2.34094C21.4847 2.34094 26.5208 4.45465 30.3589 8.29263ZM5.58449 13.1279C5.28493 13.1279 4.98537 13.0136 4.75689 12.785C4.29979 12.3279 4.29979 11.5868 4.75689 11.1297C7.80768 8.07893 11.864 6.39876 16.1784 6.39876C20.4929 6.39876 24.5492 8.07893 27.5999 11.1297C28.0571 11.5868 28.0571 12.3279 27.5999 12.785C27.1429 13.242 26.4018 13.2421 25.9447 12.785C23.336 10.1764 19.8676 8.7397 16.1784 8.7397C12.4893 8.7397 9.02084 10.1764 6.41217 12.785C6.18362 13.0136 5.88406 13.1279 5.58449 13.1279ZM21.7073 17.0221C21.9358 17.2507 22.2354 17.3649 22.5349 17.3649C22.8344 17.3649 23.134 17.2507 23.3626 17.0221C23.8197 16.565 23.8197 15.8238 23.3626 15.3668C19.4013 11.4055 12.9559 11.4055 8.99469 15.3668C8.53758 15.8239 8.53758 16.565 8.99469 17.0221C9.45179 17.4792 10.1929 17.4792 10.65 17.0221C13.6985 13.9736 18.6587 13.9735 21.7073 17.0221ZM12.5111 22.4731C12.5111 24.4954 14.1563 26.1406 16.1785 26.1406C18.2008 26.1406 19.846 24.4954 19.846 22.4731C19.846 20.4509 18.2008 18.8057 16.1785 18.8057C14.1563 18.8057 12.5111 20.4509 12.5111 22.4731ZM14.852 22.4731C14.852 21.7417 15.4471 21.1466 16.1785 21.1466C16.91 21.1466 17.5051 21.7417 17.5051 22.4731C17.5051 23.2046 16.91 23.7997 16.1785 23.7997C15.4471 23.7997 14.852 23.2046 14.852 22.4731Z" fill="#A18F57"/>
</svg>
