<svg width="360" height="156" viewBox="0 0 360 156" fill="none" xmlns="http://www.w3.org/2000/svg">
<g filter="url(#filter0_d)">
<path d="M0 16H360V76H0V16Z" fill="white"/>
</g>
<g filter="url(#filter1_d)">
<rect x="127" y="16" width="1" height="60" rx="0.5" fill="#E7EAEC"/>
</g>
<g filter="url(#filter2_d)">
<rect x="240" y="16" width="1" height="60" rx="0.5" fill="#E7EAEC"/>
</g>
<path d="M16.5 29.505C16.77 29.265 17.0833 29.0817 17.44 28.955C17.7967 28.8283 18.2017 28.765 18.655 28.765C19.025 28.765 19.3567 28.81 19.65 28.9C19.9467 28.99 20.1983 29.1167 20.405 29.28C20.6117 29.4433 20.77 29.6367 20.88 29.86C20.9933 30.0833 21.05 30.3283 21.05 30.595C21.05 30.955 20.96 31.2717 20.78 31.545C20.6033 31.8183 20.3533 32.03 20.03 32.18C20.2133 32.2567 20.38 32.3517 20.53 32.465C20.68 32.575 20.8083 32.7 20.915 32.84C21.025 32.98 21.1083 33.1333 21.165 33.3C21.225 33.4667 21.255 33.6417 21.255 33.825C21.255 34.1383 21.1967 34.4317 21.08 34.705C20.9633 34.9783 20.7933 35.2167 20.57 35.42C20.35 35.62 20.0783 35.7783 19.755 35.895C19.4317 36.0117 19.0633 36.07 18.65 36.07C18.1367 36.07 17.675 35.9867 17.265 35.82C16.855 35.65 16.5033 35.4217 16.21 35.135L16.49 34.675C16.5167 34.6383 16.55 34.6083 16.59 34.585C16.63 34.5583 16.6733 34.545 16.72 34.545C16.79 34.545 16.8733 34.5833 16.97 34.66C17.0667 34.7333 17.19 34.815 17.34 34.905C17.49 34.995 17.6717 35.0783 17.885 35.155C18.1017 35.2283 18.365 35.265 18.675 35.265C18.9383 35.265 19.1733 35.2333 19.38 35.17C19.59 35.1067 19.765 35.015 19.905 34.895C20.0483 34.775 20.1567 34.6283 20.23 34.455C20.3067 34.2817 20.345 34.0867 20.345 33.87C20.345 33.6833 20.3083 33.5117 20.235 33.355C20.165 33.1983 20.0617 33.065 19.925 32.955C19.7883 32.8417 19.6217 32.755 19.425 32.695C19.2283 32.6317 19.0067 32.6 18.76 32.6H17.78V31.805H18.72C18.9233 31.805 19.1117 31.78 19.285 31.73C19.4617 31.68 19.6117 31.6067 19.735 31.51C19.8617 31.4133 19.96 31.295 20.03 31.155C20.1033 31.015 20.14 30.855 20.14 30.675C20.14 30.5117 20.1067 30.3617 20.04 30.225C19.9733 30.0883 19.8767 29.9717 19.75 29.875C19.6233 29.775 19.4683 29.6983 19.285 29.645C19.1017 29.5917 18.8933 29.565 18.66 29.565C18.39 29.565 18.16 29.5933 17.97 29.65C17.78 29.7067 17.62 29.77 17.49 29.84C17.36 29.9067 17.2533 29.9683 17.17 30.025C17.09 30.0817 17.02 30.11 16.96 30.11C16.9067 30.11 16.8633 30.0983 16.83 30.075C16.7967 30.0517 16.765 30.0133 16.735 29.96L16.5 29.505ZM25.1238 33.72C24.7138 33.7333 24.3638 33.7667 24.0738 33.82C23.7872 33.87 23.5522 33.9367 23.3688 34.02C23.1888 34.1033 23.0572 34.2017 22.9738 34.315C22.8938 34.4283 22.8538 34.555 22.8538 34.695C22.8538 34.8283 22.8755 34.9433 22.9188 35.04C22.9622 35.1367 23.0205 35.2167 23.0938 35.28C23.1705 35.34 23.2588 35.385 23.3588 35.415C23.4622 35.4417 23.5722 35.455 23.6888 35.455C23.8455 35.455 23.9888 35.44 24.1188 35.41C24.2488 35.3767 24.3705 35.33 24.4838 35.27C24.6005 35.21 24.7105 35.1383 24.8138 35.055C24.9205 34.9717 25.0238 34.8767 25.1238 34.77V33.72ZM22.2488 31.65C22.5288 31.38 22.8305 31.1783 23.1538 31.045C23.4772 30.9117 23.8355 30.845 24.2288 30.845C24.5122 30.845 24.7638 30.8917 24.9838 30.985C25.2038 31.0783 25.3888 31.2083 25.5388 31.375C25.6888 31.5417 25.8022 31.7433 25.8788 31.98C25.9555 32.2167 25.9938 32.4767 25.9938 32.76V36H25.5988C25.5122 36 25.4455 35.9867 25.3988 35.96C25.3522 35.93 25.3155 35.8733 25.2888 35.79L25.1888 35.31C25.0555 35.4333 24.9255 35.5433 24.7988 35.64C24.6722 35.7333 24.5388 35.8133 24.3988 35.88C24.2588 35.9433 24.1088 35.9917 23.9488 36.025C23.7922 36.0617 23.6172 36.08 23.4238 36.08C23.2272 36.08 23.0422 36.0533 22.8688 36C22.6955 35.9433 22.5438 35.86 22.4138 35.75C22.2872 35.64 22.1855 35.5017 22.1088 35.335C22.0355 35.165 21.9988 34.965 21.9988 34.735C21.9988 34.535 22.0538 34.3433 22.1638 34.16C22.2738 33.9733 22.4522 33.8083 22.6988 33.665C22.9455 33.5217 23.2672 33.405 23.6638 33.315C24.0605 33.2217 24.5472 33.1683 25.1238 33.155V32.76C25.1238 32.3667 25.0388 32.07 24.8688 31.87C24.6988 31.6667 24.4505 31.565 24.1238 31.565C23.9038 31.565 23.7188 31.5933 23.5688 31.65C23.4222 31.7033 23.2938 31.765 23.1838 31.835C23.0772 31.9017 22.9838 31.9633 22.9038 32.02C22.8272 32.0733 22.7505 32.1 22.6738 32.1C22.6138 32.1 22.5622 32.085 22.5188 32.055C22.4755 32.0217 22.4388 31.9817 22.4088 31.935L22.2488 31.65ZM30.7395 32.915C30.7395 32.7083 30.7095 32.52 30.6495 32.35C30.5929 32.1767 30.5079 32.0283 30.3945 31.905C30.2845 31.7783 30.1495 31.6817 29.9895 31.615C29.8295 31.545 29.6479 31.51 29.4445 31.51C29.0179 31.51 28.6795 31.635 28.4295 31.885C28.1829 32.1317 28.0295 32.475 27.9695 32.915H30.7395ZM31.4595 35.29C31.3495 35.4233 31.2179 35.54 31.0645 35.64C30.9112 35.7367 30.7462 35.8167 30.5695 35.88C30.3962 35.9433 30.2162 35.99 30.0295 36.02C29.8429 36.0533 29.6579 36.07 29.4745 36.07C29.1245 36.07 28.8012 36.0117 28.5045 35.895C28.2112 35.775 27.9562 35.6017 27.7395 35.375C27.5262 35.145 27.3595 34.8617 27.2395 34.525C27.1195 34.1883 27.0595 33.8017 27.0595 33.365C27.0595 33.0117 27.1129 32.6817 27.2195 32.375C27.3295 32.0683 27.4862 31.8033 27.6895 31.58C27.8929 31.3533 28.1412 31.1767 28.4345 31.05C28.7279 30.92 29.0579 30.855 29.4245 30.855C29.7279 30.855 30.0079 30.9067 30.2645 31.01C30.5245 31.11 30.7479 31.2567 30.9345 31.45C31.1245 31.64 31.2729 31.8767 31.3795 32.16C31.4862 32.44 31.5395 32.76 31.5395 33.12C31.5395 33.26 31.5245 33.3533 31.4945 33.4C31.4645 33.4467 31.4079 33.47 31.3245 33.47H27.9395C27.9495 33.79 27.9929 34.0683 28.0695 34.305C28.1495 34.5417 28.2595 34.74 28.3995 34.9C28.5395 35.0567 28.7062 35.175 28.8995 35.255C29.0929 35.3317 29.3095 35.37 29.5495 35.37C29.7729 35.37 29.9645 35.345 30.1245 35.295C30.2879 35.2417 30.4279 35.185 30.5445 35.125C30.6612 35.065 30.7579 35.01 30.8345 34.96C30.9145 34.9067 30.9829 34.88 31.0395 34.88C31.1129 34.88 31.1695 34.9083 31.2095 34.965L31.4595 35.29ZM32.3127 31.455C32.5027 31.275 32.7327 31.13 33.0027 31.02C33.2761 30.91 33.6044 30.855 33.9877 30.855C34.2944 30.855 34.5644 30.8933 34.7977 30.97C35.0311 31.0433 35.2261 31.1417 35.3827 31.265C35.5427 31.3883 35.6627 31.53 35.7427 31.69C35.8261 31.8467 35.8677 32.01 35.8677 32.18C35.8677 32.28 35.8511 32.385 35.8177 32.495C35.7877 32.605 35.7361 32.71 35.6627 32.81C35.5894 32.91 35.4944 33.0033 35.3777 33.09C35.2611 33.1767 35.1161 33.2467 34.9427 33.3C35.2661 33.3967 35.5194 33.5517 35.7027 33.765C35.8894 33.9783 35.9827 34.24 35.9827 34.55C35.9827 34.7833 35.9294 34.995 35.8227 35.185C35.7161 35.3717 35.5727 35.5317 35.3927 35.665C35.2127 35.795 35.0027 35.895 34.7627 35.965C34.5261 36.035 34.2777 36.07 34.0177 36.07C33.8544 36.07 33.6877 36.055 33.5177 36.025C33.3511 35.995 33.1877 35.9483 33.0277 35.885C32.8677 35.8183 32.7161 35.7367 32.5727 35.64C32.4327 35.5433 32.3077 35.4267 32.1977 35.29L32.4477 34.965C32.4877 34.9083 32.5444 34.88 32.6177 34.88C32.6777 34.88 32.7411 34.9067 32.8077 34.96C32.8777 35.01 32.9627 35.0667 33.0627 35.13C33.1627 35.1933 33.2844 35.2517 33.4277 35.305C33.5744 35.355 33.7527 35.38 33.9627 35.38C34.1461 35.38 34.3094 35.3583 34.4527 35.315C34.5994 35.2683 34.7227 35.205 34.8227 35.125C34.9227 35.045 34.9994 34.95 35.0527 34.84C35.1061 34.73 35.1327 34.61 35.1327 34.48C35.1327 34.23 35.0277 34.0283 34.8177 33.875C34.6111 33.7217 34.2961 33.645 33.8727 33.645H33.2977V33.055H33.8727C34.0561 33.055 34.2211 33.0367 34.3677 33C34.5144 32.96 34.6394 32.9067 34.7427 32.84C34.8461 32.7733 34.9244 32.6933 34.9777 32.6C35.0311 32.5033 35.0577 32.4 35.0577 32.29C35.0577 32.19 35.0344 32.095 34.9877 32.005C34.9444 31.915 34.8761 31.8367 34.7827 31.77C34.6927 31.7033 34.5794 31.65 34.4427 31.61C34.3061 31.57 34.1461 31.55 33.9627 31.55C33.7627 31.55 33.5927 31.57 33.4527 31.61C33.3161 31.65 33.1994 31.6933 33.1027 31.74C33.0094 31.7867 32.9327 31.83 32.8727 31.87C32.8127 31.91 32.7611 31.93 32.7177 31.93C32.6744 31.93 32.6377 31.9217 32.6077 31.905C32.5811 31.8883 32.5511 31.8533 32.5177 31.8L32.3127 31.455ZM40.5759 35.35V31.635H38.9709C38.9375 32.155 38.8909 32.615 38.8309 33.015C38.7709 33.415 38.7009 33.7667 38.6209 34.07C38.5442 34.37 38.4575 34.625 38.3609 34.835C38.2675 35.045 38.1692 35.2167 38.0659 35.35H40.5759ZM42.3659 35.325V37.47C42.3659 37.5567 42.3409 37.6233 42.2909 37.67C42.2442 37.72 42.1825 37.745 42.1059 37.745H41.5609V36H37.3009V37.49C37.3009 37.5533 37.2809 37.6117 37.2409 37.665C37.2042 37.7183 37.1425 37.745 37.0559 37.745H36.4959V35.35H36.6609C36.7775 35.35 36.8925 35.33 37.0059 35.29C37.1225 35.25 37.2342 35.175 37.3409 35.065C37.4475 34.9517 37.5475 34.7933 37.6409 34.59C37.7375 34.3867 37.8242 34.1217 37.9009 33.795C37.9775 33.4683 38.0442 33.0717 38.1009 32.605C38.1575 32.135 38.2025 31.5783 38.2359 30.935H41.4409V35.325H42.3659Z" fill="#A18F57"/>
<path d="M23.4025 54.7325C23.5475 54.7325 23.6625 54.775 23.7475 54.86C23.8325 54.945 23.875 55.055 23.875 55.19V56H16.705V55.5425C16.705 55.4475 16.725 55.35 16.765 55.25C16.805 55.15 16.8675 55.0575 16.9525 54.9725L20.395 51.515C20.68 51.225 20.94 50.9475 21.175 50.6825C21.41 50.4125 21.61 50.1425 21.775 49.8725C21.94 49.6025 22.0675 49.33 22.1575 49.055C22.2475 48.775 22.2925 48.4775 22.2925 48.1625C22.2925 47.8475 22.2425 47.5725 22.1425 47.3375C22.0425 47.0975 21.905 46.9 21.73 46.745C21.56 46.59 21.3575 46.475 21.1225 46.4C20.8875 46.32 20.635 46.28 20.365 46.28C20.09 46.28 19.8375 46.32 19.6075 46.4C19.3775 46.48 19.1725 46.5925 18.9925 46.7375C18.8175 46.8775 18.67 47.045 18.55 47.24C18.43 47.435 18.345 47.65 18.295 47.885C18.235 48.06 18.1525 48.1775 18.0475 48.2375C17.9475 48.2925 17.805 48.3075 17.62 48.2825L16.9225 48.1625C16.9925 47.6725 17.1275 47.24 17.3275 46.865C17.5325 46.485 17.7875 46.1675 18.0925 45.9125C18.4025 45.6575 18.755 45.465 19.15 45.335C19.545 45.2 19.9725 45.1325 20.4325 45.1325C20.8875 45.1325 21.3125 45.2 21.7075 45.335C22.1025 45.47 22.445 45.6675 22.735 45.9275C23.025 46.1825 23.2525 46.495 23.4175 46.865C23.5825 47.235 23.665 47.655 23.665 48.125C23.665 48.525 23.605 48.8975 23.485 49.2425C23.365 49.5825 23.2025 49.9075 22.9975 50.2175C22.7925 50.5275 22.555 50.83 22.285 51.125C22.02 51.42 21.7375 51.7175 21.4375 52.0175L18.6025 54.9125C18.8025 54.8575 19.005 54.815 19.21 54.785C19.415 54.75 19.6125 54.7325 19.8025 54.7325H23.4025ZM32.3362 54.98V56H26.5762V54.98H28.8787V47.6525C28.8787 47.4325 28.8862 47.21 28.9012 46.985L26.9887 48.6275C26.9237 48.6825 26.8587 48.7175 26.7937 48.7325C26.7287 48.7425 26.6687 48.7425 26.6137 48.7325C26.5587 48.7225 26.5062 48.7025 26.4562 48.6725C26.4112 48.6425 26.3762 48.61 26.3512 48.575L25.9312 47.9975L29.1337 45.23H30.2212V54.98H32.3362ZM34.2348 55.175C34.2348 55.045 34.2573 54.9225 34.3023 54.8075C34.3523 54.6925 34.4173 54.5925 34.4973 54.5075C34.5823 54.4225 34.6823 54.355 34.7973 54.305C34.9123 54.255 35.0348 54.23 35.1648 54.23C35.2948 54.23 35.4173 54.255 35.5323 54.305C35.6473 54.355 35.7473 54.4225 35.8323 54.5075C35.9173 54.5925 35.9848 54.6925 36.0348 54.8075C36.0848 54.9225 36.1098 55.045 36.1098 55.175C36.1098 55.31 36.0848 55.435 36.0348 55.55C35.9848 55.66 35.9173 55.7575 35.8323 55.8425C35.7473 55.9275 35.6473 55.9925 35.5323 56.0375C35.4173 56.0875 35.2948 56.1125 35.1648 56.1125C35.0348 56.1125 34.9123 56.0875 34.7973 56.0375C34.6823 55.9925 34.5823 55.9275 34.4973 55.8425C34.4173 55.7575 34.3523 55.66 34.3023 55.55C34.2573 55.435 34.2348 55.31 34.2348 55.175ZM45.1973 50.63C45.1973 51.57 45.0948 52.385 44.8898 53.075C44.6898 53.76 44.4148 54.3275 44.0648 54.7775C43.7148 55.2275 43.2998 55.5625 42.8198 55.7825C42.3448 56.0025 41.8348 56.1125 41.2898 56.1125C40.7398 56.1125 40.2273 56.0025 39.7523 55.7825C39.2823 55.5625 38.8723 55.2275 38.5223 54.7775C38.1723 54.3275 37.8973 53.76 37.6973 53.075C37.4973 52.385 37.3973 51.57 37.3973 50.63C37.3973 49.69 37.4973 48.875 37.6973 48.185C37.8973 47.495 38.1723 46.925 38.5223 46.475C38.8723 46.02 39.2823 45.6825 39.7523 45.4625C40.2273 45.2425 40.7398 45.1325 41.2898 45.1325C41.8348 45.1325 42.3448 45.2425 42.8198 45.4625C43.2998 45.6825 43.7148 46.02 44.0648 46.475C44.4148 46.925 44.6898 47.495 44.8898 48.185C45.0948 48.875 45.1973 49.69 45.1973 50.63ZM43.8098 50.63C43.8098 49.81 43.7398 49.1225 43.5998 48.5675C43.4648 48.0075 43.2798 47.5575 43.0448 47.2175C42.8148 46.8775 42.5473 46.635 42.2423 46.49C41.9373 46.34 41.6198 46.265 41.2898 46.265C40.9598 46.265 40.6423 46.34 40.3373 46.49C40.0323 46.635 39.7648 46.8775 39.5348 47.2175C39.3048 47.5575 39.1198 48.0075 38.9798 48.5675C38.8448 49.1225 38.7773 49.81 38.7773 50.63C38.7773 51.45 38.8448 52.1375 38.9798 52.6925C39.1198 53.2475 39.3048 53.695 39.5348 54.035C39.7648 54.375 40.0323 54.62 40.3373 54.77C40.6423 54.915 40.9598 54.9875 41.2898 54.9875C41.6198 54.9875 41.9373 54.915 42.2423 54.77C42.5473 54.62 42.8148 54.375 43.0448 54.035C43.2798 53.695 43.4648 53.2475 43.5998 52.6925C43.7398 52.1375 43.8098 51.45 43.8098 50.63ZM49.9834 55.01C50.3434 55.01 50.6684 54.9525 50.9584 54.8375C51.2534 54.7225 51.5034 54.5625 51.7084 54.3575C51.9184 54.1525 52.0784 53.91 52.1884 53.63C52.3034 53.35 52.3609 53.045 52.3609 52.715C52.3609 52.365 52.3059 52.05 52.1959 51.77C52.0859 51.485 51.9284 51.245 51.7234 51.05C51.5234 50.85 51.2834 50.6975 51.0034 50.5925C50.7234 50.4875 50.4159 50.435 50.0809 50.435C49.7209 50.435 49.3959 50.4975 49.1059 50.6225C48.8159 50.7425 48.5684 50.9075 48.3634 51.1175C48.1634 51.3225 48.0084 51.5625 47.8984 51.8375C47.7934 52.1075 47.7409 52.39 47.7409 52.685C47.7409 53.03 47.7909 53.345 47.8909 53.63C47.9909 53.915 48.1359 54.16 48.3259 54.365C48.5209 54.57 48.7559 54.73 49.0309 54.845C49.3109 54.955 49.6284 55.01 49.9834 55.01ZM49.2034 49.28C49.1084 49.4 49.0159 49.5175 48.9259 49.6325C48.8409 49.7425 48.7584 49.8525 48.6784 49.9625C48.9334 49.7875 49.2134 49.6525 49.5184 49.5575C49.8234 49.4625 50.1559 49.415 50.5159 49.415C50.9509 49.415 51.3609 49.4875 51.7459 49.6325C52.1309 49.7725 52.4659 49.98 52.7509 50.255C53.0409 50.525 53.2709 50.86 53.4409 51.26C53.6109 51.655 53.6959 52.1075 53.6959 52.6175C53.6959 53.1125 53.6059 53.5725 53.4259 53.9975C53.2459 54.4225 52.9934 54.7925 52.6684 55.1075C52.3484 55.4225 51.9609 55.67 51.5059 55.85C51.0559 56.03 50.5584 56.12 50.0134 56.12C49.4734 56.12 48.9834 56.035 48.5434 55.865C48.1034 55.69 47.7284 55.445 47.4184 55.13C47.1134 54.81 46.8759 54.425 46.7059 53.975C46.5409 53.52 46.4584 53.0125 46.4584 52.4525C46.4584 51.9825 46.5609 51.4825 46.7659 50.9525C46.9759 50.4175 47.3084 49.8475 47.7634 49.2425L50.4934 45.575C50.5634 45.485 50.6584 45.41 50.7784 45.35C50.9034 45.285 51.0459 45.2525 51.2059 45.2525H52.3909L49.2034 49.28ZM55.1821 55.175C55.1821 55.045 55.2046 54.9225 55.2496 54.8075C55.2996 54.6925 55.3646 54.5925 55.4446 54.5075C55.5296 54.4225 55.6296 54.355 55.7446 54.305C55.8596 54.255 55.9821 54.23 56.1121 54.23C56.2421 54.23 56.3646 54.255 56.4796 54.305C56.5946 54.355 56.6946 54.4225 56.7796 54.5075C56.8646 54.5925 56.9321 54.6925 56.9821 54.8075C57.0321 54.9225 57.0571 55.045 57.0571 55.175C57.0571 55.31 57.0321 55.435 56.9821 55.55C56.9321 55.66 56.8646 55.7575 56.7796 55.8425C56.6946 55.9275 56.5946 55.9925 56.4796 56.0375C56.3646 56.0875 56.2421 56.1125 56.1121 56.1125C55.9821 56.1125 55.8596 56.0875 55.7446 56.0375C55.6296 55.9925 55.5296 55.9275 55.4446 55.8425C55.3646 55.7575 55.2996 55.66 55.2496 55.55C55.2046 55.435 55.1821 55.31 55.1821 55.175ZM65.297 54.7325C65.442 54.7325 65.557 54.775 65.642 54.86C65.727 54.945 65.7695 55.055 65.7695 55.19V56H58.5995V55.5425C58.5995 55.4475 58.6195 55.35 58.6595 55.25C58.6995 55.15 58.762 55.0575 58.847 54.9725L62.2895 51.515C62.5745 51.225 62.8345 50.9475 63.0695 50.6825C63.3045 50.4125 63.5045 50.1425 63.6695 49.8725C63.8345 49.6025 63.962 49.33 64.052 49.055C64.142 48.775 64.187 48.4775 64.187 48.1625C64.187 47.8475 64.137 47.5725 64.037 47.3375C63.937 47.0975 63.7995 46.9 63.6245 46.745C63.4545 46.59 63.252 46.475 63.017 46.4C62.782 46.32 62.5295 46.28 62.2595 46.28C61.9845 46.28 61.732 46.32 61.502 46.4C61.272 46.48 61.067 46.5925 60.887 46.7375C60.712 46.8775 60.5645 47.045 60.4445 47.24C60.3245 47.435 60.2395 47.65 60.1895 47.885C60.1295 48.06 60.047 48.1775 59.942 48.2375C59.842 48.2925 59.6995 48.3075 59.5145 48.2825L58.817 48.1625C58.887 47.6725 59.022 47.24 59.222 46.865C59.427 46.485 59.682 46.1675 59.987 45.9125C60.297 45.6575 60.6495 45.465 61.0445 45.335C61.4395 45.2 61.867 45.1325 62.327 45.1325C62.782 45.1325 63.207 45.2 63.602 45.335C63.997 45.47 64.3395 45.6675 64.6295 45.9275C64.9195 46.1825 65.147 46.495 65.312 46.865C65.477 47.235 65.5595 47.655 65.5595 48.125C65.5595 48.525 65.4995 48.8975 65.3795 49.2425C65.2595 49.5825 65.097 49.9075 64.892 50.2175C64.687 50.5275 64.4495 50.83 64.1795 51.125C63.9145 51.42 63.632 51.7175 63.332 52.0175L60.497 54.9125C60.697 54.8575 60.8995 54.815 61.1045 54.785C61.3095 54.75 61.507 54.7325 61.697 54.7325H65.297ZM74.8457 50.63C74.8457 51.57 74.7432 52.385 74.5382 53.075C74.3382 53.76 74.0632 54.3275 73.7132 54.7775C73.3632 55.2275 72.9482 55.5625 72.4682 55.7825C71.9932 56.0025 71.4832 56.1125 70.9382 56.1125C70.3882 56.1125 69.8757 56.0025 69.4007 55.7825C68.9307 55.5625 68.5207 55.2275 68.1707 54.7775C67.8207 54.3275 67.5457 53.76 67.3457 53.075C67.1457 52.385 67.0457 51.57 67.0457 50.63C67.0457 49.69 67.1457 48.875 67.3457 48.185C67.5457 47.495 67.8207 46.925 68.1707 46.475C68.5207 46.02 68.9307 45.6825 69.4007 45.4625C69.8757 45.2425 70.3882 45.1325 70.9382 45.1325C71.4832 45.1325 71.9932 45.2425 72.4682 45.4625C72.9482 45.6825 73.3632 46.02 73.7132 46.475C74.0632 46.925 74.3382 47.495 74.5382 48.185C74.7432 48.875 74.8457 49.69 74.8457 50.63ZM73.4582 50.63C73.4582 49.81 73.3882 49.1225 73.2482 48.5675C73.1132 48.0075 72.9282 47.5575 72.6932 47.2175C72.4632 46.8775 72.1957 46.635 71.8907 46.49C71.5857 46.34 71.2682 46.265 70.9382 46.265C70.6082 46.265 70.2907 46.34 69.9857 46.49C69.6807 46.635 69.4132 46.8775 69.1832 47.2175C68.9532 47.5575 68.7682 48.0075 68.6282 48.5675C68.4932 49.1225 68.4257 49.81 68.4257 50.63C68.4257 51.45 68.4932 52.1375 68.6282 52.6925C68.7682 53.2475 68.9532 53.695 69.1832 54.035C69.4132 54.375 69.6807 54.62 69.9857 54.77C70.2907 54.915 70.6082 54.9875 70.9382 54.9875C71.2682 54.9875 71.5857 54.915 71.8907 54.77C72.1957 54.62 72.4632 54.375 72.6932 54.035C72.9282 53.695 73.1132 53.2475 73.2482 52.6925C73.3882 52.1375 73.4582 51.45 73.4582 50.63ZM82.6994 54.7325C82.8444 54.7325 82.9594 54.775 83.0444 54.86C83.1294 54.945 83.1719 55.055 83.1719 55.19V56H76.0019V55.5425C76.0019 55.4475 76.0219 55.35 76.0619 55.25C76.1019 55.15 76.1644 55.0575 76.2494 54.9725L79.6919 51.515C79.9769 51.225 80.2369 50.9475 80.4719 50.6825C80.7069 50.4125 80.9069 50.1425 81.0719 49.8725C81.2369 49.6025 81.3644 49.33 81.4544 49.055C81.5444 48.775 81.5894 48.4775 81.5894 48.1625C81.5894 47.8475 81.5394 47.5725 81.4394 47.3375C81.3394 47.0975 81.2019 46.9 81.0269 46.745C80.8569 46.59 80.6544 46.475 80.4194 46.4C80.1844 46.32 79.9319 46.28 79.6619 46.28C79.3869 46.28 79.1344 46.32 78.9044 46.4C78.6744 46.48 78.4694 46.5925 78.2894 46.7375C78.1144 46.8775 77.9669 47.045 77.8469 47.24C77.7269 47.435 77.6419 47.65 77.5919 47.885C77.5319 48.06 77.4494 48.1775 77.3444 48.2375C77.2444 48.2925 77.1019 48.3075 76.9169 48.2825L76.2194 48.1625C76.2894 47.6725 76.4244 47.24 76.6244 46.865C76.8294 46.485 77.0844 46.1675 77.3894 45.9125C77.6994 45.6575 78.0519 45.465 78.4469 45.335C78.8419 45.2 79.2694 45.1325 79.7294 45.1325C80.1844 45.1325 80.6094 45.2 81.0044 45.335C81.3994 45.47 81.7419 45.6675 82.0319 45.9275C82.3219 46.1825 82.5494 46.495 82.7144 46.865C82.8794 47.235 82.9619 47.655 82.9619 48.125C82.9619 48.525 82.9019 48.8975 82.7819 49.2425C82.6619 49.5825 82.4994 49.9075 82.2944 50.2175C82.0894 50.5275 81.8519 50.83 81.5819 51.125C81.3169 51.42 81.0344 51.7175 80.7344 52.0175L77.8994 54.9125C78.0994 54.8575 78.3019 54.815 78.5069 54.785C78.7119 54.75 78.9094 54.7325 79.0994 54.7325H82.6994ZM92.248 50.63C92.248 51.57 92.1455 52.385 91.9405 53.075C91.7405 53.76 91.4655 54.3275 91.1155 54.7775C90.7655 55.2275 90.3505 55.5625 89.8705 55.7825C89.3955 56.0025 88.8855 56.1125 88.3405 56.1125C87.7905 56.1125 87.278 56.0025 86.803 55.7825C86.333 55.5625 85.923 55.2275 85.573 54.7775C85.223 54.3275 84.948 53.76 84.748 53.075C84.548 52.385 84.448 51.57 84.448 50.63C84.448 49.69 84.548 48.875 84.748 48.185C84.948 47.495 85.223 46.925 85.573 46.475C85.923 46.02 86.333 45.6825 86.803 45.4625C87.278 45.2425 87.7905 45.1325 88.3405 45.1325C88.8855 45.1325 89.3955 45.2425 89.8705 45.4625C90.3505 45.6825 90.7655 46.02 91.1155 46.475C91.4655 46.925 91.7405 47.495 91.9405 48.185C92.1455 48.875 92.248 49.69 92.248 50.63ZM90.8605 50.63C90.8605 49.81 90.7905 49.1225 90.6505 48.5675C90.5155 48.0075 90.3305 47.5575 90.0955 47.2175C89.8655 46.8775 89.598 46.635 89.293 46.49C88.988 46.34 88.6705 46.265 88.3405 46.265C88.0105 46.265 87.693 46.34 87.388 46.49C87.083 46.635 86.8155 46.8775 86.5855 47.2175C86.3555 47.5575 86.1705 48.0075 86.0305 48.5675C85.8955 49.1225 85.828 49.81 85.828 50.63C85.828 51.45 85.8955 52.1375 86.0305 52.6925C86.1705 53.2475 86.3555 53.695 86.5855 54.035C86.8155 54.375 87.083 54.62 87.388 54.77C87.693 54.915 88.0105 54.9875 88.3405 54.9875C88.6705 54.9875 88.988 54.915 89.293 54.77C89.598 54.62 89.8655 54.375 90.0955 54.035C90.3305 53.695 90.5155 53.2475 90.6505 52.6925C90.7905 52.1375 90.8605 51.45 90.8605 50.63Z" fill="#242424"/>
<path d="M145.43 35.23C145.707 35.23 145.945 35.1983 146.145 35.135C146.345 35.0717 146.508 34.9833 146.635 34.87C146.765 34.7533 146.86 34.6167 146.92 34.46C146.98 34.3 147.01 34.125 147.01 33.935C147.01 33.565 146.878 33.2733 146.615 33.06C146.352 32.8433 145.957 32.735 145.43 32.735H143.88V35.23H145.43ZM143.88 29.6V32.045H145.16C145.433 32.045 145.67 32.015 145.87 31.955C146.073 31.895 146.24 31.8117 146.37 31.705C146.503 31.5983 146.602 31.47 146.665 31.32C146.728 31.1667 146.76 31 146.76 30.82C146.76 30.3967 146.633 30.0883 146.38 29.895C146.127 29.6983 145.733 29.6 145.2 29.6H143.88ZM145.2 28.835C145.64 28.835 146.018 28.8783 146.335 28.965C146.655 29.0517 146.917 29.175 147.12 29.335C147.327 29.495 147.478 29.6917 147.575 29.925C147.672 30.155 147.72 30.415 147.72 30.705C147.72 30.8817 147.692 31.0517 147.635 31.215C147.582 31.375 147.5 31.525 147.39 31.665C147.28 31.805 147.14 31.9317 146.97 32.045C146.803 32.155 146.607 32.245 146.38 32.315C146.907 32.415 147.302 32.6033 147.565 32.88C147.832 33.1533 147.965 33.5133 147.965 33.96C147.965 34.2633 147.908 34.54 147.795 34.79C147.685 35.04 147.522 35.255 147.305 35.435C147.092 35.615 146.828 35.755 146.515 35.855C146.202 35.9517 145.845 36 145.445 36H142.915V28.835H145.2ZM151.007 35.35C151.187 35.35 151.342 35.3283 151.472 35.285C151.606 35.2383 151.716 35.175 151.802 35.095C151.889 35.0117 151.954 34.915 151.997 34.805C152.041 34.695 152.062 34.575 152.062 34.445C152.062 34.325 152.044 34.2133 152.007 34.11C151.971 34.0033 151.909 33.91 151.822 33.83C151.739 33.75 151.629 33.6867 151.492 33.64C151.356 33.5933 151.189 33.57 150.992 33.57H149.912V35.35H151.007ZM150.992 32.92C151.342 32.92 151.636 32.9617 151.872 33.045C152.112 33.1283 152.304 33.24 152.447 33.38C152.594 33.52 152.699 33.6817 152.762 33.865C152.826 34.0483 152.857 34.2383 152.857 34.435C152.857 34.6617 152.817 34.8717 152.737 35.065C152.657 35.255 152.539 35.42 152.382 35.56C152.226 35.6967 152.032 35.805 151.802 35.885C151.572 35.9617 151.307 36 151.007 36H149.062V30.935H149.912V32.92H150.992ZM154.862 30.935V36H153.972V30.935H154.862ZM159.669 32.915C159.669 32.7083 159.639 32.52 159.579 32.35C159.523 32.1767 159.438 32.0283 159.324 31.905C159.214 31.7783 159.079 31.6817 158.919 31.615C158.759 31.545 158.578 31.51 158.374 31.51C157.948 31.51 157.609 31.635 157.359 31.885C157.113 32.1317 156.959 32.475 156.899 32.915H159.669ZM160.389 35.29C160.279 35.4233 160.148 35.54 159.994 35.64C159.841 35.7367 159.676 35.8167 159.499 35.88C159.326 35.9433 159.146 35.99 158.959 36.02C158.773 36.0533 158.588 36.07 158.404 36.07C158.054 36.07 157.731 36.0117 157.434 35.895C157.141 35.775 156.886 35.6017 156.669 35.375C156.456 35.145 156.289 34.8617 156.169 34.525C156.049 34.1883 155.989 33.8017 155.989 33.365C155.989 33.0117 156.043 32.6817 156.149 32.375C156.259 32.0683 156.416 31.8033 156.619 31.58C156.823 31.3533 157.071 31.1767 157.364 31.05C157.658 30.92 157.988 30.855 158.354 30.855C158.658 30.855 158.938 30.9067 159.194 31.01C159.454 31.11 159.678 31.2567 159.864 31.45C160.054 31.64 160.203 31.8767 160.309 32.16C160.416 32.44 160.469 32.76 160.469 33.12C160.469 33.26 160.454 33.3533 160.424 33.4C160.394 33.4467 160.338 33.47 160.254 33.47H156.869C156.879 33.79 156.923 34.0683 156.999 34.305C157.079 34.5417 157.189 34.74 157.329 34.9C157.469 35.0567 157.636 35.175 157.829 35.255C158.023 35.3317 158.239 35.37 158.479 35.37C158.703 35.37 158.894 35.345 159.054 35.295C159.218 35.2417 159.358 35.185 159.474 35.125C159.591 35.065 159.688 35.01 159.764 34.96C159.844 34.9067 159.913 34.88 159.969 34.88C160.043 34.88 160.099 34.9083 160.139 34.965L160.389 35.29ZM161.242 31.455C161.432 31.275 161.662 31.13 161.932 31.02C162.206 30.91 162.534 30.855 162.917 30.855C163.224 30.855 163.494 30.8933 163.727 30.97C163.961 31.0433 164.156 31.1417 164.312 31.265C164.472 31.3883 164.592 31.53 164.672 31.69C164.756 31.8467 164.797 32.01 164.797 32.18C164.797 32.28 164.781 32.385 164.747 32.495C164.717 32.605 164.666 32.71 164.592 32.81C164.519 32.91 164.424 33.0033 164.307 33.09C164.191 33.1767 164.046 33.2467 163.872 33.3C164.196 33.3967 164.449 33.5517 164.632 33.765C164.819 33.9783 164.912 34.24 164.912 34.55C164.912 34.7833 164.859 34.995 164.752 35.185C164.646 35.3717 164.502 35.5317 164.322 35.665C164.142 35.795 163.932 35.895 163.692 35.965C163.456 36.035 163.207 36.07 162.947 36.07C162.784 36.07 162.617 36.055 162.447 36.025C162.281 35.995 162.117 35.9483 161.957 35.885C161.797 35.8183 161.646 35.7367 161.502 35.64C161.362 35.5433 161.237 35.4267 161.127 35.29L161.377 34.965C161.417 34.9083 161.474 34.88 161.547 34.88C161.607 34.88 161.671 34.9067 161.737 34.96C161.807 35.01 161.892 35.0667 161.992 35.13C162.092 35.1933 162.214 35.2517 162.357 35.305C162.504 35.355 162.682 35.38 162.892 35.38C163.076 35.38 163.239 35.3583 163.382 35.315C163.529 35.2683 163.652 35.205 163.752 35.125C163.852 35.045 163.929 34.95 163.982 34.84C164.036 34.73 164.062 34.61 164.062 34.48C164.062 34.23 163.957 34.0283 163.747 33.875C163.541 33.7217 163.226 33.645 162.802 33.645H162.227V33.055H162.802C162.986 33.055 163.151 33.0367 163.297 33C163.444 32.96 163.569 32.9067 163.672 32.84C163.776 32.7733 163.854 32.6933 163.907 32.6C163.961 32.5033 163.987 32.4 163.987 32.29C163.987 32.19 163.964 32.095 163.917 32.005C163.874 31.915 163.806 31.8367 163.712 31.77C163.622 31.7033 163.509 31.65 163.372 31.61C163.236 31.57 163.076 31.55 162.892 31.55C162.692 31.55 162.522 31.57 162.382 31.61C162.246 31.65 162.129 31.6933 162.032 31.74C161.939 31.7867 161.862 31.83 161.802 31.87C161.742 31.91 161.691 31.93 161.647 31.93C161.604 31.93 161.567 31.9217 161.537 31.905C161.511 31.8883 161.481 31.8533 161.447 31.8L161.242 31.455ZM169.506 35.35V31.635H167.901C167.867 32.155 167.821 32.615 167.761 33.015C167.701 33.415 167.631 33.7667 167.551 34.07C167.474 34.37 167.387 34.625 167.291 34.835C167.197 35.045 167.099 35.2167 166.996 35.35H169.506ZM171.296 35.325V37.47C171.296 37.5567 171.271 37.6233 171.221 37.67C171.174 37.72 171.112 37.745 171.036 37.745H170.491V36H166.231V37.49C166.231 37.5533 166.211 37.6117 166.171 37.665C166.134 37.7183 166.072 37.745 165.986 37.745H165.426V35.35H165.591C165.707 35.35 165.822 35.33 165.936 35.29C166.052 35.25 166.164 35.175 166.271 35.065C166.377 34.9517 166.477 34.7933 166.571 34.59C166.667 34.3867 166.754 34.1217 166.831 33.795C166.907 33.4683 166.974 33.0717 167.031 32.605C167.087 32.135 167.132 31.5783 167.166 30.935H170.371V35.325H171.296Z" fill="#A18F57"/>
<path d="M149.403 54.7325C149.548 54.7325 149.663 54.775 149.747 54.86C149.833 54.945 149.875 55.055 149.875 55.19V56H142.705V55.5425C142.705 55.4475 142.725 55.35 142.765 55.25C142.805 55.15 142.868 55.0575 142.953 54.9725L146.395 51.515C146.68 51.225 146.94 50.9475 147.175 50.6825C147.41 50.4125 147.61 50.1425 147.775 49.8725C147.94 49.6025 148.068 49.33 148.158 49.055C148.248 48.775 148.293 48.4775 148.293 48.1625C148.293 47.8475 148.243 47.5725 148.143 47.3375C148.043 47.0975 147.905 46.9 147.73 46.745C147.56 46.59 147.358 46.475 147.123 46.4C146.888 46.32 146.635 46.28 146.365 46.28C146.09 46.28 145.838 46.32 145.608 46.4C145.378 46.48 145.173 46.5925 144.993 46.7375C144.818 46.8775 144.67 47.045 144.55 47.24C144.43 47.435 144.345 47.65 144.295 47.885C144.235 48.06 144.153 48.1775 144.048 48.2375C143.948 48.2925 143.805 48.3075 143.62 48.2825L142.923 48.1625C142.993 47.6725 143.128 47.24 143.328 46.865C143.533 46.485 143.788 46.1675 144.093 45.9125C144.403 45.6575 144.755 45.465 145.15 45.335C145.545 45.2 145.973 45.1325 146.433 45.1325C146.888 45.1325 147.313 45.2 147.708 45.335C148.103 45.47 148.445 45.6675 148.735 45.9275C149.025 46.1825 149.253 46.495 149.418 46.865C149.583 47.235 149.665 47.655 149.665 48.125C149.665 48.525 149.605 48.8975 149.485 49.2425C149.365 49.5825 149.203 49.9075 148.998 50.2175C148.793 50.5275 148.555 50.83 148.285 51.125C148.02 51.42 147.738 51.7175 147.438 52.0175L144.603 54.9125C144.803 54.8575 145.005 54.815 145.21 54.785C145.415 54.75 145.613 54.7325 145.803 54.7325H149.403ZM155.051 55.055C155.401 55.055 155.714 55.0075 155.989 54.9125C156.269 54.8125 156.504 54.675 156.694 54.5C156.889 54.32 157.036 54.1075 157.136 53.8625C157.241 53.6125 157.294 53.3375 157.294 53.0375C157.294 52.6675 157.231 52.3525 157.106 52.0925C156.986 51.8275 156.821 51.6125 156.611 51.4475C156.406 51.2825 156.169 51.1625 155.899 51.0875C155.629 51.0075 155.346 50.9675 155.051 50.9675C154.756 50.9675 154.474 51.0075 154.204 51.0875C153.934 51.1625 153.694 51.2825 153.484 51.4475C153.279 51.6125 153.114 51.8275 152.989 52.0925C152.869 52.3525 152.809 52.6675 152.809 53.0375C152.809 53.3375 152.859 53.6125 152.959 53.8625C153.064 54.1075 153.211 54.32 153.401 54.5C153.596 54.675 153.831 54.8125 154.106 54.9125C154.386 55.0075 154.701 55.055 155.051 55.055ZM155.051 46.1675C154.731 46.1675 154.449 46.215 154.204 46.31C153.964 46.405 153.761 46.535 153.596 46.7C153.436 46.865 153.314 47.0575 153.229 47.2775C153.149 47.4975 153.109 47.7325 153.109 47.9825C153.109 48.2275 153.144 48.465 153.214 48.695C153.284 48.925 153.396 49.13 153.551 49.31C153.706 49.485 153.906 49.6275 154.151 49.7375C154.401 49.8425 154.701 49.895 155.051 49.895C155.401 49.895 155.699 49.8425 155.944 49.7375C156.194 49.6275 156.396 49.485 156.551 49.31C156.706 49.13 156.819 48.925 156.889 48.695C156.959 48.465 156.994 48.2275 156.994 47.9825C156.994 47.7325 156.951 47.4975 156.866 47.2775C156.786 47.0575 156.664 46.865 156.499 46.7C156.339 46.535 156.136 46.405 155.891 46.31C155.651 46.215 155.371 46.1675 155.051 46.1675ZM156.589 50.3975C157.259 50.5875 157.774 50.905 158.134 51.35C158.494 51.795 158.674 52.365 158.674 53.06C158.674 53.53 158.584 53.955 158.404 54.335C158.229 54.71 157.981 55.03 157.661 55.295C157.346 55.56 156.966 55.765 156.521 55.91C156.076 56.05 155.586 56.12 155.051 56.12C154.516 56.12 154.026 56.05 153.581 55.91C153.136 55.765 152.754 55.56 152.434 55.295C152.114 55.03 151.866 54.71 151.691 54.335C151.516 53.955 151.429 53.53 151.429 53.06C151.429 52.365 151.609 51.795 151.969 51.35C152.329 50.905 152.844 50.5875 153.514 50.3975C152.949 50.1875 152.521 49.875 152.231 49.46C151.946 49.04 151.804 48.54 151.804 47.96C151.804 47.565 151.881 47.195 152.036 46.85C152.191 46.505 152.411 46.205 152.696 45.95C152.981 45.695 153.321 45.495 153.716 45.35C154.116 45.205 154.561 45.1325 155.051 45.1325C155.536 45.1325 155.979 45.205 156.379 45.35C156.779 45.495 157.121 45.695 157.406 45.95C157.691 46.205 157.911 46.505 158.066 46.85C158.221 47.195 158.299 47.565 158.299 47.96C158.299 48.54 158.154 49.04 157.864 49.46C157.579 49.875 157.154 50.1875 156.589 50.3975ZM160.235 55.175C160.235 55.045 160.257 54.9225 160.302 54.8075C160.352 54.6925 160.417 54.5925 160.497 54.5075C160.582 54.4225 160.682 54.355 160.797 54.305C160.912 54.255 161.035 54.23 161.165 54.23C161.295 54.23 161.417 54.255 161.532 54.305C161.647 54.355 161.747 54.4225 161.832 54.5075C161.917 54.5925 161.985 54.6925 162.035 54.8075C162.085 54.9225 162.11 55.045 162.11 55.175C162.11 55.31 162.085 55.435 162.035 55.55C161.985 55.66 161.917 55.7575 161.832 55.8425C161.747 55.9275 161.647 55.9925 161.532 56.0375C161.417 56.0875 161.295 56.1125 161.165 56.1125C161.035 56.1125 160.912 56.0875 160.797 56.0375C160.682 55.9925 160.582 55.9275 160.497 55.8425C160.417 55.7575 160.352 55.66 160.302 55.55C160.257 55.435 160.235 55.31 160.235 55.175ZM171.197 50.63C171.197 51.57 171.095 52.385 170.89 53.075C170.69 53.76 170.415 54.3275 170.065 54.7775C169.715 55.2275 169.3 55.5625 168.82 55.7825C168.345 56.0025 167.835 56.1125 167.29 56.1125C166.74 56.1125 166.227 56.0025 165.752 55.7825C165.282 55.5625 164.872 55.2275 164.522 54.7775C164.172 54.3275 163.897 53.76 163.697 53.075C163.497 52.385 163.397 51.57 163.397 50.63C163.397 49.69 163.497 48.875 163.697 48.185C163.897 47.495 164.172 46.925 164.522 46.475C164.872 46.02 165.282 45.6825 165.752 45.4625C166.227 45.2425 166.74 45.1325 167.29 45.1325C167.835 45.1325 168.345 45.2425 168.82 45.4625C169.3 45.6825 169.715 46.02 170.065 46.475C170.415 46.925 170.69 47.495 170.89 48.185C171.095 48.875 171.197 49.69 171.197 50.63ZM169.81 50.63C169.81 49.81 169.74 49.1225 169.6 48.5675C169.465 48.0075 169.28 47.5575 169.045 47.2175C168.815 46.8775 168.547 46.635 168.242 46.49C167.937 46.34 167.62 46.265 167.29 46.265C166.96 46.265 166.642 46.34 166.337 46.49C166.032 46.635 165.765 46.8775 165.535 47.2175C165.305 47.5575 165.12 48.0075 164.98 48.5675C164.845 49.1225 164.777 49.81 164.777 50.63C164.777 51.45 164.845 52.1375 164.98 52.6925C165.12 53.2475 165.305 53.695 165.535 54.035C165.765 54.375 166.032 54.62 166.337 54.77C166.642 54.915 166.96 54.9875 167.29 54.9875C167.62 54.9875 167.937 54.915 168.242 54.77C168.547 54.62 168.815 54.375 169.045 54.035C169.28 53.695 169.465 53.2475 169.6 52.6925C169.74 52.1375 169.81 51.45 169.81 50.63ZM175.983 55.01C176.343 55.01 176.668 54.9525 176.958 54.8375C177.253 54.7225 177.503 54.5625 177.708 54.3575C177.918 54.1525 178.078 53.91 178.188 53.63C178.303 53.35 178.361 53.045 178.361 52.715C178.361 52.365 178.306 52.05 178.196 51.77C178.086 51.485 177.928 51.245 177.723 51.05C177.523 50.85 177.283 50.6975 177.003 50.5925C176.723 50.4875 176.416 50.435 176.081 50.435C175.721 50.435 175.396 50.4975 175.106 50.6225C174.816 50.7425 174.568 50.9075 174.363 51.1175C174.163 51.3225 174.008 51.5625 173.898 51.8375C173.793 52.1075 173.741 52.39 173.741 52.685C173.741 53.03 173.791 53.345 173.891 53.63C173.991 53.915 174.136 54.16 174.326 54.365C174.521 54.57 174.756 54.73 175.031 54.845C175.311 54.955 175.628 55.01 175.983 55.01ZM175.203 49.28C175.108 49.4 175.016 49.5175 174.926 49.6325C174.841 49.7425 174.758 49.8525 174.678 49.9625C174.933 49.7875 175.213 49.6525 175.518 49.5575C175.823 49.4625 176.156 49.415 176.516 49.415C176.951 49.415 177.361 49.4875 177.746 49.6325C178.131 49.7725 178.466 49.98 178.751 50.255C179.041 50.525 179.271 50.86 179.441 51.26C179.611 51.655 179.696 52.1075 179.696 52.6175C179.696 53.1125 179.606 53.5725 179.426 53.9975C179.246 54.4225 178.993 54.7925 178.668 55.1075C178.348 55.4225 177.961 55.67 177.506 55.85C177.056 56.03 176.558 56.12 176.013 56.12C175.473 56.12 174.983 56.035 174.543 55.865C174.103 55.69 173.728 55.445 173.418 55.13C173.113 54.81 172.876 54.425 172.706 53.975C172.541 53.52 172.458 53.0125 172.458 52.4525C172.458 51.9825 172.561 51.4825 172.766 50.9525C172.976 50.4175 173.308 49.8475 173.763 49.2425L176.493 45.575C176.563 45.485 176.658 45.41 176.778 45.35C176.903 45.285 177.046 45.2525 177.206 45.2525H178.391L175.203 49.28ZM181.182 55.175C181.182 55.045 181.205 54.9225 181.25 54.8075C181.3 54.6925 181.365 54.5925 181.445 54.5075C181.53 54.4225 181.63 54.355 181.745 54.305C181.86 54.255 181.982 54.23 182.112 54.23C182.242 54.23 182.365 54.255 182.48 54.305C182.595 54.355 182.695 54.4225 182.78 54.5075C182.865 54.5925 182.932 54.6925 182.982 54.8075C183.032 54.9225 183.057 55.045 183.057 55.175C183.057 55.31 183.032 55.435 182.982 55.55C182.932 55.66 182.865 55.7575 182.78 55.8425C182.695 55.9275 182.595 55.9925 182.48 56.0375C182.365 56.0875 182.242 56.1125 182.112 56.1125C181.982 56.1125 181.86 56.0875 181.745 56.0375C181.63 55.9925 181.53 55.9275 181.445 55.8425C181.365 55.7575 181.3 55.66 181.25 55.55C181.205 55.435 181.182 55.31 181.182 55.175ZM191.297 54.7325C191.442 54.7325 191.557 54.775 191.642 54.86C191.727 54.945 191.77 55.055 191.77 55.19V56H184.6V55.5425C184.6 55.4475 184.62 55.35 184.66 55.25C184.7 55.15 184.762 55.0575 184.847 54.9725L188.29 51.515C188.575 51.225 188.835 50.9475 189.07 50.6825C189.305 50.4125 189.505 50.1425 189.67 49.8725C189.835 49.6025 189.962 49.33 190.052 49.055C190.142 48.775 190.187 48.4775 190.187 48.1625C190.187 47.8475 190.137 47.5725 190.037 47.3375C189.937 47.0975 189.8 46.9 189.625 46.745C189.455 46.59 189.252 46.475 189.017 46.4C188.782 46.32 188.53 46.28 188.26 46.28C187.985 46.28 187.732 46.32 187.502 46.4C187.272 46.48 187.067 46.5925 186.887 46.7375C186.712 46.8775 186.565 47.045 186.445 47.24C186.325 47.435 186.24 47.65 186.19 47.885C186.13 48.06 186.047 48.1775 185.942 48.2375C185.842 48.2925 185.7 48.3075 185.515 48.2825L184.817 48.1625C184.887 47.6725 185.022 47.24 185.222 46.865C185.427 46.485 185.682 46.1675 185.987 45.9125C186.297 45.6575 186.65 45.465 187.045 45.335C187.44 45.2 187.867 45.1325 188.327 45.1325C188.782 45.1325 189.207 45.2 189.602 45.335C189.997 45.47 190.34 45.6675 190.63 45.9275C190.92 46.1825 191.147 46.495 191.312 46.865C191.477 47.235 191.56 47.655 191.56 48.125C191.56 48.525 191.5 48.8975 191.38 49.2425C191.26 49.5825 191.097 49.9075 190.892 50.2175C190.687 50.5275 190.45 50.83 190.18 51.125C189.915 51.42 189.632 51.7175 189.332 52.0175L186.497 54.9125C186.697 54.8575 186.9 54.815 187.105 54.785C187.31 54.75 187.507 54.7325 187.697 54.7325H191.297ZM200.846 50.63C200.846 51.57 200.743 52.385 200.538 53.075C200.338 53.76 200.063 54.3275 199.713 54.7775C199.363 55.2275 198.948 55.5625 198.468 55.7825C197.993 56.0025 197.483 56.1125 196.938 56.1125C196.388 56.1125 195.876 56.0025 195.401 55.7825C194.931 55.5625 194.521 55.2275 194.171 54.7775C193.821 54.3275 193.546 53.76 193.346 53.075C193.146 52.385 193.046 51.57 193.046 50.63C193.046 49.69 193.146 48.875 193.346 48.185C193.546 47.495 193.821 46.925 194.171 46.475C194.521 46.02 194.931 45.6825 195.401 45.4625C195.876 45.2425 196.388 45.1325 196.938 45.1325C197.483 45.1325 197.993 45.2425 198.468 45.4625C198.948 45.6825 199.363 46.02 199.713 46.475C200.063 46.925 200.338 47.495 200.538 48.185C200.743 48.875 200.846 49.69 200.846 50.63ZM199.458 50.63C199.458 49.81 199.388 49.1225 199.248 48.5675C199.113 48.0075 198.928 47.5575 198.693 47.2175C198.463 46.8775 198.196 46.635 197.891 46.49C197.586 46.34 197.268 46.265 196.938 46.265C196.608 46.265 196.291 46.34 195.986 46.49C195.681 46.635 195.413 46.8775 195.183 47.2175C194.953 47.5575 194.768 48.0075 194.628 48.5675C194.493 49.1225 194.426 49.81 194.426 50.63C194.426 51.45 194.493 52.1375 194.628 52.6925C194.768 53.2475 194.953 53.695 195.183 54.035C195.413 54.375 195.681 54.62 195.986 54.77C196.291 54.915 196.608 54.9875 196.938 54.9875C197.268 54.9875 197.586 54.915 197.891 54.77C198.196 54.62 198.463 54.375 198.693 54.035C198.928 53.695 199.113 53.2475 199.248 52.6925C199.388 52.1375 199.458 51.45 199.458 50.63ZM208.699 54.7325C208.844 54.7325 208.959 54.775 209.044 54.86C209.129 54.945 209.172 55.055 209.172 55.19V56H202.002V55.5425C202.002 55.4475 202.022 55.35 202.062 55.25C202.102 55.15 202.164 55.0575 202.249 54.9725L205.692 51.515C205.977 51.225 206.237 50.9475 206.472 50.6825C206.707 50.4125 206.907 50.1425 207.072 49.8725C207.237 49.6025 207.364 49.33 207.454 49.055C207.544 48.775 207.589 48.4775 207.589 48.1625C207.589 47.8475 207.539 47.5725 207.439 47.3375C207.339 47.0975 207.202 46.9 207.027 46.745C206.857 46.59 206.654 46.475 206.419 46.4C206.184 46.32 205.932 46.28 205.662 46.28C205.387 46.28 205.134 46.32 204.904 46.4C204.674 46.48 204.469 46.5925 204.289 46.7375C204.114 46.8775 203.967 47.045 203.847 47.24C203.727 47.435 203.642 47.65 203.592 47.885C203.532 48.06 203.449 48.1775 203.344 48.2375C203.244 48.2925 203.102 48.3075 202.917 48.2825L202.219 48.1625C202.289 47.6725 202.424 47.24 202.624 46.865C202.829 46.485 203.084 46.1675 203.389 45.9125C203.699 45.6575 204.052 45.465 204.447 45.335C204.842 45.2 205.269 45.1325 205.729 45.1325C206.184 45.1325 206.609 45.2 207.004 45.335C207.399 45.47 207.742 45.6675 208.032 45.9275C208.322 46.1825 208.549 46.495 208.714 46.865C208.879 47.235 208.962 47.655 208.962 48.125C208.962 48.525 208.902 48.8975 208.782 49.2425C208.662 49.5825 208.499 49.9075 208.294 50.2175C208.089 50.5275 207.852 50.83 207.582 51.125C207.317 51.42 207.034 51.7175 206.734 52.0175L203.899 54.9125C204.099 54.8575 204.302 54.815 204.507 54.785C204.712 54.75 204.909 54.7325 205.099 54.7325H208.699ZM218.248 50.63C218.248 51.57 218.146 52.385 217.941 53.075C217.741 53.76 217.466 54.3275 217.116 54.7775C216.766 55.2275 216.351 55.5625 215.871 55.7825C215.396 56.0025 214.886 56.1125 214.341 56.1125C213.791 56.1125 213.278 56.0025 212.803 55.7825C212.333 55.5625 211.923 55.2275 211.573 54.7775C211.223 54.3275 210.948 53.76 210.748 53.075C210.548 52.385 210.448 51.57 210.448 50.63C210.448 49.69 210.548 48.875 210.748 48.185C210.948 47.495 211.223 46.925 211.573 46.475C211.923 46.02 212.333 45.6825 212.803 45.4625C213.278 45.2425 213.791 45.1325 214.341 45.1325C214.886 45.1325 215.396 45.2425 215.871 45.4625C216.351 45.6825 216.766 46.02 217.116 46.475C217.466 46.925 217.741 47.495 217.941 48.185C218.146 48.875 218.248 49.69 218.248 50.63ZM216.861 50.63C216.861 49.81 216.791 49.1225 216.651 48.5675C216.516 48.0075 216.331 47.5575 216.096 47.2175C215.866 46.8775 215.598 46.635 215.293 46.49C214.988 46.34 214.671 46.265 214.341 46.265C214.011 46.265 213.693 46.34 213.388 46.49C213.083 46.635 212.816 46.8775 212.586 47.2175C212.356 47.5575 212.171 48.0075 212.031 48.5675C211.896 49.1225 211.828 49.81 211.828 50.63C211.828 51.45 211.896 52.1375 212.031 52.6925C212.171 53.2475 212.356 53.695 212.586 54.035C212.816 54.375 213.083 54.62 213.388 54.77C213.693 54.915 214.011 54.9875 214.341 54.9875C214.671 54.9875 214.988 54.915 215.293 54.77C215.598 54.62 215.866 54.375 216.096 54.035C216.331 53.695 216.516 53.2475 216.651 52.6925C216.791 52.1375 216.861 51.45 216.861 50.63Z" fill="#242424"/>
<path d="M260.23 29.6H256.885V36H255.915V28.835H260.23V29.6ZM261.492 30.855C261.862 30.855 262.196 30.9167 262.492 31.04C262.789 31.1633 263.042 31.3383 263.252 31.565C263.462 31.7917 263.622 32.0667 263.732 32.39C263.846 32.71 263.902 33.0683 263.902 33.465C263.902 33.865 263.846 34.225 263.732 34.545C263.622 34.865 263.462 35.1383 263.252 35.365C263.042 35.5917 262.789 35.7667 262.492 35.89C262.196 36.01 261.862 36.07 261.492 36.07C261.119 36.07 260.782 36.01 260.482 35.89C260.186 35.7667 259.932 35.5917 259.722 35.365C259.512 35.1383 259.351 34.865 259.237 34.545C259.127 34.225 259.072 33.865 259.072 33.465C259.072 33.0683 259.127 32.71 259.237 32.39C259.351 32.0667 259.512 31.7917 259.722 31.565C259.932 31.3383 260.186 31.1633 260.482 31.04C260.782 30.9167 261.119 30.855 261.492 30.855ZM261.492 35.375C261.992 35.375 262.366 35.2083 262.612 34.875C262.859 34.5383 262.982 34.07 262.982 33.47C262.982 32.8667 262.859 32.3967 262.612 32.06C262.366 31.7233 261.992 31.555 261.492 31.555C261.239 31.555 261.017 31.5983 260.827 31.685C260.641 31.7717 260.484 31.8967 260.357 32.06C260.234 32.2233 260.141 32.425 260.077 32.665C260.017 32.9017 259.987 33.17 259.987 33.47C259.987 34.07 260.111 34.5383 260.357 34.875C260.607 35.2083 260.986 35.375 261.492 35.375ZM268.556 31.835C268.53 31.8717 268.503 31.9 268.476 31.92C268.45 31.94 268.413 31.95 268.366 31.95C268.316 31.95 268.261 31.93 268.201 31.89C268.141 31.8467 268.066 31.8 267.976 31.75C267.89 31.7 267.781 31.655 267.651 31.615C267.525 31.5717 267.368 31.55 267.181 31.55C266.931 31.55 266.711 31.595 266.521 31.685C266.331 31.7717 266.171 31.8983 266.041 32.065C265.915 32.2317 265.818 32.4333 265.751 32.67C265.688 32.9067 265.656 33.1717 265.656 33.465C265.656 33.7717 265.691 34.045 265.761 34.285C265.831 34.5217 265.93 34.7217 266.056 34.885C266.186 35.045 266.341 35.1683 266.521 35.255C266.705 35.3383 266.91 35.38 267.136 35.38C267.353 35.38 267.531 35.355 267.671 35.305C267.811 35.2517 267.926 35.1933 268.016 35.13C268.11 35.0667 268.186 35.01 268.246 34.96C268.31 34.9067 268.371 34.88 268.431 34.88C268.505 34.88 268.561 34.9083 268.601 34.965L268.851 35.29C268.741 35.4267 268.616 35.5433 268.476 35.64C268.336 35.7367 268.185 35.8183 268.021 35.885C267.861 35.9483 267.693 35.995 267.516 36.025C267.34 36.055 267.16 36.07 266.976 36.07C266.66 36.07 266.365 36.0117 266.091 35.895C265.821 35.7783 265.586 35.61 265.386 35.39C265.186 35.1667 265.03 34.8933 264.916 34.57C264.803 34.2467 264.746 33.8783 264.746 33.465C264.746 33.0883 264.798 32.74 264.901 32.42C265.008 32.1 265.161 31.825 265.361 31.595C265.565 31.3617 265.813 31.18 266.106 31.05C266.403 30.92 266.743 30.855 267.126 30.855C267.483 30.855 267.796 30.9133 268.066 31.03C268.34 31.1433 268.581 31.305 268.791 31.515L268.556 31.835ZM274.017 31.615H272.072V36H271.182V31.615H269.237V30.935H274.017V31.615ZM279.21 30.935V36H278.32V32.56C278.32 32.4933 278.323 32.4217 278.33 32.345C278.337 32.2683 278.345 32.1917 278.355 32.115C278.325 32.1817 278.295 32.2433 278.265 32.3C278.235 32.3567 278.203 32.4083 278.17 32.455L275.725 35.78C275.688 35.8333 275.642 35.885 275.585 35.935C275.532 35.9817 275.472 36.005 275.405 36.005H274.865V30.94H275.76V34.38C275.76 34.4433 275.757 34.5133 275.75 34.59C275.743 34.6633 275.735 34.7383 275.725 34.815C275.755 34.7517 275.785 34.6933 275.815 34.64C275.845 34.5833 275.875 34.5317 275.905 34.485L278.35 31.16C278.387 31.1067 278.433 31.0567 278.49 31.01C278.547 30.96 278.608 30.935 278.675 30.935H279.21Z" fill="#A18F57"/>
<path d="M262.635 54.98V56H256.875V54.98H259.178V47.6525C259.178 47.4325 259.185 47.21 259.2 46.985L257.288 48.6275C257.223 48.6825 257.158 48.7175 257.093 48.7325C257.028 48.7425 256.968 48.7425 256.913 48.7325C256.858 48.7225 256.805 48.7025 256.755 48.6725C256.71 48.6425 256.675 48.61 256.65 48.575L256.23 47.9975L259.433 45.23H260.52V54.98H262.635ZM274.199 48.4025V56H272.864V52.775C272.214 52.945 271.602 53.0525 271.027 53.0975C270.457 53.1375 269.957 53.0925 269.527 52.9625C269.102 52.8325 268.764 52.605 268.514 52.28C268.269 51.95 268.147 51.495 268.147 50.915V48.4025H269.489V50.7125C269.489 51.0775 269.562 51.365 269.707 51.575C269.857 51.785 270.074 51.93 270.359 52.01C270.644 52.09 270.997 52.1125 271.417 52.0775C271.837 52.0425 272.319 51.96 272.864 51.83V48.4025H274.199ZM281.401 51.3725C281.401 51.0625 281.356 50.78 281.266 50.525C281.181 50.265 281.054 50.0425 280.884 49.8575C280.719 49.6675 280.516 49.5225 280.276 49.4225C280.036 49.3175 279.764 49.265 279.459 49.265C278.819 49.265 278.311 49.4525 277.936 49.8275C277.566 50.1975 277.336 50.7125 277.246 51.3725H281.401ZM282.481 54.935C282.316 55.135 282.119 55.31 281.889 55.46C281.659 55.605 281.411 55.725 281.146 55.82C280.886 55.915 280.616 55.985 280.336 56.03C280.056 56.08 279.779 56.105 279.504 56.105C278.979 56.105 278.494 56.0175 278.049 55.8425C277.609 55.6625 277.226 55.4025 276.901 55.0625C276.581 54.7175 276.331 54.2925 276.151 53.7875C275.971 53.2825 275.881 52.7025 275.881 52.0475C275.881 51.5175 275.961 51.0225 276.121 50.5625C276.286 50.1025 276.521 49.705 276.826 49.37C277.131 49.03 277.504 48.765 277.944 48.575C278.384 48.38 278.879 48.2825 279.429 48.2825C279.884 48.2825 280.304 48.36 280.689 48.515C281.079 48.665 281.414 48.885 281.694 49.175C281.979 49.46 282.201 49.815 282.361 50.24C282.521 50.66 282.601 51.14 282.601 51.68C282.601 51.89 282.579 52.03 282.534 52.1C282.489 52.17 282.404 52.205 282.279 52.205H277.201C277.216 52.685 277.281 53.1025 277.396 53.4575C277.516 53.8125 277.681 54.11 277.891 54.35C278.101 54.585 278.351 54.7625 278.641 54.8825C278.931 54.9975 279.256 55.055 279.616 55.055C279.951 55.055 280.239 55.0175 280.479 54.9425C280.724 54.8625 280.934 54.7775 281.109 54.6875C281.284 54.5975 281.429 54.515 281.544 54.44C281.664 54.36 281.766 54.32 281.851 54.32C281.961 54.32 282.046 54.3625 282.106 54.4475L282.481 54.935ZM290.901 56H289.566V49.4525H287.166C287.106 50.4175 287.016 51.2525 286.896 51.9575C286.776 52.6575 286.631 53.255 286.461 53.75C286.296 54.24 286.109 54.64 285.899 54.95C285.694 55.255 285.476 55.4925 285.246 55.6625C285.021 55.8325 284.786 55.9475 284.541 56.0075C284.301 56.0675 284.061 56.0975 283.821 56.0975C283.396 56.0975 283.184 56.03 283.184 55.895V55.0475H283.574C283.744 55.0475 283.916 55.0175 284.091 54.9575C284.266 54.8975 284.436 54.7825 284.601 54.6125C284.771 54.4425 284.934 54.205 285.089 53.9C285.244 53.59 285.384 53.19 285.509 52.7C285.639 52.205 285.749 51.6075 285.839 50.9075C285.934 50.2025 286.006 49.3675 286.056 48.4025H290.901V56ZM296.218 48.2825C296.773 48.2825 297.273 48.375 297.718 48.56C298.163 48.745 298.543 49.0075 298.858 49.3475C299.173 49.6875 299.413 50.1 299.578 50.585C299.748 51.065 299.833 51.6025 299.833 52.1975C299.833 52.7975 299.748 53.3375 299.578 53.8175C299.413 54.2975 299.173 54.7075 298.858 55.0475C298.543 55.3875 298.163 55.65 297.718 55.835C297.273 56.015 296.773 56.105 296.218 56.105C295.658 56.105 295.153 56.015 294.703 55.835C294.258 55.65 293.878 55.3875 293.563 55.0475C293.248 54.7075 293.006 54.2975 292.836 53.8175C292.671 53.3375 292.588 52.7975 292.588 52.1975C292.588 51.6025 292.671 51.065 292.836 50.585C293.006 50.1 293.248 49.6875 293.563 49.3475C293.878 49.0075 294.258 48.745 294.703 48.56C295.153 48.375 295.658 48.2825 296.218 48.2825ZM296.218 55.0625C296.968 55.0625 297.528 54.8125 297.898 54.3125C298.268 53.8075 298.453 53.105 298.453 52.205C298.453 51.3 298.268 50.595 297.898 50.09C297.528 49.585 296.968 49.3325 296.218 49.3325C295.838 49.3325 295.506 49.3975 295.221 49.5275C294.941 49.6575 294.706 49.845 294.516 50.09C294.331 50.335 294.191 50.6375 294.096 50.9975C294.006 51.3525 293.961 51.755 293.961 52.205C293.961 53.105 294.146 53.8075 294.516 54.3125C294.891 54.8125 295.458 55.0625 296.218 55.0625ZM304.444 55.0625C304.944 55.0625 305.339 54.9475 305.629 54.7175C305.919 54.4825 306.064 54.1625 306.064 53.7575C306.064 53.5775 306.036 53.415 305.981 53.27C305.926 53.12 305.836 52.99 305.711 52.88C305.586 52.77 305.419 52.685 305.209 52.625C305.004 52.565 304.751 52.535 304.451 52.535H302.809V55.0625H304.444ZM302.809 49.3025V51.6875H304.271C304.491 51.6875 304.694 51.6575 304.879 51.5975C305.069 51.5325 305.231 51.445 305.366 51.335C305.501 51.22 305.606 51.085 305.681 50.93C305.756 50.77 305.794 50.595 305.794 50.405C305.794 50.265 305.769 50.13 305.719 50C305.669 49.865 305.584 49.7475 305.464 49.6475C305.344 49.5425 305.186 49.46 304.991 49.4C304.796 49.335 304.556 49.3025 304.271 49.3025H302.809ZM304.309 48.4025C304.779 48.4025 305.181 48.45 305.516 48.545C305.851 48.64 306.126 48.77 306.341 48.935C306.556 49.095 306.714 49.285 306.814 49.505C306.914 49.725 306.964 49.96 306.964 50.21C306.964 50.375 306.941 50.5475 306.896 50.7275C306.851 50.9075 306.771 51.08 306.656 51.245C306.546 51.41 306.394 51.56 306.199 51.695C306.009 51.825 305.769 51.9275 305.479 52.0025C306.059 52.1025 306.506 52.305 306.821 52.61C307.136 52.91 307.294 53.3075 307.294 53.8025C307.294 54.1725 307.219 54.495 307.069 54.77C306.924 55.04 306.721 55.2675 306.461 55.4525C306.206 55.6375 305.906 55.775 305.561 55.865C305.216 55.955 304.846 56 304.451 56H301.526V48.4025H304.309ZM314.053 51.3725C314.053 51.0625 314.008 50.78 313.918 50.525C313.833 50.265 313.705 50.0425 313.535 49.8575C313.37 49.6675 313.168 49.5225 312.928 49.4225C312.688 49.3175 312.415 49.265 312.11 49.265C311.47 49.265 310.963 49.4525 310.588 49.8275C310.218 50.1975 309.988 50.7125 309.898 51.3725H314.053ZM315.133 54.935C314.968 55.135 314.77 55.31 314.54 55.46C314.31 55.605 314.063 55.725 313.798 55.82C313.538 55.915 313.268 55.985 312.988 56.03C312.708 56.08 312.43 56.105 312.155 56.105C311.63 56.105 311.145 56.0175 310.7 55.8425C310.26 55.6625 309.878 55.4025 309.553 55.0625C309.233 54.7175 308.983 54.2925 308.803 53.7875C308.623 53.2825 308.533 52.7025 308.533 52.0475C308.533 51.5175 308.613 51.0225 308.773 50.5625C308.938 50.1025 309.173 49.705 309.478 49.37C309.783 49.03 310.155 48.765 310.595 48.575C311.035 48.38 311.53 48.2825 312.08 48.2825C312.535 48.2825 312.955 48.36 313.34 48.515C313.73 48.665 314.065 48.885 314.345 49.175C314.63 49.46 314.853 49.815 315.013 50.24C315.173 50.66 315.253 51.14 315.253 51.68C315.253 51.89 315.23 52.03 315.185 52.1C315.14 52.17 315.055 52.205 314.93 52.205H309.853C309.868 52.685 309.933 53.1025 310.048 53.4575C310.168 53.8125 310.333 54.11 310.543 54.35C310.753 54.585 311.003 54.7625 311.293 54.8825C311.583 54.9975 311.908 55.055 312.268 55.055C312.603 55.055 312.89 55.0175 313.13 54.9425C313.375 54.8625 313.585 54.7775 313.76 54.6875C313.935 54.5975 314.08 54.515 314.195 54.44C314.315 54.36 314.418 54.32 314.503 54.32C314.613 54.32 314.698 54.3625 314.758 54.4475L315.133 54.935ZM321.505 48.7775C321.575 48.6675 321.667 48.5775 321.782 48.5075C321.897 48.4375 322.02 48.4025 322.15 48.4025H323.192L321.22 51.2975C321.1 51.4825 320.975 51.635 320.845 51.755C320.715 51.87 320.555 51.96 320.365 52.025C320.605 52.09 320.807 52.1925 320.972 52.3325C321.137 52.4675 321.285 52.6425 321.415 52.8575L323.41 56H322.48C322.24 56 322.055 55.96 321.925 55.88C321.795 55.8 321.682 55.685 321.587 55.535L320.11 53.1725C319.875 52.7825 319.522 52.5875 319.052 52.5875H318.235V56.0075H316.892V48.4025H318.235V51.6875H318.955C319.355 51.6875 319.667 51.5175 319.892 51.1775L321.505 48.7775Z" fill="#242424"/>
<defs>
<filter id="filter0_d" x="-48" y="0" width="456" height="156" filterUnits="userSpaceOnUse" color-interpolation-filters="sRGB">
<feFlood flood-opacity="0" result="BackgroundImageFix"/>
<feColorMatrix in="SourceAlpha" type="matrix" values="0 0 0 0 0 0 0 0 0 0 0 0 0 0 0 0 0 0 127 0"/>
<feOffset dy="32"/>
<feGaussianBlur stdDeviation="24"/>
<feColorMatrix type="matrix" values="0 0 0 0 0.12549 0 0 0 0 0.180392 0 0 0 0 0.305882 0 0 0 0.1 0"/>
<feBlend mode="normal" in2="BackgroundImageFix" result="effect1_dropShadow"/>
<feBlend mode="normal" in="SourceGraphic" in2="effect1_dropShadow" result="shape"/>
</filter>
<filter id="filter1_d" x="107" y="0" width="41" height="100" filterUnits="userSpaceOnUse" color-interpolation-filters="sRGB">
<feFlood flood-opacity="0" result="BackgroundImageFix"/>
<feColorMatrix in="SourceAlpha" type="matrix" values="0 0 0 0 0 0 0 0 0 0 0 0 0 0 0 0 0 0 127 0"/>
<feOffset dy="4"/>
<feGaussianBlur stdDeviation="10"/>
<feColorMatrix type="matrix" values="0 0 0 0 0 0 0 0 0 0 0 0 0 0 0 0 0 0 0.05 0"/>
<feBlend mode="normal" in2="BackgroundImageFix" result="effect1_dropShadow"/>
<feBlend mode="normal" in="SourceGraphic" in2="effect1_dropShadow" result="shape"/>
</filter>
<filter id="filter2_d" x="220" y="0" width="41" height="100" filterUnits="userSpaceOnUse" color-interpolation-filters="sRGB">
<feFlood flood-opacity="0" result="BackgroundImageFix"/>
<feColorMatrix in="SourceAlpha" type="matrix" values="0 0 0 0 0 0 0 0 0 0 0 0 0 0 0 0 0 0 127 0"/>
<feOffset dy="4"/>
<feGaussianBlur stdDeviation="10"/>
<feColorMatrix type="matrix" values="0 0 0 0 0 0 0 0 0 0 0 0 0 0 0 0 0 0 0.05 0"/>
<feBlend mode="normal" in2="BackgroundImageFix" result="effect1_dropShadow"/>
<feBlend mode="normal" in="SourceGraphic" in2="effect1_dropShadow" result="shape"/>
</filter>
</defs>
</svg>
