<svg width="20" height="21" viewBox="0 0 20 21" fill="none" xmlns="http://www.w3.org/2000/svg">
<path fill-rule="evenodd" clip-rule="evenodd" d="M20 20.1721H0V0H20V20.1721ZM17.9828 2.01721H2.01721V18.1549H17.9828V2.01721ZM6.25641 7.92242L6.09863 7.13059L12.4598 13.4917L11.6665 13.3325C11.1226 13.2222 10.5863 13.576 10.4798 14.1237C10.3695 14.6676 10.727 15.2001 11.2709 15.3104L14.8388 16.0255C15.1697 16.0902 15.5083 15.9875 15.7479 15.7479C15.9875 15.5082 16.0902 15.1697 16.0256 14.8388L15.3105 11.2709C15.2002 10.727 14.6676 10.3694 14.1237 10.4797C13.5798 10.59 13.226 11.1188 13.3325 11.6665L13.4975 12.4881L7.10233 6.09298L7.92243 6.2564C8.26476 6.32487 8.60329 6.20696 8.83151 5.97873C8.96845 5.8418 9.06734 5.66683 9.10918 5.46523C9.21949 4.92131 8.86194 4.38879 8.31802 4.27848L4.75015 3.56339C4.08831 3.43407 3.43407 4.0883 3.5634 4.75014L4.27849 8.31801C4.3888 8.86193 4.92132 9.21948 5.46524 9.10917C6.00917 8.99887 6.36292 8.47015 6.25641 7.92242Z" fill="#958866"/>
</svg>
