<svg width="20" height="20" viewBox="0 0 20 20" fill="none" xmlns="http://www.w3.org/2000/svg">
<path d="M18.6293 6.48533C17.52 2.64533 14.0373 0 10 0C5.96267 0 2.48533 2.64533 1.37067 6.48533C0.549333 7.01867 0 7.94667 0 8.99733V18H2V20H4V18H6H14H16V20H18V18H20V9.00267C20 7.94667 19.4507 7.024 18.6293 6.48533ZM4 11.0027V13.0027V16.0053H2V9.00267C2 8.47467 2.416 8.05333 2.93333 8.016C2.98133 8.016 3.024 8.01067 3.072 8.016C3.10933 8.02133 3.14667 8.032 3.184 8.03733C3.44533 8.096 3.68 8.25067 3.82933 8.47467C3.84533 8.50133 3.86667 8.52267 3.88267 8.54933C3.904 8.592 3.92 8.63467 3.94133 8.68267C3.97867 8.784 4.00533 8.89067 4.00533 9.00267V11.0027H4ZM14 16H6V12.9973H14V16ZM15.8507 6.22933C15.8133 6.24533 15.776 6.26667 15.7387 6.288C15.6107 6.34667 15.488 6.41067 15.3707 6.49067C15.3173 6.528 15.2693 6.56533 15.216 6.608C15.1253 6.67733 15.0347 6.74667 14.9493 6.82667C14.896 6.87467 14.848 6.928 14.8 6.98133C14.7253 7.06133 14.656 7.14667 14.5867 7.23733C14.544 7.296 14.5013 7.35467 14.464 7.41333C14.4053 7.50933 14.352 7.61067 14.304 7.712C14.272 7.776 14.24 7.83467 14.2187 7.904C14.1707 8.02133 14.1387 8.13867 14.1067 8.26133C14.0907 8.32 14.0693 8.37867 14.0587 8.43733C14.0213 8.624 14 8.81067 14 9.00267V11.0027H6V9.00267C6 8.81067 5.97867 8.61867 5.94133 8.43733C5.93067 8.37867 5.90933 8.32 5.89333 8.26133C5.86133 8.13867 5.82933 8.02133 5.78133 7.904C5.75467 7.84 5.72267 7.776 5.69067 7.712C5.64267 7.61067 5.58933 7.50933 5.53067 7.41333C5.49333 7.34933 5.45067 7.29067 5.408 7.23733C5.344 7.14667 5.26933 7.06133 5.19467 6.98133C5.14667 6.928 5.09867 6.88 5.04533 6.82667C4.96 6.74667 4.86933 6.67733 4.77867 6.608C4.72533 6.57067 4.67733 6.528 4.624 6.49067C4.50667 6.416 4.384 6.352 4.256 6.29333C4.21867 6.27733 4.18133 6.25067 4.144 6.23467C3.984 6.16533 3.81333 6.112 3.63733 6.07467C4.75733 3.62133 7.20533 2.00533 9.98933 2.00533C12.7733 2.00533 15.2213 3.62667 16.3413 6.07467C16.1813 6.10667 16.0107 6.16533 15.8507 6.22933ZM18 16H16V12.9973V10.9973V8.99733C16 8.88533 16.032 8.77867 16.064 8.67733C16.08 8.63467 16.096 8.58667 16.1173 8.54933C16.1333 8.51733 16.1547 8.49067 16.176 8.464C16.3253 8.25067 16.5547 8.096 16.8107 8.03733C16.8533 8.02667 16.8907 8.016 16.9333 8.01067C16.976 8.00533 17.024 8.01067 17.072 8.01067C17.5893 8.048 18.0053 8.46933 18.0053 8.99733V16H18Z" fill="#958866"/>
</svg>
