<svg width="960" height="186" viewBox="0 0 960 186" fill="none" xmlns="http://www.w3.org/2000/svg">
<g filter="url(#filter0_d)">
<path d="M48 16H912V106H48V16Z" fill="white"/>
</g>
<rect x="725" y="16" width="223" height="90" fill="#A18F57"/>
<g filter="url(#filter1_d)">
<rect x="245" y="36" width="1" height="50" rx="0.5" fill="#E7EAEC"/>
</g>
<g filter="url(#filter2_d)">
<rect x="443" y="36" width="1" height="50" rx="0.5" fill="#E7EAEC"/>
</g>
<path d="M68.7 36.907C69.078 36.571 69.5167 36.3143 70.016 36.137C70.5153 35.9597 71.0823 35.871 71.717 35.871C72.235 35.871 72.6993 35.934 73.11 36.06C73.5253 36.186 73.8777 36.3633 74.167 36.592C74.4563 36.8207 74.678 37.0913 74.832 37.404C74.9907 37.7167 75.07 38.0597 75.07 38.433C75.07 38.937 74.944 39.3803 74.692 39.763C74.4447 40.1457 74.0947 40.442 73.642 40.652C73.8987 40.7593 74.132 40.8923 74.342 41.051C74.552 41.205 74.7317 41.38 74.881 41.576C75.035 41.772 75.1517 41.9867 75.231 42.22C75.315 42.4533 75.357 42.6983 75.357 42.955C75.357 43.3937 75.2753 43.8043 75.112 44.187C74.9487 44.5697 74.7107 44.9033 74.398 45.188C74.09 45.468 73.7097 45.6897 73.257 45.853C72.8043 46.0163 72.2887 46.098 71.71 46.098C70.9913 46.098 70.345 45.9813 69.771 45.748C69.197 45.51 68.7047 45.1903 68.294 44.789L68.686 44.145C68.7233 44.0937 68.77 44.0517 68.826 44.019C68.882 43.9817 68.9427 43.963 69.008 43.963C69.106 43.963 69.2227 44.0167 69.358 44.124C69.4933 44.2267 69.666 44.341 69.876 44.467C70.086 44.593 70.3403 44.7097 70.639 44.817C70.9423 44.9197 71.311 44.971 71.745 44.971C72.1137 44.971 72.4427 44.9267 72.732 44.838C73.026 44.7493 73.271 44.621 73.467 44.453C73.6677 44.285 73.8193 44.0797 73.922 43.837C74.0293 43.5943 74.083 43.3213 74.083 43.018C74.083 42.7567 74.0317 42.5163 73.929 42.297C73.831 42.0777 73.6863 41.891 73.495 41.737C73.3037 41.5783 73.0703 41.457 72.795 41.373C72.5197 41.2843 72.2093 41.24 71.864 41.24H70.492V40.127H71.808C72.0927 40.127 72.3563 40.092 72.599 40.022C72.8463 39.952 73.0563 39.8493 73.229 39.714C73.4063 39.5787 73.544 39.413 73.642 39.217C73.7447 39.021 73.796 38.797 73.796 38.545C73.796 38.3163 73.7493 38.1063 73.656 37.915C73.5627 37.7237 73.4273 37.5603 73.25 37.425C73.0727 37.285 72.8557 37.1777 72.599 37.103C72.3423 37.0283 72.0507 36.991 71.724 36.991C71.346 36.991 71.024 37.0307 70.758 37.11C70.492 37.1893 70.268 37.278 70.086 37.376C69.904 37.4693 69.7547 37.5557 69.638 37.635C69.526 37.7143 69.428 37.754 69.344 37.754C69.2693 37.754 69.2087 37.7377 69.162 37.705C69.1153 37.6723 69.071 37.6187 69.029 37.544L68.7 36.907ZM80.7734 42.808C80.1994 42.8267 79.7094 42.8733 79.3034 42.948C78.902 43.018 78.573 43.1113 78.3164 43.228C78.0644 43.3447 77.88 43.4823 77.7634 43.641C77.6514 43.7997 77.5954 43.977 77.5954 44.173C77.5954 44.3597 77.6257 44.5207 77.6864 44.656C77.747 44.7913 77.8287 44.9033 77.9314 44.992C78.0387 45.076 78.1624 45.139 78.3024 45.181C78.447 45.2183 78.601 45.237 78.7644 45.237C78.9837 45.237 79.1844 45.216 79.3664 45.174C79.5484 45.1273 79.7187 45.062 79.8774 44.978C80.0407 44.894 80.1947 44.7937 80.3394 44.677C80.4887 44.5603 80.6334 44.4273 80.7734 44.278V42.808ZM76.7484 39.91C77.1404 39.532 77.5627 39.2497 78.0154 39.063C78.468 38.8763 78.9697 38.783 79.5204 38.783C79.917 38.783 80.2694 38.8483 80.5774 38.979C80.8854 39.1097 81.1444 39.2917 81.3544 39.525C81.5644 39.7583 81.723 40.0407 81.8304 40.372C81.9377 40.7033 81.9914 41.0673 81.9914 41.464V46H81.4384C81.317 46 81.2237 45.9813 81.1584 45.944C81.093 45.902 81.0417 45.8227 81.0044 45.706L80.8644 45.034C80.6777 45.2067 80.4957 45.3607 80.3184 45.496C80.141 45.6267 79.9544 45.7387 79.7584 45.832C79.5624 45.9207 79.3524 45.9883 79.1284 46.035C78.909 46.0863 78.664 46.112 78.3934 46.112C78.118 46.112 77.859 46.0747 77.6164 46C77.3737 45.9207 77.1614 45.804 76.9794 45.65C76.802 45.496 76.6597 45.3023 76.5524 45.069C76.4497 44.831 76.3984 44.551 76.3984 44.229C76.3984 43.949 76.4754 43.6807 76.6294 43.424C76.7834 43.1627 77.033 42.9317 77.3784 42.731C77.7237 42.5303 78.174 42.367 78.7294 42.241C79.2847 42.1103 79.966 42.0357 80.7734 42.017V41.464C80.7734 40.9133 80.6544 40.498 80.4164 40.218C80.1784 39.9333 79.8307 39.791 79.3734 39.791C79.0654 39.791 78.8064 39.8307 78.5964 39.91C78.391 39.9847 78.2114 40.071 78.0574 40.169C77.908 40.2623 77.7774 40.3487 77.6654 40.428C77.558 40.5027 77.4507 40.54 77.3434 40.54C77.2594 40.54 77.187 40.519 77.1264 40.477C77.0657 40.4303 77.0144 40.3743 76.9724 40.309L76.7484 39.91ZM88.6353 41.681C88.6353 41.3917 88.5933 41.128 88.5093 40.89C88.43 40.6473 88.311 40.4397 88.1523 40.267C87.9983 40.0897 87.8093 39.9543 87.5853 39.861C87.3613 39.763 87.107 39.714 86.8223 39.714C86.225 39.714 85.7513 39.889 85.4013 40.239C85.056 40.5843 84.8413 41.065 84.7573 41.681H88.6353ZM89.6433 45.006C89.4893 45.1927 89.305 45.356 89.0903 45.496C88.8757 45.6313 88.6447 45.7433 88.3973 45.832C88.1547 45.9207 87.9027 45.986 87.6413 46.028C87.38 46.0747 87.121 46.098 86.8643 46.098C86.3743 46.098 85.9217 46.0163 85.5063 45.853C85.0957 45.685 84.7387 45.4423 84.4353 45.125C84.1367 44.803 83.9033 44.4063 83.7353 43.935C83.5673 43.4637 83.4833 42.9223 83.4833 42.311C83.4833 41.8163 83.558 41.3543 83.7073 40.925C83.8613 40.4957 84.0807 40.1247 84.3653 39.812C84.65 39.4947 84.9977 39.2473 85.4083 39.07C85.819 38.888 86.281 38.797 86.7943 38.797C87.219 38.797 87.611 38.8693 87.9703 39.014C88.3343 39.154 88.647 39.3593 88.9083 39.63C89.1743 39.896 89.382 40.2273 89.5313 40.624C89.6807 41.016 89.7553 41.464 89.7553 41.968C89.7553 42.164 89.7343 42.2947 89.6923 42.36C89.6503 42.4253 89.571 42.458 89.4543 42.458H84.7153C84.7293 42.906 84.79 43.2957 84.8973 43.627C85.0093 43.9583 85.1633 44.236 85.3593 44.46C85.5553 44.6793 85.7887 44.845 86.0593 44.957C86.33 45.0643 86.6333 45.118 86.9693 45.118C87.282 45.118 87.5503 45.083 87.7743 45.013C88.003 44.9383 88.199 44.859 88.3623 44.775C88.5257 44.691 88.661 44.614 88.7683 44.544C88.8803 44.4693 88.976 44.432 89.0553 44.432C89.158 44.432 89.2373 44.4717 89.2933 44.551L89.6433 45.006ZM90.8378 39.637C91.1038 39.385 91.4258 39.182 91.8038 39.028C92.1865 38.874 92.6462 38.797 93.1828 38.797C93.6122 38.797 93.9902 38.8507 94.3168 38.958C94.6435 39.0607 94.9165 39.1983 95.1358 39.371C95.3598 39.5437 95.5278 39.742 95.6398 39.966C95.7565 40.1853 95.8148 40.414 95.8148 40.652C95.8148 40.792 95.7915 40.939 95.7448 41.093C95.7028 41.247 95.6305 41.394 95.5278 41.534C95.4252 41.674 95.2922 41.8047 95.1288 41.926C94.9655 42.0473 94.7625 42.1453 94.5198 42.22C94.9725 42.3553 95.3272 42.5723 95.5838 42.871C95.8452 43.1697 95.9758 43.536 95.9758 43.97C95.9758 44.2967 95.9012 44.593 95.7518 44.859C95.6025 45.1203 95.4018 45.3443 95.1498 45.531C94.8978 45.713 94.6038 45.853 94.2678 45.951C93.9365 46.049 93.5888 46.098 93.2248 46.098C92.9962 46.098 92.7628 46.077 92.5248 46.035C92.2915 45.993 92.0628 45.9277 91.8388 45.839C91.6148 45.7457 91.4025 45.6313 91.2018 45.496C91.0058 45.3607 90.8308 45.1973 90.6768 45.006L91.0268 44.551C91.0828 44.4717 91.1622 44.432 91.2648 44.432C91.3488 44.432 91.4375 44.4693 91.5308 44.544C91.6288 44.614 91.7478 44.6933 91.8878 44.782C92.0278 44.8707 92.1982 44.9523 92.3988 45.027C92.6042 45.097 92.8538 45.132 93.1478 45.132C93.4045 45.132 93.6332 45.1017 93.8338 45.041C94.0392 44.9757 94.2118 44.887 94.3518 44.775C94.4918 44.663 94.5992 44.53 94.6738 44.376C94.7485 44.222 94.7858 44.054 94.7858 43.872C94.7858 43.522 94.6388 43.2397 94.3448 43.025C94.0555 42.8103 93.6145 42.703 93.0218 42.703H92.2168V41.877H93.0218C93.2785 41.877 93.5095 41.8513 93.7148 41.8C93.9202 41.744 94.0952 41.6693 94.2398 41.576C94.3845 41.4827 94.4942 41.3707 94.5688 41.24C94.6435 41.1047 94.6808 40.96 94.6808 40.806C94.6808 40.666 94.6482 40.533 94.5828 40.407C94.5222 40.281 94.4265 40.1713 94.2958 40.078C94.1698 39.9847 94.0112 39.91 93.8198 39.854C93.6285 39.798 93.4045 39.77 93.1478 39.77C92.8678 39.77 92.6298 39.798 92.4338 39.854C92.2425 39.91 92.0792 39.9707 91.9438 40.036C91.8132 40.1013 91.7058 40.162 91.6218 40.218C91.5378 40.274 91.4655 40.302 91.4048 40.302C91.3442 40.302 91.2928 40.2903 91.2508 40.267C91.2135 40.2437 91.1715 40.1947 91.1248 40.12L90.8378 39.637ZM102.406 45.09V39.889H100.159C100.113 40.617 100.047 41.261 99.9632 41.821C99.8792 42.381 99.7812 42.8733 99.6692 43.298C99.5619 43.718 99.4405 44.075 99.3052 44.369C99.1745 44.663 99.0369 44.9033 98.8922 45.09H102.406ZM104.912 45.055V48.058C104.912 48.1793 104.877 48.2727 104.807 48.338C104.742 48.408 104.656 48.443 104.548 48.443H103.785V46H97.8212V48.086C97.8212 48.1747 97.7932 48.2563 97.7372 48.331C97.6859 48.4057 97.5995 48.443 97.4782 48.443H96.6942V45.09H96.9252C97.0885 45.09 97.2495 45.062 97.4082 45.006C97.5715 44.95 97.7279 44.845 97.8772 44.691C98.0265 44.5323 98.1665 44.3107 98.2972 44.026C98.4325 43.7413 98.5539 43.3703 98.6612 42.913C98.7685 42.4557 98.8619 41.9003 98.9412 41.247C99.0205 40.589 99.0835 39.8097 99.1302 38.909H103.617V45.055H104.912Z" fill="#83785A"/>
<path d="M77.87 74.31C78.0633 74.31 78.2167 74.3667 78.33 74.48C78.4433 74.5933 78.5 74.74 78.5 74.92V76H68.94V75.39C68.94 75.2633 68.9667 75.1333 69.02 75C69.0733 74.8667 69.1567 74.7433 69.27 74.63L73.86 70.02C74.24 69.6333 74.5867 69.2633 74.9 68.91C75.2133 68.55 75.48 68.19 75.7 67.83C75.92 67.47 76.09 67.1067 76.21 66.74C76.33 66.3667 76.39 65.97 76.39 65.55C76.39 65.13 76.3233 64.7633 76.19 64.45C76.0567 64.13 75.8733 63.8667 75.64 63.66C75.4133 63.4533 75.1433 63.3 74.83 63.2C74.5167 63.0933 74.18 63.04 73.82 63.04C73.4533 63.04 73.1167 63.0933 72.81 63.2C72.5033 63.3067 72.23 63.4567 71.99 63.65C71.7567 63.8367 71.56 64.06 71.4 64.32C71.24 64.58 71.1267 64.8667 71.06 65.18C70.98 65.4133 70.87 65.57 70.73 65.65C70.5967 65.7233 70.4067 65.7433 70.16 65.71L69.23 65.55C69.3233 64.8967 69.5033 64.32 69.77 63.82C70.0433 63.3133 70.3833 62.89 70.79 62.55C71.2033 62.21 71.6733 61.9533 72.2 61.78C72.7267 61.6 73.2967 61.51 73.91 61.51C74.5167 61.51 75.0833 61.6 75.61 61.78C76.1367 61.96 76.5933 62.2233 76.98 62.57C77.3667 62.91 77.67 63.3267 77.89 63.82C78.11 64.3133 78.22 64.8733 78.22 65.5C78.22 66.0333 78.14 66.53 77.98 66.99C77.82 67.4433 77.6033 67.8767 77.33 68.29C77.0567 68.7033 76.74 69.1067 76.38 69.5C76.0267 69.8933 75.65 70.29 75.25 70.69L71.47 74.55C71.7367 74.4767 72.0067 74.42 72.28 74.38C72.5533 74.3333 72.8167 74.31 73.07 74.31H77.87ZM89.7816 74.64V76H82.1016V74.64H85.1716V64.87C85.1716 64.5767 85.1816 64.28 85.2016 63.98L82.6516 66.17C82.5649 66.2433 82.4782 66.29 82.3916 66.31C82.3049 66.3233 82.2249 66.3233 82.1516 66.31C82.0782 66.2967 82.0082 66.27 81.9416 66.23C81.8816 66.19 81.8349 66.1467 81.8016 66.1L81.2416 65.33L85.5116 61.64H86.9616V74.64H89.7816ZM92.3131 74.9C92.3131 74.7267 92.3431 74.5633 92.4031 74.41C92.4698 74.2567 92.5565 74.1233 92.6631 74.01C92.7765 73.8967 92.9098 73.8067 93.0631 73.74C93.2165 73.6733 93.3798 73.64 93.5531 73.64C93.7265 73.64 93.8898 73.6733 94.0431 73.74C94.1965 73.8067 94.3298 73.8967 94.4431 74.01C94.5565 74.1233 94.6465 74.2567 94.7131 74.41C94.7798 74.5633 94.8131 74.7267 94.8131 74.9C94.8131 75.08 94.7798 75.2467 94.7131 75.4C94.6465 75.5467 94.5565 75.6767 94.4431 75.79C94.3298 75.9033 94.1965 75.99 94.0431 76.05C93.8898 76.1167 93.7265 76.15 93.5531 76.15C93.3798 76.15 93.2165 76.1167 93.0631 76.05C92.9098 75.99 92.7765 75.9033 92.6631 75.79C92.5565 75.6767 92.4698 75.5467 92.4031 75.4C92.3431 75.2467 92.3131 75.08 92.3131 74.9ZM106.93 68.84C106.93 70.0933 106.793 71.18 106.52 72.1C106.253 73.0133 105.886 73.77 105.42 74.37C104.953 74.97 104.4 75.4167 103.76 75.71C103.126 76.0033 102.446 76.15 101.72 76.15C100.986 76.15 100.303 76.0033 99.6697 75.71C99.043 75.4167 98.4964 74.97 98.0297 74.37C97.563 73.77 97.1964 73.0133 96.9297 72.1C96.663 71.18 96.5297 70.0933 96.5297 68.84C96.5297 67.5867 96.663 66.5 96.9297 65.58C97.1964 64.66 97.563 63.9 98.0297 63.3C98.4964 62.6933 99.043 62.2433 99.6697 61.95C100.303 61.6567 100.986 61.51 101.72 61.51C102.446 61.51 103.126 61.6567 103.76 61.95C104.4 62.2433 104.953 62.6933 105.42 63.3C105.886 63.9 106.253 64.66 106.52 65.58C106.793 66.5 106.93 67.5867 106.93 68.84ZM105.08 68.84C105.08 67.7467 104.986 66.83 104.8 66.09C104.62 65.3433 104.373 64.7433 104.06 64.29C103.753 63.8367 103.396 63.5133 102.99 63.32C102.583 63.12 102.16 63.02 101.72 63.02C101.28 63.02 100.856 63.12 100.45 63.32C100.043 63.5133 99.6864 63.8367 99.3797 64.29C99.073 64.7433 98.8264 65.3433 98.6397 66.09C98.4597 66.83 98.3697 67.7467 98.3697 68.84C98.3697 69.9333 98.4597 70.85 98.6397 71.59C98.8264 72.33 99.073 72.9267 99.3797 73.38C99.6864 73.8333 100.043 74.16 100.45 74.36C100.856 74.5533 101.28 74.65 101.72 74.65C102.16 74.65 102.583 74.5533 102.99 74.36C103.396 74.16 103.753 73.8333 104.06 73.38C104.373 72.9267 104.62 72.33 104.8 71.59C104.986 70.85 105.08 69.9333 105.08 68.84ZM113.311 74.68C113.791 74.68 114.225 74.6033 114.611 74.45C115.005 74.2967 115.338 74.0833 115.611 73.81C115.891 73.5367 116.105 73.2133 116.251 72.84C116.405 72.4667 116.481 72.06 116.481 71.62C116.481 71.1533 116.408 70.7333 116.261 70.36C116.115 69.98 115.905 69.66 115.631 69.4C115.365 69.1333 115.045 68.93 114.671 68.79C114.298 68.65 113.888 68.58 113.441 68.58C112.961 68.58 112.528 68.6633 112.141 68.83C111.755 68.99 111.425 69.21 111.151 69.49C110.885 69.7633 110.678 70.0833 110.531 70.45C110.391 70.81 110.321 71.1867 110.321 71.58C110.321 72.04 110.388 72.46 110.521 72.84C110.655 73.22 110.848 73.5467 111.101 73.82C111.361 74.0933 111.675 74.3067 112.041 74.46C112.415 74.6067 112.838 74.68 113.311 74.68ZM112.271 67.04C112.145 67.2 112.021 67.3567 111.901 67.51C111.788 67.6567 111.678 67.8033 111.571 67.95C111.911 67.7167 112.285 67.5367 112.691 67.41C113.098 67.2833 113.541 67.22 114.021 67.22C114.601 67.22 115.148 67.3167 115.661 67.51C116.175 67.6967 116.621 67.9733 117.001 68.34C117.388 68.7 117.695 69.1467 117.921 69.68C118.148 70.2067 118.261 70.81 118.261 71.49C118.261 72.15 118.141 72.7633 117.901 73.33C117.661 73.8967 117.325 74.39 116.891 74.81C116.465 75.23 115.948 75.56 115.341 75.8C114.741 76.04 114.078 76.16 113.351 76.16C112.631 76.16 111.978 76.0467 111.391 75.82C110.805 75.5867 110.305 75.26 109.891 74.84C109.485 74.4133 109.168 73.9 108.941 73.3C108.721 72.6933 108.611 72.0167 108.611 71.27C108.611 70.6433 108.748 69.9767 109.021 69.27C109.301 68.5567 109.745 67.7967 110.351 66.99L113.991 62.1C114.085 61.98 114.211 61.88 114.371 61.8C114.538 61.7133 114.728 61.67 114.941 61.67H116.521L112.271 67.04ZM120.243 74.9C120.243 74.7267 120.273 74.5633 120.333 74.41C120.399 74.2567 120.486 74.1233 120.593 74.01C120.706 73.8967 120.839 73.8067 120.993 73.74C121.146 73.6733 121.309 73.64 121.483 73.64C121.656 73.64 121.819 73.6733 121.973 73.74C122.126 73.8067 122.259 73.8967 122.373 74.01C122.486 74.1233 122.576 74.2567 122.643 74.41C122.709 74.5633 122.743 74.7267 122.743 74.9C122.743 75.08 122.709 75.2467 122.643 75.4C122.576 75.5467 122.486 75.6767 122.373 75.79C122.259 75.9033 122.126 75.99 121.973 76.05C121.819 76.1167 121.656 76.15 121.483 76.15C121.309 76.15 121.146 76.1167 120.993 76.05C120.839 75.99 120.706 75.9033 120.593 75.79C120.486 75.6767 120.399 75.5467 120.333 75.4C120.273 75.2467 120.243 75.08 120.243 74.9ZM133.729 74.31C133.923 74.31 134.076 74.3667 134.189 74.48C134.303 74.5933 134.359 74.74 134.359 74.92V76H124.799V75.39C124.799 75.2633 124.826 75.1333 124.879 75C124.933 74.8667 125.016 74.7433 125.129 74.63L129.719 70.02C130.099 69.6333 130.446 69.2633 130.759 68.91C131.073 68.55 131.339 68.19 131.559 67.83C131.779 67.47 131.949 67.1067 132.069 66.74C132.189 66.3667 132.249 65.97 132.249 65.55C132.249 65.13 132.183 64.7633 132.049 64.45C131.916 64.13 131.733 63.8667 131.499 63.66C131.273 63.4533 131.003 63.3 130.689 63.2C130.376 63.0933 130.039 63.04 129.679 63.04C129.313 63.04 128.976 63.0933 128.669 63.2C128.363 63.3067 128.089 63.4567 127.849 63.65C127.616 63.8367 127.419 64.06 127.259 64.32C127.099 64.58 126.986 64.8667 126.919 65.18C126.839 65.4133 126.729 65.57 126.589 65.65C126.456 65.7233 126.266 65.7433 126.019 65.71L125.089 65.55C125.183 64.8967 125.363 64.32 125.629 63.82C125.903 63.3133 126.243 62.89 126.649 62.55C127.063 62.21 127.533 61.9533 128.059 61.78C128.586 61.6 129.156 61.51 129.769 61.51C130.376 61.51 130.943 61.6 131.469 61.78C131.996 61.96 132.453 62.2233 132.839 62.57C133.226 62.91 133.529 63.3267 133.749 63.82C133.969 64.3133 134.079 64.8733 134.079 65.5C134.079 66.0333 133.999 66.53 133.839 66.99C133.679 67.4433 133.463 67.8767 133.189 68.29C132.916 68.7033 132.599 69.1067 132.239 69.5C131.886 69.8933 131.509 70.29 131.109 70.69L127.329 74.55C127.596 74.4767 127.866 74.42 128.139 74.38C128.413 74.3333 128.676 74.31 128.929 74.31H133.729ZM146.461 68.84C146.461 70.0933 146.324 71.18 146.051 72.1C145.784 73.0133 145.418 73.77 144.951 74.37C144.484 74.97 143.931 75.4167 143.291 75.71C142.658 76.0033 141.978 76.15 141.251 76.15C140.518 76.15 139.834 76.0033 139.201 75.71C138.574 75.4167 138.028 74.97 137.561 74.37C137.094 73.77 136.728 73.0133 136.461 72.1C136.194 71.18 136.061 70.0933 136.061 68.84C136.061 67.5867 136.194 66.5 136.461 65.58C136.728 64.66 137.094 63.9 137.561 63.3C138.028 62.6933 138.574 62.2433 139.201 61.95C139.834 61.6567 140.518 61.51 141.251 61.51C141.978 61.51 142.658 61.6567 143.291 61.95C143.931 62.2433 144.484 62.6933 144.951 63.3C145.418 63.9 145.784 64.66 146.051 65.58C146.324 66.5 146.461 67.5867 146.461 68.84ZM144.611 68.84C144.611 67.7467 144.518 66.83 144.331 66.09C144.151 65.3433 143.904 64.7433 143.591 64.29C143.284 63.8367 142.928 63.5133 142.521 63.32C142.114 63.12 141.691 63.02 141.251 63.02C140.811 63.02 140.388 63.12 139.981 63.32C139.574 63.5133 139.218 63.8367 138.911 64.29C138.604 64.7433 138.358 65.3433 138.171 66.09C137.991 66.83 137.901 67.7467 137.901 68.84C137.901 69.9333 137.991 70.85 138.171 71.59C138.358 72.33 138.604 72.9267 138.911 73.38C139.218 73.8333 139.574 74.16 139.981 74.36C140.388 74.5533 140.811 74.65 141.251 74.65C141.691 74.65 142.114 74.5533 142.521 74.36C142.928 74.16 143.284 73.8333 143.591 73.38C143.904 72.9267 144.151 72.33 144.331 71.59C144.518 70.85 144.611 69.9333 144.611 68.84ZM156.933 74.31C157.126 74.31 157.279 74.3667 157.392 74.48C157.506 74.5933 157.563 74.74 157.563 74.92V76H148.003V75.39C148.003 75.2633 148.029 75.1333 148.083 75C148.136 74.8667 148.219 74.7433 148.333 74.63L152.923 70.02C153.303 69.6333 153.649 69.2633 153.963 68.91C154.276 68.55 154.543 68.19 154.763 67.83C154.983 67.47 155.153 67.1067 155.273 66.74C155.393 66.3667 155.453 65.97 155.453 65.55C155.453 65.13 155.386 64.7633 155.253 64.45C155.119 64.13 154.936 63.8667 154.703 63.66C154.476 63.4533 154.206 63.3 153.893 63.2C153.579 63.0933 153.243 63.04 152.883 63.04C152.516 63.04 152.179 63.0933 151.873 63.2C151.566 63.3067 151.293 63.4567 151.053 63.65C150.819 63.8367 150.623 64.06 150.463 64.32C150.303 64.58 150.189 64.8667 150.123 65.18C150.043 65.4133 149.933 65.57 149.793 65.65C149.659 65.7233 149.469 65.7433 149.223 65.71L148.293 65.55C148.386 64.8967 148.566 64.32 148.833 63.82C149.106 63.3133 149.446 62.89 149.853 62.55C150.266 62.21 150.736 61.9533 151.263 61.78C151.789 61.6 152.359 61.51 152.973 61.51C153.579 61.51 154.146 61.6 154.673 61.78C155.199 61.96 155.656 62.2233 156.043 62.57C156.429 62.91 156.733 63.3267 156.953 63.82C157.173 64.3133 157.283 64.8733 157.283 65.5C157.283 66.0333 157.203 66.53 157.043 66.99C156.883 67.4433 156.666 67.8767 156.393 68.29C156.119 68.7033 155.803 69.1067 155.443 69.5C155.089 69.8933 154.713 70.29 154.313 70.69L150.533 74.55C150.799 74.4767 151.069 74.42 151.343 74.38C151.616 74.3333 151.879 74.31 152.133 74.31H156.933ZM169.664 68.84C169.664 70.0933 169.527 71.18 169.254 72.1C168.987 73.0133 168.621 73.77 168.154 74.37C167.687 74.97 167.134 75.4167 166.494 75.71C165.861 76.0033 165.181 76.15 164.454 76.15C163.721 76.15 163.037 76.0033 162.404 75.71C161.777 75.4167 161.231 74.97 160.764 74.37C160.297 73.77 159.931 73.0133 159.664 72.1C159.397 71.18 159.264 70.0933 159.264 68.84C159.264 67.5867 159.397 66.5 159.664 65.58C159.931 64.66 160.297 63.9 160.764 63.3C161.231 62.6933 161.777 62.2433 162.404 61.95C163.037 61.6567 163.721 61.51 164.454 61.51C165.181 61.51 165.861 61.6567 166.494 61.95C167.134 62.2433 167.687 62.6933 168.154 63.3C168.621 63.9 168.987 64.66 169.254 65.58C169.527 66.5 169.664 67.5867 169.664 68.84ZM167.814 68.84C167.814 67.7467 167.721 66.83 167.534 66.09C167.354 65.3433 167.107 64.7433 166.794 64.29C166.487 63.8367 166.131 63.5133 165.724 63.32C165.317 63.12 164.894 63.02 164.454 63.02C164.014 63.02 163.591 63.12 163.184 63.32C162.777 63.5133 162.421 63.8367 162.114 64.29C161.807 64.7433 161.561 65.3433 161.374 66.09C161.194 66.83 161.104 67.7467 161.104 68.84C161.104 69.9333 161.194 70.85 161.374 71.59C161.561 72.33 161.807 72.9267 162.114 73.38C162.421 73.8333 162.777 74.16 163.184 74.36C163.591 74.5533 164.014 74.65 164.454 74.65C164.894 74.65 165.317 74.5533 165.724 74.36C166.131 74.16 166.487 73.8333 166.794 73.38C167.107 72.9267 167.354 72.33 167.534 71.59C167.721 70.85 167.814 69.9333 167.814 68.84Z" fill="#242424"/>
<path d="M198.41 65.295L203 69.875L207.59 65.295L209 66.705L203 72.705L197 66.705L198.41 65.295Z" fill="#242424"/>
<path d="M396.41 65.295L401 69.875L405.59 65.295L407 66.705L401 72.705L395 66.705L396.41 65.295Z" fill="#242424"/>
<path d="M678.41 65.295L683 69.875L687.59 65.295L689 66.705L683 72.705L677 66.705L678.41 65.295Z" fill="#242424"/>
<path d="M270.802 44.922C271.189 44.922 271.523 44.8777 271.803 44.789C272.083 44.7003 272.312 44.5767 272.489 44.418C272.671 44.2547 272.804 44.0633 272.888 43.844C272.972 43.62 273.014 43.375 273.014 43.109C273.014 42.591 272.83 42.1827 272.461 41.884C272.092 41.5807 271.539 41.429 270.802 41.429H268.632V44.922H270.802ZM268.632 37.04V40.463H270.424C270.807 40.463 271.138 40.421 271.418 40.337C271.703 40.253 271.936 40.1363 272.118 39.987C272.305 39.8377 272.442 39.658 272.531 39.448C272.62 39.2333 272.664 39 272.664 38.748C272.664 38.1553 272.487 37.7237 272.132 37.453C271.777 37.1777 271.227 37.04 270.48 37.04H268.632ZM270.48 35.969C271.096 35.969 271.626 36.0297 272.069 36.151C272.517 36.2723 272.883 36.445 273.168 36.669C273.457 36.893 273.67 37.1683 273.805 37.495C273.94 37.817 274.008 38.181 274.008 38.587C274.008 38.8343 273.968 39.0723 273.889 39.301C273.814 39.525 273.7 39.735 273.546 39.931C273.392 40.127 273.196 40.3043 272.958 40.463C272.725 40.617 272.449 40.743 272.132 40.841C272.869 40.981 273.422 41.2447 273.791 41.632C274.164 42.0147 274.351 42.5187 274.351 43.144C274.351 43.5687 274.272 43.956 274.113 44.306C273.959 44.656 273.73 44.957 273.427 45.209C273.128 45.461 272.76 45.657 272.321 45.797C271.882 45.9323 271.383 46 270.823 46H267.281V35.969H270.48ZM278.61 45.09C278.862 45.09 279.079 45.0597 279.261 44.999C279.448 44.9337 279.602 44.845 279.723 44.733C279.845 44.6163 279.936 44.481 279.996 44.327C280.057 44.173 280.087 44.005 280.087 43.823C280.087 43.655 280.062 43.4987 280.01 43.354C279.959 43.2047 279.873 43.074 279.751 42.962C279.635 42.85 279.481 42.7613 279.289 42.696C279.098 42.6307 278.865 42.598 278.589 42.598H277.077V45.09H278.61ZM278.589 41.688C279.079 41.688 279.49 41.7463 279.821 41.863C280.157 41.9797 280.426 42.136 280.626 42.332C280.832 42.528 280.979 42.7543 281.067 43.011C281.156 43.2677 281.2 43.5337 281.2 43.809C281.2 44.1263 281.144 44.4203 281.032 44.691C280.92 44.957 280.755 45.188 280.535 45.384C280.316 45.5753 280.045 45.727 279.723 45.839C279.401 45.9463 279.03 46 278.61 46H275.887V38.909H277.077V41.688H278.589ZM284.007 38.909V46H282.761V38.909H284.007ZM290.737 41.681C290.737 41.3917 290.695 41.128 290.611 40.89C290.532 40.6473 290.413 40.4397 290.254 40.267C290.1 40.0897 289.911 39.9543 289.687 39.861C289.463 39.763 289.209 39.714 288.924 39.714C288.327 39.714 287.853 39.889 287.503 40.239C287.158 40.5843 286.943 41.065 286.859 41.681H290.737ZM291.745 45.006C291.591 45.1927 291.407 45.356 291.192 45.496C290.977 45.6313 290.746 45.7433 290.499 45.832C290.256 45.9207 290.004 45.986 289.743 46.028C289.482 46.0747 289.223 46.098 288.966 46.098C288.476 46.098 288.023 46.0163 287.608 45.853C287.197 45.685 286.84 45.4423 286.537 45.125C286.238 44.803 286.005 44.4063 285.837 43.935C285.669 43.4637 285.585 42.9223 285.585 42.311C285.585 41.8163 285.66 41.3543 285.809 40.925C285.963 40.4957 286.182 40.1247 286.467 39.812C286.752 39.4947 287.099 39.2473 287.51 39.07C287.921 38.888 288.383 38.797 288.896 38.797C289.321 38.797 289.713 38.8693 290.072 39.014C290.436 39.154 290.749 39.3593 291.01 39.63C291.276 39.896 291.484 40.2273 291.633 40.624C291.782 41.016 291.857 41.464 291.857 41.968C291.857 42.164 291.836 42.2947 291.794 42.36C291.752 42.4253 291.673 42.458 291.556 42.458H286.817C286.831 42.906 286.892 43.2957 286.999 43.627C287.111 43.9583 287.265 44.236 287.461 44.46C287.657 44.6793 287.89 44.845 288.161 44.957C288.432 45.0643 288.735 45.118 289.071 45.118C289.384 45.118 289.652 45.083 289.876 45.013C290.105 44.9383 290.301 44.859 290.464 44.775C290.627 44.691 290.763 44.614 290.87 44.544C290.982 44.4693 291.078 44.432 291.157 44.432C291.26 44.432 291.339 44.4717 291.395 44.551L291.745 45.006ZM292.939 39.637C293.205 39.385 293.527 39.182 293.905 39.028C294.288 38.874 294.748 38.797 295.284 38.797C295.714 38.797 296.092 38.8507 296.418 38.958C296.745 39.0607 297.018 39.1983 297.237 39.371C297.461 39.5437 297.629 39.742 297.741 39.966C297.858 40.1853 297.916 40.414 297.916 40.652C297.916 40.792 297.893 40.939 297.846 41.093C297.804 41.247 297.732 41.394 297.629 41.534C297.527 41.674 297.394 41.8047 297.23 41.926C297.067 42.0473 296.864 42.1453 296.621 42.22C297.074 42.3553 297.429 42.5723 297.685 42.871C297.947 43.1697 298.077 43.536 298.077 43.97C298.077 44.2967 298.003 44.593 297.853 44.859C297.704 45.1203 297.503 45.3443 297.251 45.531C296.999 45.713 296.705 45.853 296.369 45.951C296.038 46.049 295.69 46.098 295.326 46.098C295.098 46.098 294.864 46.077 294.626 46.035C294.393 45.993 294.164 45.9277 293.94 45.839C293.716 45.7457 293.504 45.6313 293.303 45.496C293.107 45.3607 292.932 45.1973 292.778 45.006L293.128 44.551C293.184 44.4717 293.264 44.432 293.366 44.432C293.45 44.432 293.539 44.4693 293.632 44.544C293.73 44.614 293.849 44.6933 293.989 44.782C294.129 44.8707 294.3 44.9523 294.5 45.027C294.706 45.097 294.955 45.132 295.249 45.132C295.506 45.132 295.735 45.1017 295.935 45.041C296.141 44.9757 296.313 44.887 296.453 44.775C296.593 44.663 296.701 44.53 296.775 44.376C296.85 44.222 296.887 44.054 296.887 43.872C296.887 43.522 296.74 43.2397 296.446 43.025C296.157 42.8103 295.716 42.703 295.123 42.703H294.318V41.877H295.123C295.38 41.877 295.611 41.8513 295.816 41.8C296.022 41.744 296.197 41.6693 296.341 41.576C296.486 41.4827 296.596 41.3707 296.67 41.24C296.745 41.1047 296.782 40.96 296.782 40.806C296.782 40.666 296.75 40.533 296.684 40.407C296.624 40.281 296.528 40.1713 296.397 40.078C296.271 39.9847 296.113 39.91 295.921 39.854C295.73 39.798 295.506 39.77 295.249 39.77C294.969 39.77 294.731 39.798 294.535 39.854C294.344 39.91 294.181 39.9707 294.045 40.036C293.915 40.1013 293.807 40.162 293.723 40.218C293.639 40.274 293.567 40.302 293.506 40.302C293.446 40.302 293.394 40.2903 293.352 40.267C293.315 40.2437 293.273 40.1947 293.226 40.12L292.939 39.637ZM304.508 45.09V39.889H302.261C302.214 40.617 302.149 41.261 302.065 41.821C301.981 42.381 301.883 42.8733 301.771 43.298C301.663 43.718 301.542 44.075 301.407 44.369C301.276 44.663 301.138 44.9033 300.994 45.09H304.508ZM307.014 45.055V48.058C307.014 48.1793 306.979 48.2727 306.909 48.338C306.843 48.408 306.757 48.443 306.65 48.443H305.887V46H299.923V48.086C299.923 48.1747 299.895 48.2563 299.839 48.331C299.787 48.4057 299.701 48.443 299.58 48.443H298.796V45.09H299.027C299.19 45.09 299.351 45.062 299.51 45.006C299.673 44.95 299.829 44.845 299.979 44.691C300.128 44.5323 300.268 44.3107 300.399 44.026C300.534 43.7413 300.655 43.3703 300.763 42.913C300.87 42.4557 300.963 41.9003 301.043 41.247C301.122 40.589 301.185 39.8097 301.232 38.909H305.719V45.055H307.014Z" fill="#83785A"/>
<path d="M275.87 74.31C276.063 74.31 276.217 74.3667 276.33 74.48C276.443 74.5933 276.5 74.74 276.5 74.92V76H266.94V75.39C266.94 75.2633 266.967 75.1333 267.02 75C267.073 74.8667 267.157 74.7433 267.27 74.63L271.86 70.02C272.24 69.6333 272.587 69.2633 272.9 68.91C273.213 68.55 273.48 68.19 273.7 67.83C273.92 67.47 274.09 67.1067 274.21 66.74C274.33 66.3667 274.39 65.97 274.39 65.55C274.39 65.13 274.323 64.7633 274.19 64.45C274.057 64.13 273.873 63.8667 273.64 63.66C273.413 63.4533 273.143 63.3 272.83 63.2C272.517 63.0933 272.18 63.04 271.82 63.04C271.453 63.04 271.117 63.0933 270.81 63.2C270.503 63.3067 270.23 63.4567 269.99 63.65C269.757 63.8367 269.56 64.06 269.4 64.32C269.24 64.58 269.127 64.8667 269.06 65.18C268.98 65.4133 268.87 65.57 268.73 65.65C268.597 65.7233 268.407 65.7433 268.16 65.71L267.23 65.55C267.323 64.8967 267.503 64.32 267.77 63.82C268.043 63.3133 268.383 62.89 268.79 62.55C269.203 62.21 269.673 61.9533 270.2 61.78C270.727 61.6 271.297 61.51 271.91 61.51C272.517 61.51 273.083 61.6 273.61 61.78C274.137 61.96 274.593 62.2233 274.98 62.57C275.367 62.91 275.67 63.3267 275.89 63.82C276.11 64.3133 276.22 64.8733 276.22 65.5C276.22 66.0333 276.14 66.53 275.98 66.99C275.82 67.4433 275.603 67.8767 275.33 68.29C275.057 68.7033 274.74 69.1067 274.38 69.5C274.027 69.8933 273.65 70.29 273.25 70.69L269.47 74.55C269.737 74.4767 270.007 74.42 270.28 74.38C270.553 74.3333 270.817 74.31 271.07 74.31H275.87ZM283.402 74.74C283.868 74.74 284.285 74.6767 284.652 74.55C285.025 74.4167 285.338 74.2333 285.592 74C285.852 73.76 286.048 73.4767 286.182 73.15C286.322 72.8167 286.392 72.45 286.392 72.05C286.392 71.5567 286.308 71.1367 286.142 70.79C285.982 70.4367 285.762 70.15 285.482 69.93C285.208 69.71 284.892 69.55 284.532 69.45C284.172 69.3433 283.795 69.29 283.402 69.29C283.008 69.29 282.632 69.3433 282.272 69.45C281.912 69.55 281.592 69.71 281.312 69.93C281.038 70.15 280.818 70.4367 280.652 70.79C280.492 71.1367 280.412 71.5567 280.412 72.05C280.412 72.45 280.478 72.8167 280.612 73.15C280.752 73.4767 280.948 73.76 281.202 74C281.462 74.2333 281.775 74.4167 282.142 74.55C282.515 74.6767 282.935 74.74 283.402 74.74ZM283.402 62.89C282.975 62.89 282.598 62.9533 282.272 63.08C281.952 63.2067 281.682 63.38 281.462 63.6C281.248 63.82 281.085 64.0767 280.972 64.37C280.865 64.6633 280.812 64.9767 280.812 65.31C280.812 65.6367 280.858 65.9533 280.952 66.26C281.045 66.5667 281.195 66.84 281.402 67.08C281.608 67.3133 281.875 67.5033 282.202 67.65C282.535 67.79 282.935 67.86 283.402 67.86C283.868 67.86 284.265 67.79 284.592 67.65C284.925 67.5033 285.195 67.3133 285.402 67.08C285.608 66.84 285.758 66.5667 285.852 66.26C285.945 65.9533 285.992 65.6367 285.992 65.31C285.992 64.9767 285.935 64.6633 285.822 64.37C285.715 64.0767 285.552 63.82 285.332 63.6C285.118 63.38 284.848 63.2067 284.522 63.08C284.202 62.9533 283.828 62.89 283.402 62.89ZM285.452 68.53C286.345 68.7833 287.032 69.2067 287.512 69.8C287.992 70.3933 288.232 71.1533 288.232 72.08C288.232 72.7067 288.112 73.2733 287.872 73.78C287.638 74.28 287.308 74.7067 286.882 75.06C286.462 75.4133 285.955 75.6867 285.362 75.88C284.768 76.0667 284.115 76.16 283.402 76.16C282.688 76.16 282.035 76.0667 281.442 75.88C280.848 75.6867 280.338 75.4133 279.912 75.06C279.485 74.7067 279.155 74.28 278.922 73.78C278.688 73.2733 278.572 72.7067 278.572 72.08C278.572 71.1533 278.812 70.3933 279.292 69.8C279.772 69.2067 280.458 68.7833 281.352 68.53C280.598 68.25 280.028 67.8333 279.642 67.28C279.262 66.72 279.072 66.0533 279.072 65.28C279.072 64.7533 279.175 64.26 279.382 63.8C279.588 63.34 279.882 62.94 280.262 62.6C280.642 62.26 281.095 61.9933 281.622 61.8C282.155 61.6067 282.748 61.51 283.402 61.51C284.048 61.51 284.638 61.6067 285.172 61.8C285.705 61.9933 286.162 62.26 286.542 62.6C286.922 62.94 287.215 63.34 287.422 63.8C287.628 64.26 287.732 64.7533 287.732 65.28C287.732 66.0533 287.538 66.72 287.152 67.28C286.772 67.8333 286.205 68.25 285.452 68.53ZM290.313 74.9C290.313 74.7267 290.343 74.5633 290.403 74.41C290.47 74.2567 290.556 74.1233 290.663 74.01C290.776 73.8967 290.91 73.8067 291.063 73.74C291.216 73.6733 291.38 73.64 291.553 73.64C291.726 73.64 291.89 73.6733 292.043 73.74C292.196 73.8067 292.33 73.8967 292.443 74.01C292.556 74.1233 292.646 74.2567 292.713 74.41C292.78 74.5633 292.813 74.7267 292.813 74.9C292.813 75.08 292.78 75.2467 292.713 75.4C292.646 75.5467 292.556 75.6767 292.443 75.79C292.33 75.9033 292.196 75.99 292.043 76.05C291.89 76.1167 291.726 76.15 291.553 76.15C291.38 76.15 291.216 76.1167 291.063 76.05C290.91 75.99 290.776 75.9033 290.663 75.79C290.556 75.6767 290.47 75.5467 290.403 75.4C290.343 75.2467 290.313 75.08 290.313 74.9ZM304.93 68.84C304.93 70.0933 304.793 71.18 304.52 72.1C304.253 73.0133 303.886 73.77 303.42 74.37C302.953 74.97 302.4 75.4167 301.76 75.71C301.126 76.0033 300.446 76.15 299.72 76.15C298.986 76.15 298.303 76.0033 297.67 75.71C297.043 75.4167 296.496 74.97 296.03 74.37C295.563 73.77 295.196 73.0133 294.93 72.1C294.663 71.18 294.53 70.0933 294.53 68.84C294.53 67.5867 294.663 66.5 294.93 65.58C295.196 64.66 295.563 63.9 296.03 63.3C296.496 62.6933 297.043 62.2433 297.67 61.95C298.303 61.6567 298.986 61.51 299.72 61.51C300.446 61.51 301.126 61.6567 301.76 61.95C302.4 62.2433 302.953 62.6933 303.42 63.3C303.886 63.9 304.253 64.66 304.52 65.58C304.793 66.5 304.93 67.5867 304.93 68.84ZM303.08 68.84C303.08 67.7467 302.986 66.83 302.8 66.09C302.62 65.3433 302.373 64.7433 302.06 64.29C301.753 63.8367 301.396 63.5133 300.99 63.32C300.583 63.12 300.16 63.02 299.72 63.02C299.28 63.02 298.856 63.12 298.45 63.32C298.043 63.5133 297.686 63.8367 297.38 64.29C297.073 64.7433 296.826 65.3433 296.64 66.09C296.46 66.83 296.37 67.7467 296.37 68.84C296.37 69.9333 296.46 70.85 296.64 71.59C296.826 72.33 297.073 72.9267 297.38 73.38C297.686 73.8333 298.043 74.16 298.45 74.36C298.856 74.5533 299.28 74.65 299.72 74.65C300.16 74.65 300.583 74.5533 300.99 74.36C301.396 74.16 301.753 73.8333 302.06 73.38C302.373 72.9267 302.62 72.33 302.8 71.59C302.986 70.85 303.08 69.9333 303.08 68.84ZM311.311 74.68C311.791 74.68 312.225 74.6033 312.611 74.45C313.005 74.2967 313.338 74.0833 313.611 73.81C313.891 73.5367 314.105 73.2133 314.251 72.84C314.405 72.4667 314.481 72.06 314.481 71.62C314.481 71.1533 314.408 70.7333 314.261 70.36C314.115 69.98 313.905 69.66 313.631 69.4C313.365 69.1333 313.045 68.93 312.671 68.79C312.298 68.65 311.888 68.58 311.441 68.58C310.961 68.58 310.528 68.6633 310.141 68.83C309.755 68.99 309.425 69.21 309.151 69.49C308.885 69.7633 308.678 70.0833 308.531 70.45C308.391 70.81 308.321 71.1867 308.321 71.58C308.321 72.04 308.388 72.46 308.521 72.84C308.655 73.22 308.848 73.5467 309.101 73.82C309.361 74.0933 309.675 74.3067 310.041 74.46C310.415 74.6067 310.838 74.68 311.311 74.68ZM310.271 67.04C310.145 67.2 310.021 67.3567 309.901 67.51C309.788 67.6567 309.678 67.8033 309.571 67.95C309.911 67.7167 310.285 67.5367 310.691 67.41C311.098 67.2833 311.541 67.22 312.021 67.22C312.601 67.22 313.148 67.3167 313.661 67.51C314.175 67.6967 314.621 67.9733 315.001 68.34C315.388 68.7 315.695 69.1467 315.921 69.68C316.148 70.2067 316.261 70.81 316.261 71.49C316.261 72.15 316.141 72.7633 315.901 73.33C315.661 73.8967 315.325 74.39 314.891 74.81C314.465 75.23 313.948 75.56 313.341 75.8C312.741 76.04 312.078 76.16 311.351 76.16C310.631 76.16 309.978 76.0467 309.391 75.82C308.805 75.5867 308.305 75.26 307.891 74.84C307.485 74.4133 307.168 73.9 306.941 73.3C306.721 72.6933 306.611 72.0167 306.611 71.27C306.611 70.6433 306.748 69.9767 307.021 69.27C307.301 68.5567 307.745 67.7967 308.351 66.99L311.991 62.1C312.085 61.98 312.211 61.88 312.371 61.8C312.538 61.7133 312.728 61.67 312.941 61.67H314.521L310.271 67.04ZM318.243 74.9C318.243 74.7267 318.273 74.5633 318.333 74.41C318.399 74.2567 318.486 74.1233 318.593 74.01C318.706 73.8967 318.839 73.8067 318.993 73.74C319.146 73.6733 319.309 73.64 319.483 73.64C319.656 73.64 319.819 73.6733 319.973 73.74C320.126 73.8067 320.259 73.8967 320.373 74.01C320.486 74.1233 320.576 74.2567 320.643 74.41C320.709 74.5633 320.743 74.7267 320.743 74.9C320.743 75.08 320.709 75.2467 320.643 75.4C320.576 75.5467 320.486 75.6767 320.373 75.79C320.259 75.9033 320.126 75.99 319.973 76.05C319.819 76.1167 319.656 76.15 319.483 76.15C319.309 76.15 319.146 76.1167 318.993 76.05C318.839 75.99 318.706 75.9033 318.593 75.79C318.486 75.6767 318.399 75.5467 318.333 75.4C318.273 75.2467 318.243 75.08 318.243 74.9ZM331.729 74.31C331.923 74.31 332.076 74.3667 332.189 74.48C332.303 74.5933 332.359 74.74 332.359 74.92V76H322.799V75.39C322.799 75.2633 322.826 75.1333 322.879 75C322.933 74.8667 323.016 74.7433 323.129 74.63L327.719 70.02C328.099 69.6333 328.446 69.2633 328.759 68.91C329.073 68.55 329.339 68.19 329.559 67.83C329.779 67.47 329.949 67.1067 330.069 66.74C330.189 66.3667 330.249 65.97 330.249 65.55C330.249 65.13 330.183 64.7633 330.049 64.45C329.916 64.13 329.733 63.8667 329.499 63.66C329.273 63.4533 329.003 63.3 328.689 63.2C328.376 63.0933 328.039 63.04 327.679 63.04C327.313 63.04 326.976 63.0933 326.669 63.2C326.363 63.3067 326.089 63.4567 325.849 63.65C325.616 63.8367 325.419 64.06 325.259 64.32C325.099 64.58 324.986 64.8667 324.919 65.18C324.839 65.4133 324.729 65.57 324.589 65.65C324.456 65.7233 324.266 65.7433 324.019 65.71L323.089 65.55C323.183 64.8967 323.363 64.32 323.629 63.82C323.903 63.3133 324.243 62.89 324.649 62.55C325.063 62.21 325.533 61.9533 326.059 61.78C326.586 61.6 327.156 61.51 327.769 61.51C328.376 61.51 328.943 61.6 329.469 61.78C329.996 61.96 330.453 62.2233 330.839 62.57C331.226 62.91 331.529 63.3267 331.749 63.82C331.969 64.3133 332.079 64.8733 332.079 65.5C332.079 66.0333 331.999 66.53 331.839 66.99C331.679 67.4433 331.463 67.8767 331.189 68.29C330.916 68.7033 330.599 69.1067 330.239 69.5C329.886 69.8933 329.509 70.29 329.109 70.69L325.329 74.55C325.596 74.4767 325.866 74.42 326.139 74.38C326.413 74.3333 326.676 74.31 326.929 74.31H331.729ZM344.461 68.84C344.461 70.0933 344.324 71.18 344.051 72.1C343.784 73.0133 343.418 73.77 342.951 74.37C342.484 74.97 341.931 75.4167 341.291 75.71C340.658 76.0033 339.978 76.15 339.251 76.15C338.518 76.15 337.834 76.0033 337.201 75.71C336.574 75.4167 336.028 74.97 335.561 74.37C335.094 73.77 334.728 73.0133 334.461 72.1C334.194 71.18 334.061 70.0933 334.061 68.84C334.061 67.5867 334.194 66.5 334.461 65.58C334.728 64.66 335.094 63.9 335.561 63.3C336.028 62.6933 336.574 62.2433 337.201 61.95C337.834 61.6567 338.518 61.51 339.251 61.51C339.978 61.51 340.658 61.6567 341.291 61.95C341.931 62.2433 342.484 62.6933 342.951 63.3C343.418 63.9 343.784 64.66 344.051 65.58C344.324 66.5 344.461 67.5867 344.461 68.84ZM342.611 68.84C342.611 67.7467 342.518 66.83 342.331 66.09C342.151 65.3433 341.904 64.7433 341.591 64.29C341.284 63.8367 340.928 63.5133 340.521 63.32C340.114 63.12 339.691 63.02 339.251 63.02C338.811 63.02 338.388 63.12 337.981 63.32C337.574 63.5133 337.218 63.8367 336.911 64.29C336.604 64.7433 336.358 65.3433 336.171 66.09C335.991 66.83 335.901 67.7467 335.901 68.84C335.901 69.9333 335.991 70.85 336.171 71.59C336.358 72.33 336.604 72.9267 336.911 73.38C337.218 73.8333 337.574 74.16 337.981 74.36C338.388 74.5533 338.811 74.65 339.251 74.65C339.691 74.65 340.114 74.5533 340.521 74.36C340.928 74.16 341.284 73.8333 341.591 73.38C341.904 72.9267 342.151 72.33 342.331 71.59C342.518 70.85 342.611 69.9333 342.611 68.84ZM354.933 74.31C355.126 74.31 355.279 74.3667 355.392 74.48C355.506 74.5933 355.563 74.74 355.563 74.92V76H346.003V75.39C346.003 75.2633 346.029 75.1333 346.083 75C346.136 74.8667 346.219 74.7433 346.333 74.63L350.923 70.02C351.303 69.6333 351.649 69.2633 351.963 68.91C352.276 68.55 352.543 68.19 352.763 67.83C352.983 67.47 353.153 67.1067 353.273 66.74C353.393 66.3667 353.453 65.97 353.453 65.55C353.453 65.13 353.386 64.7633 353.253 64.45C353.119 64.13 352.936 63.8667 352.703 63.66C352.476 63.4533 352.206 63.3 351.893 63.2C351.579 63.0933 351.243 63.04 350.883 63.04C350.516 63.04 350.179 63.0933 349.873 63.2C349.566 63.3067 349.293 63.4567 349.053 63.65C348.819 63.8367 348.623 64.06 348.463 64.32C348.303 64.58 348.189 64.8667 348.123 65.18C348.043 65.4133 347.933 65.57 347.793 65.65C347.659 65.7233 347.469 65.7433 347.223 65.71L346.293 65.55C346.386 64.8967 346.566 64.32 346.833 63.82C347.106 63.3133 347.446 62.89 347.853 62.55C348.266 62.21 348.736 61.9533 349.263 61.78C349.789 61.6 350.359 61.51 350.973 61.51C351.579 61.51 352.146 61.6 352.673 61.78C353.199 61.96 353.656 62.2233 354.043 62.57C354.429 62.91 354.733 63.3267 354.953 63.82C355.173 64.3133 355.283 64.8733 355.283 65.5C355.283 66.0333 355.203 66.53 355.043 66.99C354.883 67.4433 354.666 67.8767 354.393 68.29C354.119 68.7033 353.803 69.1067 353.443 69.5C353.089 69.8933 352.713 70.29 352.313 70.69L348.533 74.55C348.799 74.4767 349.069 74.42 349.343 74.38C349.616 74.3333 349.879 74.31 350.133 74.31H354.933ZM367.664 68.84C367.664 70.0933 367.527 71.18 367.254 72.1C366.987 73.0133 366.621 73.77 366.154 74.37C365.687 74.97 365.134 75.4167 364.494 75.71C363.861 76.0033 363.181 76.15 362.454 76.15C361.721 76.15 361.037 76.0033 360.404 75.71C359.777 75.4167 359.231 74.97 358.764 74.37C358.297 73.77 357.931 73.0133 357.664 72.1C357.397 71.18 357.264 70.0933 357.264 68.84C357.264 67.5867 357.397 66.5 357.664 65.58C357.931 64.66 358.297 63.9 358.764 63.3C359.231 62.6933 359.777 62.2433 360.404 61.95C361.037 61.6567 361.721 61.51 362.454 61.51C363.181 61.51 363.861 61.6567 364.494 61.95C365.134 62.2433 365.687 62.6933 366.154 63.3C366.621 63.9 366.987 64.66 367.254 65.58C367.527 66.5 367.664 67.5867 367.664 68.84ZM365.814 68.84C365.814 67.7467 365.721 66.83 365.534 66.09C365.354 65.3433 365.107 64.7433 364.794 64.29C364.487 63.8367 364.131 63.5133 363.724 63.32C363.317 63.12 362.894 63.02 362.454 63.02C362.014 63.02 361.591 63.12 361.184 63.32C360.777 63.5133 360.421 63.8367 360.114 64.29C359.807 64.7433 359.561 65.3433 359.374 66.09C359.194 66.83 359.104 67.7467 359.104 68.84C359.104 69.9333 359.194 70.85 359.374 71.59C359.561 72.33 359.807 72.9267 360.114 73.38C360.421 73.8333 360.777 74.16 361.184 74.36C361.591 74.5533 362.014 74.65 362.454 74.65C362.894 74.65 363.317 74.5533 363.724 74.36C364.131 74.16 364.487 73.8333 364.794 73.38C365.107 72.9267 365.354 72.33 365.534 71.59C365.721 70.85 365.814 69.9333 365.814 68.84Z" fill="#242424"/>
<path d="M473.386 37.04H468.703V46H467.345V35.969H473.386V37.04ZM475.154 38.797C475.672 38.797 476.138 38.8833 476.554 39.056C476.969 39.2287 477.324 39.4737 477.618 39.791C477.912 40.1083 478.136 40.4933 478.29 40.946C478.448 41.394 478.528 41.8957 478.528 42.451C478.528 43.011 478.448 43.515 478.29 43.963C478.136 44.411 477.912 44.7937 477.618 45.111C477.324 45.4283 476.969 45.6733 476.554 45.846C476.138 46.014 475.672 46.098 475.154 46.098C474.631 46.098 474.16 46.014 473.74 45.846C473.324 45.6733 472.97 45.4283 472.676 45.111C472.382 44.7937 472.155 44.411 471.997 43.963C471.843 43.515 471.766 43.011 471.766 42.451C471.766 41.8957 471.843 41.394 471.997 40.946C472.155 40.4933 472.382 40.1083 472.676 39.791C472.97 39.4737 473.324 39.2287 473.74 39.056C474.16 38.8833 474.631 38.797 475.154 38.797ZM475.154 45.125C475.854 45.125 476.376 44.8917 476.722 44.425C477.067 43.9537 477.24 43.298 477.24 42.458C477.24 41.6133 477.067 40.9553 476.722 40.484C476.376 40.0127 475.854 39.777 475.154 39.777C474.799 39.777 474.489 39.8377 474.223 39.959C473.961 40.0803 473.742 40.2553 473.565 40.484C473.392 40.7127 473.261 40.995 473.173 41.331C473.089 41.6623 473.047 42.038 473.047 42.458C473.047 43.298 473.219 43.9537 473.565 44.425C473.915 44.8917 474.444 45.125 475.154 45.125ZM485.043 40.169C485.006 40.2203 484.968 40.26 484.931 40.288C484.894 40.316 484.842 40.33 484.777 40.33C484.707 40.33 484.63 40.302 484.546 40.246C484.462 40.1853 484.357 40.12 484.231 40.05C484.11 39.98 483.958 39.917 483.776 39.861C483.599 39.8003 483.379 39.77 483.118 39.77C482.768 39.77 482.46 39.833 482.194 39.959C481.928 40.0803 481.704 40.2577 481.522 40.491C481.345 40.7243 481.209 41.0067 481.116 41.338C481.027 41.6693 480.983 42.0403 480.983 42.451C480.983 42.8803 481.032 43.263 481.13 43.599C481.228 43.9303 481.366 44.2103 481.543 44.439C481.725 44.663 481.942 44.8357 482.194 44.957C482.451 45.0737 482.738 45.132 483.055 45.132C483.358 45.132 483.608 45.097 483.804 45.027C484 44.9523 484.161 44.8707 484.287 44.782C484.418 44.6933 484.525 44.614 484.609 44.544C484.698 44.4693 484.784 44.432 484.868 44.432C484.971 44.432 485.05 44.4717 485.106 44.551L485.456 45.006C485.302 45.1973 485.127 45.3607 484.931 45.496C484.735 45.6313 484.523 45.7457 484.294 45.839C484.07 45.9277 483.834 45.993 483.587 46.035C483.34 46.077 483.088 46.098 482.831 46.098C482.388 46.098 481.975 46.0163 481.592 45.853C481.214 45.6897 480.885 45.454 480.605 45.146C480.325 44.8333 480.106 44.4507 479.947 43.998C479.788 43.5453 479.709 43.0297 479.709 42.451C479.709 41.9237 479.781 41.436 479.926 40.988C480.075 40.54 480.29 40.155 480.57 39.833C480.855 39.5063 481.202 39.252 481.613 39.07C482.028 38.888 482.504 38.797 483.041 38.797C483.54 38.797 483.979 38.8787 484.357 39.042C484.74 39.2007 485.078 39.427 485.372 39.721L485.043 40.169ZM492.688 39.861H489.965V46H488.719V39.861H485.996V38.909H492.688V39.861ZM499.959 38.909V46H498.713V41.184C498.713 41.0907 498.717 40.9903 498.727 40.883C498.736 40.7757 498.748 40.6683 498.762 40.561C498.72 40.6543 498.678 40.7407 498.636 40.82C498.594 40.8993 498.549 40.9717 498.503 41.037L495.08 45.692C495.028 45.7667 494.963 45.839 494.884 45.909C494.809 45.9743 494.725 46.007 494.632 46.007H493.876V38.916H495.129V43.732C495.129 43.8207 495.124 43.9187 495.115 44.026C495.105 44.1287 495.094 44.2337 495.08 44.341C495.122 44.2523 495.164 44.1707 495.206 44.096C495.248 44.0167 495.29 43.9443 495.332 43.879L498.755 39.224C498.806 39.1493 498.871 39.0793 498.951 39.014C499.03 38.944 499.116 38.909 499.21 38.909H499.959Z" fill="#83785A"/>
<path d="M474.18 74.64V76H466.5V74.64H469.57V64.87C469.57 64.5767 469.58 64.28 469.6 63.98L467.05 66.17C466.963 66.2433 466.877 66.29 466.79 66.31C466.703 66.3233 466.623 66.3233 466.55 66.31C466.477 66.2967 466.407 66.27 466.34 66.23C466.28 66.19 466.233 66.1467 466.2 66.1L465.64 65.33L469.91 61.64H471.36V74.64H474.18ZM486.019 74.75C486.685 74.75 487.212 74.5967 487.599 74.29C487.985 73.9767 488.179 73.55 488.179 73.01C488.179 72.77 488.142 72.5533 488.069 72.36C487.995 72.16 487.875 71.9867 487.709 71.84C487.542 71.6933 487.319 71.58 487.039 71.5C486.765 71.42 486.429 71.38 486.029 71.38H483.839V74.75H486.019ZM483.839 67.07V70.25H485.789C486.082 70.25 486.352 70.21 486.599 70.13C486.852 70.0433 487.069 69.9267 487.249 69.78C487.429 69.6267 487.569 69.4467 487.669 69.24C487.769 69.0267 487.819 68.7933 487.819 68.54C487.819 68.3533 487.785 68.1733 487.719 68C487.652 67.82 487.539 67.6633 487.379 67.53C487.219 67.39 487.009 67.28 486.749 67.2C486.489 67.1133 486.169 67.07 485.789 67.07H483.839ZM485.839 65.87C486.465 65.87 487.002 65.9333 487.449 66.06C487.895 66.1867 488.262 66.36 488.549 66.58C488.835 66.7933 489.045 67.0467 489.179 67.34C489.312 67.6333 489.379 67.9467 489.379 68.28C489.379 68.5 489.349 68.73 489.289 68.97C489.229 69.21 489.122 69.44 488.969 69.66C488.822 69.88 488.619 70.08 488.359 70.26C488.105 70.4333 487.785 70.57 487.399 70.67C488.172 70.8033 488.769 71.0733 489.189 71.48C489.609 71.88 489.819 72.41 489.819 73.07C489.819 73.5633 489.719 73.9933 489.519 74.36C489.325 74.72 489.055 75.0233 488.709 75.27C488.369 75.5167 487.969 75.7 487.509 75.82C487.049 75.94 486.555 76 486.029 76H482.129V65.87H485.839ZM491.411 66.91C491.791 66.55 492.251 66.26 492.791 66.04C493.337 65.82 493.994 65.71 494.761 65.71C495.374 65.71 495.914 65.7867 496.381 65.94C496.847 66.0867 497.237 66.2833 497.551 66.53C497.871 66.7767 498.111 67.06 498.271 67.38C498.437 67.6933 498.521 68.02 498.521 68.36C498.521 68.56 498.487 68.77 498.421 68.99C498.361 69.21 498.257 69.42 498.111 69.62C497.964 69.82 497.774 70.0067 497.541 70.18C497.307 70.3533 497.017 70.4933 496.671 70.6C497.317 70.7933 497.824 71.1033 498.191 71.53C498.564 71.9567 498.751 72.48 498.751 73.1C498.751 73.5667 498.644 73.99 498.431 74.37C498.217 74.7433 497.931 75.0633 497.571 75.33C497.211 75.59 496.791 75.79 496.311 75.93C495.837 76.07 495.341 76.14 494.821 76.14C494.494 76.14 494.161 76.11 493.821 76.05C493.487 75.99 493.161 75.8967 492.841 75.77C492.521 75.6367 492.217 75.4733 491.931 75.28C491.651 75.0867 491.401 74.8533 491.181 74.58L491.681 73.93C491.761 73.8167 491.874 73.76 492.021 73.76C492.141 73.76 492.267 73.8133 492.401 73.92C492.541 74.02 492.711 74.1333 492.911 74.26C493.111 74.3867 493.354 74.5033 493.641 74.61C493.934 74.71 494.291 74.76 494.711 74.76C495.077 74.76 495.404 74.7167 495.691 74.63C495.984 74.5367 496.231 74.41 496.431 74.25C496.631 74.09 496.784 73.9 496.891 73.68C496.997 73.46 497.051 73.22 497.051 72.96C497.051 72.46 496.841 72.0567 496.421 71.75C496.007 71.4433 495.377 71.29 494.531 71.29H493.381V70.11H494.531C494.897 70.11 495.227 70.0733 495.521 70C495.814 69.92 496.064 69.8133 496.271 69.68C496.477 69.5467 496.634 69.3867 496.741 69.2C496.847 69.0067 496.901 68.8 496.901 68.58C496.901 68.38 496.854 68.19 496.761 68.01C496.674 67.83 496.537 67.6733 496.351 67.54C496.171 67.4067 495.944 67.3 495.671 67.22C495.397 67.14 495.077 67.1 494.711 67.1C494.311 67.1 493.971 67.14 493.691 67.22C493.417 67.3 493.184 67.3867 492.991 67.48C492.804 67.5733 492.651 67.66 492.531 67.74C492.411 67.82 492.307 67.86 492.221 67.86C492.134 67.86 492.061 67.8433 492.001 67.81C491.947 67.7767 491.887 67.7067 491.821 67.6L491.411 66.91ZM502.825 73.56C503.152 74 503.508 74.31 503.895 74.49C504.282 74.67 504.715 74.76 505.195 74.76C506.142 74.76 506.868 74.4233 507.375 73.75C507.882 73.0767 508.135 72.1167 508.135 70.87C508.135 70.21 508.075 69.6433 507.955 69.17C507.842 68.6967 507.675 68.31 507.455 68.01C507.235 67.7033 506.965 67.48 506.645 67.34C506.325 67.2 505.962 67.13 505.555 67.13C504.975 67.13 504.465 67.2633 504.025 67.53C503.592 67.7967 503.192 68.1733 502.825 68.66V73.56ZM502.735 67.44C503.162 66.9133 503.655 66.49 504.215 66.17C504.775 65.85 505.415 65.69 506.135 65.69C506.722 65.69 507.252 65.8033 507.725 66.03C508.198 66.25 508.602 66.58 508.935 67.02C509.268 67.4533 509.525 67.9933 509.705 68.64C509.885 69.2867 509.975 70.03 509.975 70.87C509.975 71.6167 509.875 72.3133 509.675 72.96C509.475 73.6 509.185 74.1567 508.805 74.63C508.432 75.0967 507.972 75.4667 507.425 75.74C506.885 76.0067 506.275 76.14 505.595 76.14C504.975 76.14 504.442 76.0367 503.995 75.83C503.555 75.6167 503.165 75.3233 502.825 74.95V79.43H501.035V65.87H502.105C502.358 65.87 502.515 65.9933 502.575 66.24L502.735 67.44ZM516.496 65.71C517.236 65.71 517.903 65.8333 518.496 66.08C519.09 66.3267 519.596 66.6767 520.016 67.13C520.436 67.5833 520.756 68.1333 520.976 68.78C521.203 69.42 521.316 70.1367 521.316 70.93C521.316 71.73 521.203 72.45 520.976 73.09C520.756 73.73 520.436 74.2767 520.016 74.73C519.596 75.1833 519.09 75.5333 518.496 75.78C517.903 76.02 517.236 76.14 516.496 76.14C515.75 76.14 515.076 76.02 514.476 75.78C513.883 75.5333 513.376 75.1833 512.956 74.73C512.536 74.2767 512.213 73.73 511.986 73.09C511.766 72.45 511.656 71.73 511.656 70.93C511.656 70.1367 511.766 69.42 511.986 68.78C512.213 68.1333 512.536 67.5833 512.956 67.13C513.376 66.6767 513.883 66.3267 514.476 66.08C515.076 65.8333 515.75 65.71 516.496 65.71ZM516.496 74.75C517.496 74.75 518.243 74.4167 518.736 73.75C519.23 73.0767 519.476 72.14 519.476 70.94C519.476 69.7333 519.23 68.7933 518.736 68.12C518.243 67.4467 517.496 67.11 516.496 67.11C515.99 67.11 515.546 67.1967 515.166 67.37C514.793 67.5433 514.48 67.7933 514.226 68.12C513.98 68.4467 513.793 68.85 513.666 69.33C513.546 69.8033 513.486 70.34 513.486 70.94C513.486 72.14 513.733 73.0767 514.226 73.75C514.726 74.4167 515.483 74.75 516.496 74.75ZM530.624 67.67C530.571 67.7433 530.517 67.8 530.464 67.84C530.411 67.88 530.337 67.9 530.244 67.9C530.144 67.9 530.034 67.86 529.914 67.78C529.794 67.6933 529.644 67.6 529.464 67.5C529.291 67.4 529.074 67.31 528.814 67.23C528.561 67.1433 528.247 67.1 527.874 67.1C527.374 67.1 526.934 67.19 526.554 67.37C526.174 67.5433 525.854 67.7967 525.594 68.13C525.341 68.4633 525.147 68.8667 525.014 69.34C524.887 69.8133 524.824 70.3433 524.824 70.93C524.824 71.5433 524.894 72.09 525.034 72.57C525.174 73.0433 525.371 73.4433 525.624 73.77C525.884 74.09 526.194 74.3367 526.554 74.51C526.921 74.6767 527.331 74.76 527.784 74.76C528.217 74.76 528.574 74.71 528.854 74.61C529.134 74.5033 529.364 74.3867 529.544 74.26C529.731 74.1333 529.884 74.02 530.004 73.92C530.131 73.8133 530.254 73.76 530.374 73.76C530.521 73.76 530.634 73.8167 530.714 73.93L531.214 74.58C530.994 74.8533 530.744 75.0867 530.464 75.28C530.184 75.4733 529.881 75.6367 529.554 75.77C529.234 75.8967 528.897 75.99 528.544 76.05C528.191 76.11 527.831 76.14 527.464 76.14C526.831 76.14 526.241 76.0233 525.694 75.79C525.154 75.5567 524.684 75.22 524.284 74.78C523.884 74.3333 523.571 73.7867 523.344 73.14C523.117 72.4933 523.004 71.7567 523.004 70.93C523.004 70.1767 523.107 69.48 523.314 68.84C523.527 68.2 523.834 67.65 524.234 67.19C524.641 66.7233 525.137 66.36 525.724 66.1C526.317 65.84 526.997 65.71 527.764 65.71C528.477 65.71 529.104 65.8267 529.644 66.06C530.191 66.2867 530.674 66.61 531.094 67.03L530.624 67.67ZM542.005 76H540.225V67.27H537.025C536.945 68.5567 536.825 69.67 536.665 70.61C536.505 71.5433 536.312 72.34 536.085 73C535.865 73.6533 535.615 74.1867 535.335 74.6C535.062 75.0067 534.772 75.3233 534.465 75.55C534.165 75.7767 533.852 75.93 533.525 76.01C533.205 76.09 532.885 76.13 532.565 76.13C531.998 76.13 531.715 76.04 531.715 75.86V74.73H532.235C532.462 74.73 532.692 74.69 532.925 74.61C533.158 74.53 533.385 74.3767 533.605 74.15C533.832 73.9233 534.048 73.6067 534.255 73.2C534.462 72.7867 534.648 72.2533 534.815 71.6C534.988 70.94 535.135 70.1433 535.255 69.21C535.382 68.27 535.478 67.1567 535.545 65.87H542.005V76ZM548.714 74.7C549.074 74.7 549.384 74.6567 549.644 74.57C549.911 74.4767 550.131 74.35 550.304 74.19C550.477 74.0233 550.607 73.83 550.694 73.61C550.781 73.39 550.824 73.15 550.824 72.89C550.824 72.65 550.787 72.4267 550.714 72.22C550.641 72.0067 550.517 71.82 550.344 71.66C550.177 71.5 549.957 71.3733 549.684 71.28C549.411 71.1867 549.077 71.14 548.684 71.14H546.524V74.7H548.714ZM548.684 69.84C549.384 69.84 549.971 69.9233 550.444 70.09C550.924 70.2567 551.307 70.48 551.594 70.76C551.887 71.04 552.097 71.3633 552.224 71.73C552.351 72.0967 552.414 72.4767 552.414 72.87C552.414 73.3233 552.334 73.7433 552.174 74.13C552.014 74.51 551.777 74.84 551.464 75.12C551.151 75.3933 550.764 75.61 550.304 75.77C549.844 75.9233 549.314 76 548.714 76H544.824V65.87H546.524V69.84H548.684ZM556.424 65.87V76H554.644V65.87H556.424ZM567.948 65.87V76H566.168V69.12C566.168 68.9867 566.174 68.8433 566.188 68.69C566.201 68.5367 566.218 68.3833 566.238 68.23C566.178 68.3633 566.118 68.4867 566.058 68.6C565.998 68.7133 565.934 68.8167 565.868 68.91L560.978 75.56C560.904 75.6667 560.811 75.77 560.698 75.87C560.591 75.9633 560.471 76.01 560.338 76.01H559.258V65.88H561.048V72.76C561.048 72.8867 561.041 73.0267 561.028 73.18C561.014 73.3267 560.998 73.4767 560.978 73.63C561.038 73.5033 561.098 73.3867 561.158 73.28C561.218 73.1667 561.278 73.0633 561.338 72.97L566.228 66.32C566.301 66.2133 566.394 66.1133 566.508 66.02C566.621 65.92 566.744 65.87 566.878 65.87H567.948ZM563.718 63.42C563.991 63.42 564.221 63.39 564.408 63.33C564.594 63.2633 564.744 63.16 564.858 63.02C564.978 62.88 565.064 62.7 565.118 62.48C565.171 62.26 565.198 61.99 565.198 61.67H566.238C566.364 61.67 566.461 61.7267 566.528 61.84C566.594 61.9533 566.628 62.0767 566.628 62.21C566.628 62.5433 566.561 62.8433 566.428 63.11C566.294 63.3767 566.101 63.6067 565.848 63.8C565.601 63.9867 565.298 64.13 564.938 64.23C564.578 64.33 564.171 64.38 563.718 64.38C563.264 64.38 562.858 64.33 562.498 64.23C562.138 64.13 561.831 63.9867 561.578 63.8C561.331 63.6067 561.141 63.3767 561.008 63.11C560.874 62.8433 560.808 62.5433 560.808 62.21C560.808 62.0767 560.841 61.9533 560.908 61.84C560.974 61.7267 561.071 61.67 561.198 61.67H562.238C562.238 61.99 562.264 62.26 562.318 62.48C562.371 62.7 562.454 62.88 562.568 63.02C562.688 63.16 562.841 63.2633 563.028 63.33C563.214 63.39 563.444 63.42 563.718 63.42ZM570.652 78.42C570.598 78.3733 570.562 78.33 570.542 78.29C570.522 78.25 570.512 78.2 570.512 78.14C570.512 78.0933 570.525 78.0467 570.552 78C570.585 77.9533 570.622 77.91 570.662 77.87C570.728 77.7967 570.812 77.7 570.912 77.58C571.018 77.46 571.125 77.3167 571.232 77.15C571.338 76.99 571.435 76.81 571.522 76.61C571.615 76.4167 571.682 76.21 571.722 75.99C571.702 75.9967 571.678 76 571.652 76C571.632 76 571.612 76 571.592 76C571.245 76 570.962 75.8867 570.742 75.66C570.528 75.4267 570.422 75.13 570.422 74.77C570.422 74.4567 570.528 74.19 570.742 73.97C570.962 73.75 571.252 73.64 571.612 73.64C571.812 73.64 571.988 73.6767 572.142 73.75C572.295 73.8233 572.422 73.9267 572.522 74.06C572.628 74.1867 572.708 74.3367 572.762 74.51C572.815 74.6767 572.842 74.86 572.842 75.06C572.842 75.36 572.798 75.6733 572.712 76C572.632 76.32 572.508 76.6367 572.342 76.95C572.182 77.27 571.985 77.58 571.752 77.88C571.518 78.18 571.252 78.4567 570.952 78.71L570.652 78.42ZM590 68.84C590 70.0933 589.863 71.18 589.59 72.1C589.323 73.0133 588.957 73.77 588.49 74.37C588.023 74.97 587.47 75.4167 586.83 75.71C586.197 76.0033 585.517 76.15 584.79 76.15C584.057 76.15 583.373 76.0033 582.74 75.71C582.113 75.4167 581.567 74.97 581.1 74.37C580.633 73.77 580.267 73.0133 580 72.1C579.733 71.18 579.6 70.0933 579.6 68.84C579.6 67.5867 579.733 66.5 580 65.58C580.267 64.66 580.633 63.9 581.1 63.3C581.567 62.6933 582.113 62.2433 582.74 61.95C583.373 61.6567 584.057 61.51 584.79 61.51C585.517 61.51 586.197 61.6567 586.83 61.95C587.47 62.2433 588.023 62.6933 588.49 63.3C588.957 63.9 589.323 64.66 589.59 65.58C589.863 66.5 590 67.5867 590 68.84ZM588.15 68.84C588.15 67.7467 588.057 66.83 587.87 66.09C587.69 65.3433 587.443 64.7433 587.13 64.29C586.823 63.8367 586.467 63.5133 586.06 63.32C585.653 63.12 585.23 63.02 584.79 63.02C584.35 63.02 583.927 63.12 583.52 63.32C583.113 63.5133 582.757 63.8367 582.45 64.29C582.143 64.7433 581.897 65.3433 581.71 66.09C581.53 66.83 581.44 67.7467 581.44 68.84C581.44 69.9333 581.53 70.85 581.71 71.59C581.897 72.33 582.143 72.9267 582.45 73.38C582.757 73.8333 583.113 74.16 583.52 74.36C583.927 74.5533 584.35 74.65 584.79 74.65C585.23 74.65 585.653 74.5533 586.06 74.36C586.467 74.16 586.823 73.8333 587.13 73.38C587.443 72.9267 587.69 72.33 587.87 71.59C588.057 70.85 588.15 69.9333 588.15 68.84ZM604.109 74.7V67.27H600.899C600.832 68.31 600.739 69.23 600.619 70.03C600.499 70.83 600.359 71.5333 600.199 72.14C600.045 72.74 599.872 73.25 599.679 73.67C599.492 74.09 599.295 74.4333 599.089 74.7H604.109ZM607.689 74.65V78.94C607.689 79.1133 607.639 79.2467 607.539 79.34C607.445 79.44 607.322 79.49 607.169 79.49H606.079V76H597.559V78.98C597.559 79.1067 597.519 79.2233 597.439 79.33C597.365 79.4367 597.242 79.49 597.069 79.49H595.949V74.7H596.279C596.512 74.7 596.742 74.66 596.969 74.58C597.202 74.5 597.425 74.35 597.639 74.13C597.852 73.9033 598.052 73.5867 598.239 73.18C598.432 72.7733 598.605 72.2433 598.759 71.59C598.912 70.9367 599.045 70.1433 599.159 69.21C599.272 68.27 599.362 67.1567 599.429 65.87H605.839V74.65H607.689ZM616.096 69.83C616.096 69.4167 616.036 69.04 615.916 68.7C615.803 68.3533 615.633 68.0567 615.406 67.81C615.186 67.5567 614.916 67.3633 614.596 67.23C614.276 67.09 613.913 67.02 613.506 67.02C612.653 67.02 611.976 67.27 611.476 67.77C610.983 68.2633 610.676 68.95 610.556 69.83H616.096ZM617.536 74.58C617.316 74.8467 617.053 75.08 616.746 75.28C616.44 75.4733 616.11 75.6333 615.756 75.76C615.41 75.8867 615.05 75.98 614.676 76.04C614.303 76.1067 613.933 76.14 613.566 76.14C612.866 76.14 612.22 76.0233 611.626 75.79C611.04 75.55 610.53 75.2033 610.096 74.75C609.67 74.29 609.336 73.7233 609.096 73.05C608.856 72.3767 608.736 71.6033 608.736 70.73C608.736 70.0233 608.843 69.3633 609.056 68.75C609.276 68.1367 609.59 67.6067 609.996 67.16C610.403 66.7067 610.9 66.3533 611.486 66.1C612.073 65.84 612.733 65.71 613.466 65.71C614.073 65.71 614.633 65.8133 615.146 66.02C615.666 66.22 616.113 66.5133 616.486 66.9C616.866 67.28 617.163 67.7533 617.376 68.32C617.59 68.88 617.696 69.52 617.696 70.24C617.696 70.52 617.666 70.7067 617.606 70.8C617.546 70.8933 617.433 70.94 617.266 70.94H610.496C610.516 71.58 610.603 72.1367 610.756 72.61C610.916 73.0833 611.136 73.48 611.416 73.8C611.696 74.1133 612.03 74.35 612.416 74.51C612.803 74.6633 613.236 74.74 613.716 74.74C614.163 74.74 614.546 74.69 614.866 74.59C615.193 74.4833 615.473 74.37 615.706 74.25C615.94 74.13 616.133 74.02 616.286 73.92C616.446 73.8133 616.583 73.76 616.696 73.76C616.843 73.76 616.956 73.8167 617.036 73.93L617.536 74.58ZM628.146 67.23H624.256V76H622.476V67.23H618.586V65.87H628.146V67.23ZM636.213 69.83C636.213 69.4167 636.153 69.04 636.033 68.7C635.92 68.3533 635.75 68.0567 635.523 67.81C635.303 67.5567 635.033 67.3633 634.713 67.23C634.393 67.09 634.03 67.02 633.623 67.02C632.77 67.02 632.093 67.27 631.593 67.77C631.1 68.2633 630.793 68.95 630.673 69.83H636.213ZM637.653 74.58C637.433 74.8467 637.17 75.08 636.863 75.28C636.557 75.4733 636.227 75.6333 635.873 75.76C635.527 75.8867 635.167 75.98 634.793 76.04C634.42 76.1067 634.05 76.14 633.683 76.14C632.983 76.14 632.337 76.0233 631.743 75.79C631.157 75.55 630.647 75.2033 630.213 74.75C629.787 74.29 629.453 73.7233 629.213 73.05C628.973 72.3767 628.853 71.6033 628.853 70.73C628.853 70.0233 628.96 69.3633 629.173 68.75C629.393 68.1367 629.707 67.6067 630.113 67.16C630.52 66.7067 631.017 66.3533 631.603 66.1C632.19 65.84 632.85 65.71 633.583 65.71C634.19 65.71 634.75 65.8133 635.263 66.02C635.783 66.22 636.23 66.5133 636.603 66.9C636.983 67.28 637.28 67.7533 637.493 68.32C637.707 68.88 637.813 69.52 637.813 70.24C637.813 70.52 637.783 70.7067 637.723 70.8C637.663 70.8933 637.55 70.94 637.383 70.94H630.613C630.633 71.58 630.72 72.1367 630.873 72.61C631.033 73.0833 631.253 73.48 631.533 73.8C631.813 74.1133 632.147 74.35 632.533 74.51C632.92 74.6633 633.353 74.74 633.833 74.74C634.28 74.74 634.663 74.69 634.983 74.59C635.31 74.4833 635.59 74.37 635.823 74.25C636.057 74.13 636.25 74.02 636.403 73.92C636.563 73.8133 636.7 73.76 636.813 73.76C636.96 73.76 637.073 73.8167 637.153 73.93L637.653 74.58ZM648.69 65.87V76H646.91V69.12C646.91 68.9867 646.917 68.8433 646.93 68.69C646.943 68.5367 646.96 68.3833 646.98 68.23C646.92 68.3633 646.86 68.4867 646.8 68.6C646.74 68.7133 646.677 68.8167 646.61 68.91L641.72 75.56C641.647 75.6667 641.553 75.77 641.44 75.87C641.333 75.9633 641.213 76.01 641.08 76.01H640V65.88H641.79V72.76C641.79 72.8867 641.783 73.0267 641.77 73.18C641.757 73.3267 641.74 73.4767 641.72 73.63C641.78 73.5033 641.84 73.3867 641.9 73.28C641.96 73.1667 642.02 73.0633 642.08 72.97L646.97 66.32C647.043 66.2133 647.137 66.1133 647.25 66.02C647.363 65.92 647.487 65.87 647.62 65.87H648.69ZM644.46 63.42C644.733 63.42 644.963 63.39 645.15 63.33C645.337 63.2633 645.487 63.16 645.6 63.02C645.72 62.88 645.807 62.7 645.86 62.48C645.913 62.26 645.94 61.99 645.94 61.67H646.98C647.107 61.67 647.203 61.7267 647.27 61.84C647.337 61.9533 647.37 62.0767 647.37 62.21C647.37 62.5433 647.303 62.8433 647.17 63.11C647.037 63.3767 646.843 63.6067 646.59 63.8C646.343 63.9867 646.04 64.13 645.68 64.23C645.32 64.33 644.913 64.38 644.46 64.38C644.007 64.38 643.6 64.33 643.24 64.23C642.88 64.13 642.573 63.9867 642.32 63.8C642.073 63.6067 641.883 63.3767 641.75 63.11C641.617 62.8433 641.55 62.5433 641.55 62.21C641.55 62.0767 641.583 61.9533 641.65 61.84C641.717 61.7267 641.813 61.67 641.94 61.67H642.98C642.98 61.99 643.007 62.26 643.06 62.48C643.113 62.7 643.197 62.88 643.31 63.02C643.43 63.16 643.583 63.2633 643.77 63.33C643.957 63.39 644.187 63.42 644.46 63.42Z" fill="#242424"/>
<path d="M795.383 56.2525L791.018 65.5975C790.883 65.8925 790.735 66.1375 790.575 66.3325C790.42 66.5225 790.253 66.675 790.073 66.79C789.893 66.9 789.698 66.9775 789.488 67.0225C789.278 67.0725 789.053 67.0975 788.813 67.0975C788.543 67.0975 788.335 67.0725 788.19 67.0225C788.045 66.9775 787.973 66.9075 787.973 66.8125V65.89H788.498C788.623 65.89 788.748 65.8775 788.873 65.8525C788.998 65.8225 789.118 65.7725 789.233 65.7025C789.348 65.6325 789.458 65.54 789.563 65.425C789.668 65.305 789.763 65.155 789.848 64.975L790.373 63.88L786.053 56.2525H787.41C787.54 56.2525 787.643 56.285 787.718 56.35C787.793 56.41 787.858 56.49 787.913 56.59L790.568 61.465C790.753 61.82 790.903 62.18 791.018 62.545C791.073 62.365 791.133 62.185 791.198 62.005C791.268 61.825 791.345 61.645 791.43 61.465L793.688 56.59C793.728 56.505 793.788 56.4275 793.868 56.3575C793.953 56.2875 794.058 56.2525 794.183 56.2525H795.383ZM795.993 57.2575C796.398 56.8975 796.868 56.6225 797.403 56.4325C797.938 56.2425 798.546 56.1475 799.226 56.1475C799.781 56.1475 800.278 56.215 800.718 56.35C801.163 56.485 801.541 56.675 801.851 56.92C802.161 57.165 802.398 57.455 802.563 57.79C802.733 58.125 802.818 58.4925 802.818 58.8925C802.818 59.4325 802.683 59.9075 802.413 60.3175C802.148 60.7275 801.773 61.045 801.288 61.27C801.563 61.385 801.813 61.5275 802.038 61.6975C802.263 61.8625 802.456 62.05 802.616 62.26C802.781 62.47 802.906 62.7 802.991 62.95C803.081 63.2 803.126 63.4625 803.126 63.7375C803.126 64.2075 803.038 64.6475 802.863 65.0575C802.688 65.4675 802.433 65.825 802.098 66.13C801.768 66.43 801.361 66.6675 800.876 66.8425C800.391 67.0175 799.838 67.105 799.218 67.105C798.448 67.105 797.756 66.98 797.141 66.73C796.526 66.475 795.998 66.1325 795.558 65.7025L795.978 65.0125C796.018 64.9575 796.068 64.9125 796.128 64.8775C796.188 64.8375 796.253 64.8175 796.323 64.8175C796.428 64.8175 796.553 64.875 796.698 64.99C796.843 65.1 797.028 65.2225 797.253 65.3575C797.478 65.4925 797.751 65.6175 798.071 65.7325C798.396 65.8425 798.791 65.8975 799.256 65.8975C799.651 65.8975 800.003 65.85 800.313 65.755C800.628 65.66 800.891 65.5225 801.101 65.3425C801.316 65.1625 801.478 64.9425 801.588 64.6825C801.703 64.4225 801.761 64.13 801.761 63.805C801.761 63.525 801.706 63.2675 801.596 63.0325C801.491 62.7975 801.336 62.5975 801.131 62.4325C800.926 62.2625 800.676 62.1325 800.381 62.0425C800.086 61.9475 799.753 61.9 799.383 61.9H797.913V60.7075H799.323C799.628 60.7075 799.911 60.67 800.171 60.595C800.436 60.52 800.661 60.41 800.846 60.265C801.036 60.12 801.183 59.9425 801.288 59.7325C801.398 59.5225 801.453 59.2825 801.453 59.0125C801.453 58.7675 801.403 58.5425 801.303 58.3375C801.203 58.1325 801.058 57.9575 800.868 57.8125C800.678 57.6625 800.446 57.5475 800.171 57.4675C799.896 57.3875 799.583 57.3475 799.233 57.3475C798.828 57.3475 798.483 57.39 798.198 57.475C797.913 57.56 797.673 57.655 797.478 57.76C797.283 57.86 797.123 57.9525 796.998 58.0375C796.878 58.1225 796.773 58.165 796.683 58.165C796.603 58.165 796.538 58.1475 796.488 58.1125C796.438 58.0775 796.391 58.02 796.346 57.94L795.993 57.2575ZM813.951 56.2525V67H812.496V62.11H806.699V67H805.244V56.2525H806.699V61.045H812.496V56.2525H813.951ZM822.391 63.01L820.704 58.6375C820.654 58.5075 820.601 58.3575 820.546 58.1875C820.491 58.0125 820.439 57.8275 820.389 57.6325C820.284 58.0375 820.176 58.375 820.066 58.645L818.379 63.01H822.391ZM825.421 67H824.296C824.166 67 824.061 66.9675 823.981 66.9025C823.901 66.8375 823.841 66.755 823.801 66.655L822.796 64.06H817.974L816.969 66.655C816.939 66.745 816.881 66.825 816.796 66.895C816.711 66.965 816.604 67 816.474 67H815.356L819.654 56.2525H821.124L825.421 67ZM833.048 57.475H829.568V67H828.121V57.475H824.633V56.2525H833.048V57.475ZM838.176 65.845C838.591 65.845 838.946 65.7975 839.241 65.7025C839.541 65.6075 839.783 65.4775 839.968 65.3125C840.158 65.1425 840.296 64.94 840.381 64.705C840.471 64.465 840.516 64.2025 840.516 63.9175C840.516 63.6175 840.471 63.3525 840.381 63.1225C840.296 62.8875 840.158 62.69 839.968 62.53C839.783 62.365 839.543 62.2425 839.248 62.1625C838.953 62.0775 838.598 62.035 838.183 62.035H836.091V65.845H838.176ZM838.183 60.88C838.838 60.88 839.403 60.9525 839.878 61.0975C840.353 61.2375 840.743 61.4375 841.048 61.6975C841.358 61.9525 841.586 62.2575 841.731 62.6125C841.881 62.9675 841.956 63.355 841.956 63.775C841.956 64.27 841.871 64.7175 841.701 65.1175C841.536 65.5125 841.291 65.85 840.966 66.13C840.646 66.41 840.251 66.625 839.781 66.775C839.311 66.925 838.776 67 838.176 67H834.643V56.2525H836.091V60.88H838.183ZM857.537 65.86V69.1825C857.537 69.3125 857.492 69.4175 857.402 69.4975C857.317 69.5775 857.207 69.6175 857.072 69.6175H856.202V67H847.607V56.2525H849.062V65.86H854.432V56.2525H855.894V65.86H857.537ZM865.941 65.815L865.933 67H859.311V56.2525H865.933V57.4375H860.766V61.0075H864.951V62.1475H860.766V65.815H865.941ZM876.676 56.2525V67H875.221V62.11H869.423V67H867.968V56.2525H869.423V61.045H875.221V56.2525H876.676ZM887.433 56.2525L883.068 65.5975C882.933 65.8925 882.786 66.1375 882.626 66.3325C882.471 66.5225 882.303 66.675 882.123 66.79C881.943 66.9 881.748 66.9775 881.538 67.0225C881.328 67.0725 881.103 67.0975 880.863 67.0975C880.593 67.0975 880.386 67.0725 880.241 67.0225C880.096 66.9775 880.023 66.9075 880.023 66.8125V65.89H880.548C880.673 65.89 880.798 65.8775 880.923 65.8525C881.048 65.8225 881.168 65.7725 881.283 65.7025C881.398 65.6325 881.508 65.54 881.613 65.425C881.718 65.305 881.813 65.155 881.898 64.975L882.423 63.88L878.103 56.2525H879.461C879.591 56.2525 879.693 56.285 879.768 56.35C879.843 56.41 879.908 56.49 879.963 56.59L882.618 61.465C882.803 61.82 882.953 62.18 883.068 62.545C883.123 62.365 883.183 62.185 883.248 62.005C883.318 61.825 883.396 61.645 883.481 61.465L885.738 56.59C885.778 56.505 885.838 56.4275 885.918 56.3575C886.003 56.2875 886.108 56.2525 886.233 56.2525H887.433Z" fill="white"/>
<defs>
<filter id="filter0_d" x="0" y="0" width="960" height="186" filterUnits="userSpaceOnUse" color-interpolation-filters="sRGB">
<feFlood flood-opacity="0" result="BackgroundImageFix"/>
<feColorMatrix in="SourceAlpha" type="matrix" values="0 0 0 0 0 0 0 0 0 0 0 0 0 0 0 0 0 0 127 0"/>
<feOffset dy="32"/>
<feGaussianBlur stdDeviation="24"/>
<feColorMatrix type="matrix" values="0 0 0 0 0.12549 0 0 0 0 0.180392 0 0 0 0 0.305882 0 0 0 0.1 0"/>
<feBlend mode="normal" in2="BackgroundImageFix" result="effect1_dropShadow"/>
<feBlend mode="normal" in="SourceGraphic" in2="effect1_dropShadow" result="shape"/>
</filter>
<filter id="filter1_d" x="225" y="20" width="41" height="90" filterUnits="userSpaceOnUse" color-interpolation-filters="sRGB">
<feFlood flood-opacity="0" result="BackgroundImageFix"/>
<feColorMatrix in="SourceAlpha" type="matrix" values="0 0 0 0 0 0 0 0 0 0 0 0 0 0 0 0 0 0 127 0"/>
<feOffset dy="4"/>
<feGaussianBlur stdDeviation="10"/>
<feColorMatrix type="matrix" values="0 0 0 0 0 0 0 0 0 0 0 0 0 0 0 0 0 0 0.05 0"/>
<feBlend mode="normal" in2="BackgroundImageFix" result="effect1_dropShadow"/>
<feBlend mode="normal" in="SourceGraphic" in2="effect1_dropShadow" result="shape"/>
</filter>
<filter id="filter2_d" x="423" y="20" width="41" height="90" filterUnits="userSpaceOnUse" color-interpolation-filters="sRGB">
<feFlood flood-opacity="0" result="BackgroundImageFix"/>
<feColorMatrix in="SourceAlpha" type="matrix" values="0 0 0 0 0 0 0 0 0 0 0 0 0 0 0 0 0 0 127 0"/>
<feOffset dy="4"/>
<feGaussianBlur stdDeviation="10"/>
<feColorMatrix type="matrix" values="0 0 0 0 0 0 0 0 0 0 0 0 0 0 0 0 0 0 0.05 0"/>
<feBlend mode="normal" in2="BackgroundImageFix" result="effect1_dropShadow"/>
<feBlend mode="normal" in="SourceGraphic" in2="effect1_dropShadow" result="shape"/>
</filter>
</defs>
</svg>
