<svg width="41" height="36" viewBox="0 0 41 36" fill="none" xmlns="http://www.w3.org/2000/svg">
<path fill-rule="evenodd" clip-rule="evenodd" d="M11.7355 21.0937H15.2028C15.5178 21.0937 15.8199 20.9703 16.0426 20.7505L24.071 12.8292L25.3524 14.0935C25.8154 14.5503 25.8154 15.2935 25.3524 15.7503L20.3918 20.6447L20.3806 20.6557L20.3695 20.6668L15.8361 25.1397L11.7355 21.0937ZM27.0321 17.4075L22.9001 21.4844L24.951 23.5079C25.4494 23.2629 26.0111 23.125 26.6048 23.125C28.2417 23.125 29.6352 24.1732 30.132 25.625H33.0184V21.6406C33.0184 19.7021 34.6168 18.125 36.5815 18.125H39.3528C40.0088 18.125 40.5405 18.6497 40.5405 19.2969V34.2969C40.5405 34.9442 40.0088 35.4688 39.3528 35.4688H36.5815C34.6168 35.4688 33.0184 33.8917 33.0184 31.9531V27.9688H30.132C29.6352 29.4206 28.2418 30.4688 26.6048 30.4688C24.5527 30.4688 22.8833 28.8216 22.8833 26.7969C22.8833 26.2111 23.023 25.657 23.2713 25.1651L21.2205 23.1417L16.676 27.6255C16.4439 27.8544 16.1399 27.9688 15.836 27.9688C15.5321 27.9688 15.2281 27.8544 14.9963 27.6255L13.9356 26.5791L10.9747 29.5005C10.752 29.7203 10.4499 29.8438 10.1349 29.8438C9.81996 29.8438 9.51789 29.7203 9.29515 29.5005L4.86102 25.1255C4.39718 24.6679 4.39718 23.9259 4.86102 23.4682L7.26757 21.0937H1.18773C0.706863 21.0937 0.273506 20.8077 0.0899649 20.3692C-0.0935763 19.9308 0.00896287 19.4263 0.349678 19.0916L19.4323 0.341534C19.8963 -0.114482 20.6471 -0.113779 21.1102 0.343253L28.0781 7.21826C28.5419 7.67592 28.5419 8.41787 28.0781 8.87553L25.7507 11.1719L27.0321 12.4362C28.4212 13.8068 28.4212 16.0369 27.0321 17.4075ZM27.9507 26.7814C27.9507 26.7866 27.9506 26.7917 27.9506 26.7969C27.9506 26.802 27.9507 26.8072 27.9507 26.8123C27.9423 27.5376 27.3418 28.125 26.6048 28.125C25.8625 28.125 25.2587 27.5292 25.2587 26.7969C25.2587 26.0645 25.8625 25.4688 26.6048 25.4688C27.3419 25.4688 27.9423 26.0562 27.9507 26.7814ZM23.232 10.3424L25.5586 8.04686L20.2686 2.8274L4.06358 18.75H14.7108L23.2304 10.344L23.2311 10.3432L23.232 10.3424ZM36.5815 20.4688C35.9266 20.4688 35.3938 20.9945 35.3938 21.6406V31.9531C35.3938 32.5993 35.9266 33.125 36.5815 33.125H38.1651V20.4688H36.5815ZM7.38048 24.2969L10.1349 27.0146L12.2559 24.922L9.50142 22.2042L7.38048 24.2969Z" fill="#A18F57"/>
</svg>
