<svg width="21" height="20" viewBox="0 0 21 20" fill="none" xmlns="http://www.w3.org/2000/svg">
<path fill-rule="evenodd" clip-rule="evenodd" d="M13.2985 8.79804V1.65956H7.32939V8.79807C8.78616 8.68967 9.97511 8.68086 10.3141 8.68086C10.653 8.68086 11.8418 8.68967 13.2985 8.79804ZM5.57379 8.97111V0.851056C5.57379 0.382975 5.9688 0 6.45159 0H14.1324C14.6152 0 15.0102 0.382975 15.0102 0.851056V8.9656C17.7429 9.30433 20.6282 10.0445 20.6282 11.6597C20.6282 12.6283 19.5904 13.2823 18.1702 13.7236V19.149C18.1702 19.6171 17.7752 20.0001 17.2924 20.0001C16.8097 20.0001 16.4147 19.6171 16.4147 19.149V14.1416C15.5864 14.2922 14.7234 14.3974 13.9136 14.4706V17.4467C13.9136 17.9148 13.5186 18.2977 13.0359 18.2977C12.5531 18.2977 12.1581 17.9148 12.1581 17.4467V14.5905C11.2465 14.6339 10.5588 14.6385 10.3141 14.6385C10.0694 14.6385 9.3818 14.6339 8.47029 14.5905V17.4467C8.4264 17.9148 8.0314 18.2977 7.59251 18.2977C7.10973 18.2977 6.71473 17.9148 6.71473 17.4467V14.4707C5.90493 14.3974 5.04179 14.2923 4.21346 14.1416V19.149C4.16957 19.6171 3.81846 20.0001 3.33568 20.0001C2.85291 20.0001 2.45791 19.6171 2.45791 19.149V13.7236C1.03771 13.2823 0 12.6283 0 11.6597C0 10.0532 2.85423 9.31234 5.57379 8.97111ZM10.3141 12.9788C5.39844 12.9788 2.50172 12.1703 1.84337 11.6597C2.50172 11.149 5.44233 10.3405 10.3141 10.3405C15.1859 10.3405 18.0826 11.149 18.7848 11.6597C18.1265 12.1703 15.2297 12.9788 10.3141 12.9788Z" fill="#958866"/>
</svg>
