<svg width="17" height="17" viewBox="0 0 17 17" fill="none" xmlns="http://www.w3.org/2000/svg">
<path d="M12.2979 0H4.69208C2.09988 0 0 2.09988 0 4.69208V12.3079C0 14.8901 2.09988 17 4.69208 17H12.3079C14.8901 17 17 14.9001 17 12.3079V4.69208C16.99 2.09988 14.88 0 12.2979 0ZM15.4829 12.2979C15.4829 14.0561 14.0561 15.4829 12.2979 15.4829H4.69208C2.93381 15.4829 1.50709 14.0561 1.50709 12.2979V4.69208C1.50709 2.93381 2.93381 1.50709 4.69208 1.50709H12.3079C14.0662 1.50709 15.4929 2.93381 15.4929 4.69208L15.4829 12.2979Z" fill="white"/>
<path d="M8.48922 3.77783C5.88983 3.77783 3.77783 5.89226 3.77783 8.49463C3.77783 11.097 5.88983 13.2223 8.50005 13.2223C11.1103 13.2223 13.2223 11.1078 13.2223 8.49463C13.2114 5.89226 11.0994 3.77783 8.48922 3.77783ZM8.48922 11.5958C6.78879 11.5958 5.39162 10.2079 5.39162 8.49463C5.40245 6.79225 6.78879 5.40431 8.48922 5.40431C10.1897 5.40431 11.5868 6.79225 11.5868 8.50548C11.5868 10.2079 10.2005 11.5958 8.48922 11.5958Z" fill="white"/>
<path d="M13.2223 2.8335C12.9733 2.8335 12.7329 2.93653 12.5526 3.10824C12.3723 3.27996 12.2778 3.52895 12.2778 3.77794C12.2778 4.02693 12.3809 4.26733 12.5526 4.44764C12.7243 4.61935 12.9733 4.72238 13.2223 4.72238C13.4713 4.72238 13.7117 4.61935 13.892 4.44764C14.0723 4.27592 14.1667 4.02693 14.1667 3.77794C14.1667 3.52895 14.0637 3.28855 13.892 3.10824C13.7203 2.92794 13.4713 2.8335 13.2223 2.8335Z" fill="white"/>
</svg>
