<svg width="185" height="22" viewBox="0 0 185 22" fill="none" xmlns="http://www.w3.org/2000/svg">
<path d="M0.37 0.419999H10.39C12.45 0.419999 14.03 0.989999 15.13 2.13C16.23 3.27 16.78 4.79 16.78 6.69C16.78 8.63 16.2 10.19 15.04 11.37C13.9 12.53 12.35 13.11 10.39 13.11H3.22V21H0.37V0.419999ZM10.24 10.62C11.36 10.62 12.25 10.27 12.91 9.57C13.57 8.87 13.9 7.92 13.9 6.72C13.9 5.5 13.59 4.56 12.97 3.9C12.35 3.24 11.44 2.91 10.24 2.91H3.22V10.62H10.24ZM23.9732 0.419999H27.6032L35.5832 21H32.5532L30.4832 15.51H20.9432L18.9332 21H15.9932L23.9732 0.419999ZM29.5532 13.02L27.1532 6.6L25.7732 2.88H25.6232L24.2732 6.54L21.8732 13.02H29.5532ZM38.163 0.419999H48.873C50.933 0.419999 52.513 0.949999 53.613 2.01C54.713 3.07 55.263 4.49 55.263 6.27C55.263 7.67 54.923 8.88 54.243 9.9C53.583 10.92 52.663 11.65 51.483 12.09L56.223 21H53.043L48.573 12.51H41.013V21H38.163V0.419999ZM48.723 10.02C49.843 10.02 50.733 9.69 51.393 9.03C52.053 8.37 52.383 7.46 52.383 6.3C52.383 5.22 52.073 4.39 51.453 3.81C50.833 3.21 49.923 2.91 48.723 2.91H41.013V10.02H48.723ZM59.8134 0.419999H62.6634V11.76L73.5534 0.419999H77.0934L69.2634 8.64L77.3634 21H73.9734L67.2834 10.68L62.6634 15V21H59.8134V0.419999ZM88.1727 0.419999H91.0227V9.24H102.243V0.419999H105.093V21H102.243V11.73H91.0227V21H88.1727V0.419999ZM119.123 21.36C115.863 21.36 113.333 20.47 111.533 18.69C109.753 16.89 108.863 14.23 108.863 10.71C108.863 7.19 109.753 4.54 111.533 2.76C113.333 0.959999 115.863 0.0599996 119.123 0.0599996C122.403 0.0599996 124.933 0.959999 126.713 2.76C128.513 4.54 129.413 7.19 129.413 10.71C129.413 14.21 128.513 16.86 126.713 18.66C124.933 20.46 122.403 21.36 119.123 21.36ZM119.123 18.93C121.503 18.93 123.323 18.29 124.583 17.01C125.843 15.71 126.473 13.65 126.473 10.83V10.71C126.453 7.85 125.813 5.77 124.553 4.47C123.293 3.15 121.483 2.49 119.123 2.49C116.783 2.49 114.983 3.15 113.723 4.47C112.463 5.77 111.823 7.85 111.803 10.71V10.83C111.803 13.65 112.433 15.71 113.693 17.01C114.953 18.29 116.763 18.93 119.123 18.93ZM138.543 2.91H131.463V0.419999H148.473V2.91H141.393V21H138.543V2.91ZM151.513 0.419999H167.353V2.91H154.363V9.24H166.033V11.73H154.363V18.51H167.533V21H151.513V0.419999ZM171.522 0.419999H174.372V18.51H184.932V21H171.522V0.419999Z" fill="white"/>
</svg>
