<svg width="40" height="38" viewBox="0 0 40 38" fill="none" xmlns="http://www.w3.org/2000/svg">
<path fill-rule="evenodd" clip-rule="evenodd" d="M25 4.21876L24.9979 4.21875C22.6019 4.21975 20.5885 5.88857 20.0584 8.12501H29.9417C29.4113 5.8879 27.397 4.21875 25 4.21876ZM26.1719 1.17188V1.96741C29.3841 2.47908 31.916 5.05923 32.3545 8.29497C33.8413 8.7648 34.9221 10.1572 34.9221 11.7972C34.9221 12.2652 34.8341 12.713 34.6737 13.125H38.8283C39.4755 13.125 40.0002 13.6497 40.0002 14.2969V22.9485C40.0002 23.6538 39.7935 24.3369 39.4022 24.9238L38.9199 25.6471C38.5472 26.2062 38.0274 26.6398 37.4221 26.9113V30.192C38.8739 30.6822 39.922 32.0571 39.922 33.6722C39.922 35.6969 38.2749 37.3441 36.2502 37.3441C34.2255 37.3441 32.5783 35.6969 32.5783 33.6722C32.5783 33.204 32.6664 32.7561 32.8268 32.344H17.1735C17.334 32.7561 17.422 33.204 17.422 33.6722C17.422 35.6969 15.7749 37.3441 13.7502 37.3441C11.7255 37.3441 10.0783 35.6969 10.0783 33.6722C10.0783 32.0571 11.1265 30.6822 12.5783 30.192V26.8825C12.0099 26.6098 11.5185 26.1871 11.1585 25.6471L10.6763 24.9238C10.285 24.3367 10.0783 23.6537 10.0783 22.9485V14.6519L3.12282 4.21875H1.17188C0.524688 4.21875 0 3.69406 0 3.04688C0 2.39969 0.524688 1.875 1.17188 1.875H3.75C4.1418 1.875 4.50774 2.07078 4.72508 2.39688L11.8772 13.125H15.3266C15.1663 12.713 15.0783 12.2652 15.0783 11.7972C15.0783 10.1573 16.1589 8.76502 17.6455 8.29508C18.084 5.05929 20.6158 2.47909 23.8281 1.96741V1.17188C23.8281 0.524688 24.3528 0 25 0C25.6472 0 26.1719 0.524688 26.1719 1.17188ZM18.7502 15.4691C18.7336 15.4691 18.717 15.469 18.7004 15.4688H12.422V22.9485C12.422 23.1896 12.4927 23.4231 12.6265 23.6239L13.1086 24.347C13.3867 24.7642 13.7869 24.862 14.0007 24.8831C14.3656 24.9195 14.7232 24.7915 14.982 24.5327C15.6546 23.8601 16.5488 23.4896 17.5 23.4896C18.4512 23.4896 19.3455 23.86 20.018 24.5327L20.3893 24.904C20.8638 25.3785 21.6362 25.3784 22.1107 24.904L22.4821 24.5327C23.1764 23.8385 24.0882 23.4913 25.0002 23.4913C25.9121 23.4913 26.8239 23.8384 27.5181 24.5326L27.8894 24.9039C28.3639 25.3785 29.1363 25.3783 29.6108 24.9039L29.9821 24.5326C31.3705 23.1442 33.6296 23.1442 35.0181 24.5326C35.2707 24.7851 35.6292 24.9122 36.0065 24.8857C36.0628 24.8738 36.1207 24.8659 36.1797 24.8624C36.5091 24.7966 36.7923 24.6134 36.9698 24.347L37.4521 23.6237C37.5857 23.4231 37.6564 23.1895 37.6564 22.9484V15.4688H31.2999C31.2834 15.469 31.2668 15.4691 31.2502 15.4691H18.7502ZM18.7203 13.125H31.2801C31.9987 13.109 32.5783 12.5196 32.5783 11.7972C32.5783 11.0649 31.9825 10.4691 31.2502 10.4691H18.7502C18.0178 10.4691 17.422 11.0649 17.422 11.7972C17.422 12.5196 18.0017 13.109 18.7203 13.125ZM26.2322 26.5612C26.9047 27.2338 27.7989 27.6042 28.7501 27.6042C29.7014 27.6042 30.5956 27.2338 31.268 26.5613L31.6393 26.1899C31.8693 25.9599 32.1747 25.8335 32.4994 25.8335H32.5008C32.8258 25.8337 33.1313 25.9604 33.3608 26.1899C33.8368 26.6659 34.4315 26.9903 35.0783 27.1396V30.0002H14.922V27.1426C15.5648 26.9949 16.16 26.6693 16.6395 26.1899C16.8694 25.96 17.175 25.8334 17.5002 25.8334C17.8253 25.8334 18.131 25.96 18.3609 26.1899L18.7322 26.5612C20.1206 27.9496 22.3797 27.9496 23.7682 26.5612L24.1395 26.1899C24.614 25.7153 25.3864 25.7154 25.8609 26.1899L26.2322 26.5612ZM13.7502 32.3441C13.0178 32.3441 12.422 32.9399 12.422 33.6722C12.422 34.4045 13.0178 35.0003 13.7502 35.0003C14.4825 35.0003 15.0783 34.4045 15.0783 33.6722C15.0783 32.9399 14.4825 32.3441 13.7502 32.3441ZM34.922 33.6722C34.922 32.9399 35.5178 32.3441 36.2502 32.3441C36.9825 32.3441 37.5783 32.9399 37.5783 33.6722C37.5783 34.4045 36.9825 35.0003 36.2502 35.0003C35.5178 35.0003 34.922 34.4045 34.922 33.6722Z" fill="#A18F57"/>
</svg>
