<svg width="33" height="40" viewBox="0 0 33 40" fill="none" xmlns="http://www.w3.org/2000/svg">
<path fill-rule="evenodd" clip-rule="evenodd" d="M19.8732 5.1286C19.6764 5.1286 19.4769 5.08031 19.293 4.97852C18.7209 4.6618 18.5175 3.9475 18.8385 3.38312L20.4221 0.598668C20.7431 0.0342145 21.4669 -0.166645 22.0392 0.150152C22.6113 0.466871 22.8147 1.18117 22.4937 1.74554L20.9101 4.53C20.6922 4.91297 20.2887 5.1286 19.8732 5.1286ZM16.3904 15.5469L16.3831 15.5469C10.3227 15.5506 5.34562 20.2116 4.93642 26.0913C6.35454 26.5808 10.0257 27.5781 16.3904 27.5781C22.7516 27.5781 26.4221 26.5818 27.8443 26.091C27.4351 20.2112 22.4581 15.5506 16.3976 15.5469L16.3904 15.5469ZM17.5781 10.5469V13.2529C24.6648 13.8492 30.247 19.731 30.247 26.8749C30.247 27.3188 29.9928 27.7246 29.5904 27.9231C29.4644 27.9852 27.1196 29.1123 22.0124 29.6459V32.5781H27.5911C28.9494 32.5781 30.1706 33.3228 30.7781 34.5216L30.7825 34.5302L32.6597 38.3127C32.8399 38.6759 32.8177 39.1052 32.6007 39.4482C32.3838 39.7915 32.0028 40 31.593 40H1.18772C0.777881 40 0.396944 39.7915 0.17999 39.4482C-0.0369643 39.1051 -0.0592142 38.6759 0.121 38.3127L1.99821 34.5302L2.00256 34.5216C2.58644 33.3694 3.73725 32.6366 5.03193 32.5815C5.06178 32.5793 5.09202 32.5781 5.12251 32.5781H10.7687V29.646C5.66131 29.1123 3.31641 27.9852 3.19042 27.9231C2.78802 27.7246 2.53385 27.3188 2.53385 26.8749C2.53385 19.731 8.116 13.8493 15.2026 13.2529V10.5469H13.8565C13.2006 10.5469 12.6688 10.0222 12.6688 9.375C12.6688 8.72781 13.2006 8.20312 13.8565 8.20312H16.3904H18.9241C19.58 8.20312 20.1118 8.72781 20.1118 9.375C20.1118 10.0222 19.58 10.5469 18.9241 10.5469H17.5781ZM19.637 32.5781H13.1441V29.8344C14.1441 29.89 15.2253 29.9218 16.3904 29.9218C17.5556 29.9218 18.6369 29.89 19.637 29.8344V32.5781ZM11.9421 34.9219H5.18957C4.73809 34.9219 4.33213 35.1687 4.12903 35.5662L3.09169 37.6562H29.6889L28.6515 35.5662C28.4485 35.1687 28.0425 34.9219 27.591 34.9219H20.8391L20.8247 34.9219H11.9564L11.9421 34.9219ZM23.9917 10.5469H27.159C27.8149 10.5469 28.3467 10.0222 28.3467 9.375C28.3467 8.72781 27.8149 8.20312 27.159 8.20312H23.9917C23.3358 8.20312 22.804 8.72781 22.804 9.375C22.804 10.0222 23.3358 10.5469 23.9917 10.5469ZM8.78903 10.5469H5.62179C4.96586 10.5469 4.43408 10.0222 4.43408 9.375C4.43408 8.72781 4.96586 8.20312 5.62179 8.20312H8.78903C9.44496 8.20312 9.97674 8.72781 9.97674 9.375C9.97674 10.0222 9.44496 10.5469 8.78903 10.5469ZM11.8707 4.53002C12.0885 4.91306 12.4919 5.12861 12.9076 5.12861C13.1044 5.12861 13.3039 5.08025 13.4876 4.97853C14.0597 4.66189 14.2632 3.94752 13.9422 3.38314L12.3586 0.598685C12.0377 0.0341528 11.3137 -0.166629 10.7417 0.150169C10.1696 0.466809 9.96608 1.18119 10.2871 1.74556L11.8707 4.53002Z" fill="#A18F57"/>
</svg>
