<svg width="46" height="10" viewBox="0 0 46 10" fill="none" xmlns="http://www.w3.org/2000/svg">
<path d="M5 0L6.32252 3.17971L9.75528 3.45492L7.13988 5.69529L7.93893 9.04508L5 7.25L2.06107 9.04508L2.86012 5.69529L0.244718 3.45492L3.67748 3.17971L5 0Z" fill="#83785A"/>
<path d="M29 0L30.3225 3.17971L33.7553 3.45492L31.1399 5.69529L31.9389 9.04508L29 7.25L26.0611 9.04508L26.8601 5.69529L24.2447 3.45492L27.6775 3.17971L29 0Z" fill="#83785A"/>
<path d="M17 0L18.3225 3.17971L21.7553 3.45492L19.1399 5.69529L19.9389 9.04508L17 7.25L14.0611 9.04508L14.8601 5.69529L12.2447 3.45492L15.6775 3.17971L17 0Z" fill="#83785A"/>
<path d="M41 0L42.3225 3.17971L45.7553 3.45492L43.1399 5.69529L43.9389 9.04508L41 7.25L38.0611 9.04508L38.8601 5.69529L36.2447 3.45492L39.6775 3.17971L41 0Z" fill="#83785A"/>
</svg>
