<svg width="20" height="20" viewBox="0 0 20 20" fill="none" xmlns="http://www.w3.org/2000/svg">
<path d="M14.9947 6.00373V5.00133C14.9947 2.24473 12.7505 0 9.99467 0C7.23881 0 4.99467 2.24473 4.99467 5.00133V6.00373H0V8.0032H1.00213V20H3.00107V8.0032H5H8.00107V18.0005H16.9989V20H18.9979V8.0032H20V6.00373H14.9947ZM6.99893 6.00373V5.00133C6.99893 3.34844 8.34222 1.99947 10 1.99947C11.6525 1.99947 13.0011 3.34311 13.0011 5.00133V6.00373H6.99893ZM16.9936 16.0011H9.99467V12.9992H16.9936V16.0011ZM16.9936 11.0051H9.99467V8.0032H14.9947H16.9936V11.0051Z" fill="#958866"/>
</svg>
