<svg width="246" height="64" viewBox="0 0 246 64" fill="none" xmlns="http://www.w3.org/2000/svg">
<path fill-rule="evenodd" clip-rule="evenodd" d="M47.605 59.3057C47.6489 60.2631 47.5817 61.2222 47.4048 62.1642C47.2154 62.6303 46.8951 63.0319 46.4825 63.3209C46.0699 63.6098 45.5825 63.7738 45.0788 63.7932C44.0589 63.941 43.0279 63.9976 41.998 63.9623C39.3639 63.9623 37.7311 63.6549 37.1149 63.0248C36.4801 61.8948 36.2313 60.5893 36.4063 59.3057C36.3614 58.3535 36.4286 57.3992 36.6066 56.4626C36.7945 55.993 37.1136 55.587 37.5258 55.2928C37.9381 54.9986 38.4263 54.8285 38.9326 54.8029C39.9517 54.648 40.9829 54.5863 42.0134 54.6184C44.6474 54.6184 46.2803 54.9412 46.8964 55.5713C47.5283 56.7079 47.7767 58.0173 47.605 59.3057ZM46.0646 59.3057C46.1019 58.475 45.9763 57.645 45.6949 56.8622C45.5876 56.6481 45.4258 56.4659 45.2258 56.3338C45.0257 56.2016 44.7945 56.1242 44.555 56.1091H42.0134C41.177 56.0655 40.3389 56.0655 39.5025 56.1091C39.2585 56.122 39.0221 56.1982 38.8168 56.3303C38.6114 56.4624 38.4442 56.6458 38.3318 56.8622C37.9417 58.4264 37.9417 60.0621 38.3318 61.6263C38.445 61.8408 38.6128 62.0219 38.8183 62.1514C39.0237 62.2809 39.2597 62.3542 39.5025 62.364H42.0134H44.5396C44.7798 62.3515 45.0126 62.277 45.2151 62.1477C45.4177 62.0183 45.583 61.8387 45.6949 61.6263C45.9284 60.8759 46.0275 60.0904 45.9876 59.3057H46.0646ZM139.213 59.3057C139.248 60.2629 139.181 61.2212 139.012 62.1642C138.82 62.6281 138.499 63.0277 138.087 63.3162C137.675 63.6047 137.189 63.7701 136.686 63.7932C135.666 63.94 134.635 63.9965 133.606 63.9623C130.971 63.9623 129.339 63.6549 128.723 63.0248C128.1 61.8903 127.852 60.5889 128.014 59.3057C127.977 58.3536 128.044 57.4003 128.214 56.4626C128.404 55.994 128.723 55.589 129.135 55.2951C129.547 55.0011 130.034 54.8304 130.54 54.8029C131.559 54.648 132.591 54.5863 133.621 54.6184C136.27 54.6184 137.888 54.9412 138.519 55.5713C139.145 56.7101 139.393 58.0175 139.228 59.3057H139.213ZM137.595 59.3057C137.647 58.4803 137.547 57.6523 137.303 56.8622C137.193 56.6469 137.028 56.4642 136.825 56.3321C136.623 56.1999 136.389 56.1231 136.147 56.1091H133.606C132.769 56.0658 131.931 56.0658 131.095 56.1091C130.852 56.12 130.617 56.1955 130.414 56.328C130.211 56.4605 130.047 56.645 129.939 56.8622C129.549 58.4264 129.549 60.0621 129.939 61.6263C130.048 61.8417 130.212 62.0239 130.415 62.1538C130.619 62.2836 130.853 62.3563 131.095 62.364H133.606H136.132C136.373 62.3563 136.608 62.2836 136.811 62.1538C137.015 62.0239 137.179 61.8417 137.287 61.6263C137.528 60.8775 137.627 60.0907 137.58 59.3057H137.595ZM217.126 59.3057C217.162 60.263 217.095 61.2212 216.926 62.1642C216.736 62.6303 216.416 63.0319 216.004 63.3209C215.591 63.6099 215.104 63.7739 214.6 63.7932C213.58 63.9405 212.549 63.997 211.519 63.9623C208.87 63.9623 207.252 63.6549 206.621 63.0248C206.003 61.8886 205.761 60.5873 205.927 59.3057C205.888 58.3542 205.95 57.4012 206.112 56.4626C206.302 55.9941 206.621 55.5891 207.033 55.2951C207.445 55.0012 207.933 54.8304 208.438 54.8029C209.458 54.6494 210.489 54.5877 211.519 54.6185C214.153 54.6185 215.786 54.9412 216.402 55.5713C217.028 56.7102 217.276 58.0175 217.111 59.3057H217.126ZM215.478 59.3057C215.529 58.4965 215.435 57.6847 215.201 56.9083C215.091 56.6931 214.926 56.5103 214.724 56.3782C214.521 56.2461 214.287 56.1692 214.045 56.1553H211.519C210.678 56.1118 209.834 56.1118 208.993 56.1553C208.75 56.1661 208.515 56.2417 208.312 56.3741C208.109 56.5066 207.945 56.6911 207.838 56.9083C207.447 58.4725 207.447 60.1082 207.838 61.6724C207.946 61.8878 208.11 62.0701 208.313 62.1999C208.517 62.3298 208.752 62.4024 208.993 62.4101H211.519H214.03C214.271 62.4024 214.506 62.3298 214.709 62.1999C214.913 62.0701 215.077 61.8878 215.185 61.6724C215.437 60.9101 215.542 60.107 215.493 59.3057H215.478ZM239.662 60.2431L245.084 54.726H242.897L238.846 58.8754L234.795 54.726H232.592L238.029 60.2431V63.8393H239.662V60.2431ZM229.141 63.8393H230.682L230.759 61.488C230.789 61.1728 230.721 60.856 230.564 60.5809C230.406 60.3058 230.168 60.0859 229.881 59.9512C230.466 59.6746 230.759 58.9215 230.759 57.7074C230.796 56.9707 230.59 56.2421 230.173 55.6327C229.956 55.34 229.669 55.1054 229.338 54.9499C229.008 54.7944 228.644 54.7227 228.279 54.7414H220.222V63.7778H221.84V60.5966H227.878C228.167 60.5974 228.452 60.6659 228.71 60.7964C228.837 60.8586 228.945 60.9547 229.021 61.074C229.097 61.1933 229.139 61.3312 229.141 61.4726V63.8393ZM228.833 56.5548C229.066 56.8865 229.175 57.2888 229.141 57.6921L229.064 57.7074C229.125 58.1 229.049 58.5014 228.849 58.8447C228.539 59.0879 228.147 59.2034 227.755 59.1674H221.84V56.2167H227.755C227.948 56.1981 228.143 56.2184 228.328 56.2765C228.514 56.3346 228.685 56.4292 228.833 56.5548ZM199.72 56.232H203.648V54.726H194.143V56.232H198.071V63.8393H199.72V56.232ZM191.864 60.4737C191.939 61.3583 191.723 62.2434 191.247 62.9941C191.031 63.2523 190.763 63.4633 190.461 63.614C190.159 63.7647 189.829 63.8519 189.491 63.87C188.59 63.9516 187.685 63.9824 186.78 63.9622C185.747 64.0023 184.712 63.9145 183.7 63.701C183.362 63.6146 183.049 63.4537 182.782 63.2303C182.516 63.0068 182.303 62.7265 182.159 62.4101C181.817 61.423 181.671 60.3792 181.728 59.3364C181.671 58.2937 181.817 57.2498 182.159 56.2628C182.296 55.9402 182.506 55.6541 182.774 55.4272C183.041 55.2004 183.358 55.0392 183.7 54.9565C184.741 54.7298 185.808 54.6368 186.873 54.6799C187.777 54.6598 188.683 54.6906 189.584 54.7721C190.262 54.8226 190.893 55.1373 191.34 55.6481C191.815 56.3987 192.032 57.2838 191.956 58.1684H190.339C190.38 57.6215 190.227 57.0775 189.907 56.6316C189.57 56.3406 189.136 56.1869 188.69 56.2013H186.873C186.091 56.1726 185.307 56.2085 184.531 56.3089C184.307 56.3437 184.096 56.4376 183.92 56.5807C183.744 56.7239 183.609 56.9112 183.53 57.1234C183.371 57.8706 183.309 58.635 183.345 59.3979C183.304 60.1617 183.371 60.9275 183.545 61.6724C183.62 61.8833 183.752 62.0695 183.926 62.2105C184.1 62.3515 184.309 62.4418 184.531 62.4715C185.309 62.5561 186.091 62.5869 186.873 62.5637C187.85 62.6392 188.833 62.5562 189.784 62.3179C190.154 62.1334 190.339 61.5341 190.339 60.5659L191.864 60.4737ZM176.583 63.8393H178.231V54.7413H176.583V63.8393ZM173.933 54.726L168.942 63.8393H167.186L162.242 54.726H163.936L168.08 62.3639L172.162 54.726H173.933ZM144.049 56.232H150.904V54.726H142.401V63.8393H144.049V60.1509H150.658V58.6602H144.049V56.232ZM114.859 63.8393H116.692L111.824 54.7413H109.591L104.785 63.8393H106.633L107.665 61.8875H113.827L114.859 63.8393ZM110.885 56.1091L113.118 60.4122H108.497L110.731 56.1091H110.885ZM102.551 63.8393H94.1713V54.726H95.8196V62.3332H102.551V63.8393ZM90.3974 63.4551C90.9057 63.1477 91.1522 62.3793 91.1522 61.1345L91.0752 54.7413H89.5348V61.1345C89.5559 61.3677 89.509 61.6021 89.3997 61.8093C89.2903 62.0165 89.1233 62.1878 88.9186 62.3025C88.4852 62.4825 88.0163 62.5614 87.5476 62.533H84.6055C84.1308 62.5551 83.6571 62.4711 83.2191 62.2871C83.017 62.1735 82.8516 62.0047 82.7424 61.8005C82.6333 61.5963 82.5849 61.3652 82.603 61.1345V54.7413H80.9701V61.1345C80.9022 61.498 80.9195 61.8723 81.0206 62.228C81.1217 62.5838 81.3039 62.9114 81.553 63.1852C81.8022 63.459 82.1114 63.6717 82.4565 63.8064C82.8017 63.9412 83.1734 63.9946 83.5426 63.9622H86.0689C87.5312 64.0837 89.0031 63.9113 90.3974 63.4551ZM77.9356 63.8393H76.3182V56.232L71.3735 63.8393H70.403L65.4429 56.232V63.8393H63.8255V54.726H66.4134L70.8805 61.826L75.3323 54.726H77.9356V63.8393ZM59.2043 63.8392H60.7447V61.4725C60.7715 61.1598 60.7018 60.8464 60.5448 60.5744C60.3879 60.3024 60.1512 60.0849 59.8666 59.9511C60.452 59.6745 60.7447 58.9214 60.7447 57.7074C60.7922 56.9781 60.609 56.2524 60.2209 55.6327C59.9989 55.3406 59.709 55.1069 59.3762 54.9516C59.0435 54.7963 58.6778 54.7241 58.3108 54.7413H50.2546V63.7778H51.8874V60.5966H57.9412C58.2303 60.5973 58.5152 60.6658 58.773 60.7964C58.9025 60.8556 59.0122 60.9509 59.0887 61.0709C59.1652 61.1909 59.2054 61.3304 59.2043 61.4725V63.8392ZM58.8038 56.5547C59.0437 56.8829 59.1535 57.288 59.1119 57.692L59.2043 57.7074C59.2331 58.1125 59.1186 58.5149 58.8808 58.8446C58.7299 58.9695 58.5551 59.0624 58.3671 59.1179C58.1791 59.1734 57.9818 59.1902 57.7871 59.1673H51.8874V56.2167H57.7255C57.9188 56.198 58.1138 56.2183 58.2991 56.2764C58.4843 56.3345 58.6559 56.4291 58.8038 56.5547ZM26.8867 56.232H33.7569V54.726H25.2539V63.8393H26.8867V60.1509H33.5105V58.6602H26.8867V56.232Z" fill="#009992"/>
<path fill-rule="evenodd" clip-rule="evenodd" d="M28.0271 15.5526C31.4776 4.41066 37.7625 1.15261 46.9587 0C38.3478 13.4625 37.1617 7.00787 28.0271 15.5218V15.5526ZM203.371 36.8835C203.447 38.1265 203.07 39.3549 202.308 40.3414C201.888 40.7959 201.371 41.1506 200.795 41.3793C200.219 41.6081 199.599 41.705 198.981 41.663H188.999V47.1648H186.719V31.9811H199.042C201.938 31.9811 203.371 33.5948 203.371 36.8835ZM201.091 36.8835C201.091 35.0394 200.382 34.1173 198.95 34.1173H188.999V39.6191H198.965C200.382 39.5422 201.091 38.6355 201.091 36.8835ZM182.945 42.7849C183.012 43.4386 182.938 44.0991 182.728 44.7219C182.518 45.3448 182.177 45.9157 181.728 46.3964C180.843 47.0651 179.758 47.4169 178.647 47.3953H170.329C169.222 47.4143 168.139 47.0686 167.248 46.4118C166.802 45.926 166.463 45.3521 166.254 44.7273C166.044 44.1025 165.968 43.4408 166.032 42.7849V32.0272H168.311V42.7849C168.271 43.2062 168.351 43.6303 168.541 44.0083C168.732 44.3863 169.026 44.7027 169.39 44.9211C170.155 45.2947 171.004 45.4642 171.854 45.4129C168.404 45.4129 169.292 45.4129 174.519 45.4129C179.746 45.4129 180.64 45.4129 177.199 45.4129C178.05 45.4628 178.898 45.2934 179.664 44.9211C180.027 44.7027 180.322 44.3863 180.512 44.0083C180.703 43.6303 180.783 43.2062 180.742 42.7849V32.0272H182.991L182.945 42.7849ZM162.211 39.7113C162.285 41.3224 162.171 42.9365 161.872 44.5215C161.441 45.9354 160.147 46.8421 157.991 47.2263C156.294 47.4258 154.585 47.5028 152.877 47.4568C151.174 47.5004 149.47 47.4234 147.778 47.2263C145.606 46.8267 144.312 45.92 143.881 44.5369C143.572 42.9479 143.453 41.3281 143.526 39.7113C143.456 38.0894 143.575 36.4648 143.881 34.8703C144.312 33.4564 145.59 32.5651 147.747 32.1655C149.448 31.953 151.163 31.8708 152.877 31.9196C154.585 31.8751 156.294 31.9522 157.991 32.1502C160.147 32.5497 161.441 33.4564 161.872 34.8549C162.161 36.405 162.275 37.9823 162.211 39.5576V39.7113ZM159.962 39.7113C159.962 36.9143 159.67 35.2699 159.069 34.7781C158.468 34.2863 156.358 33.9482 152.907 33.9482C151.412 33.9172 149.916 33.9633 148.425 34.0865C147.989 34.1144 147.568 34.2551 147.203 34.495C146.838 34.7349 146.543 35.0655 146.345 35.4543C145.921 36.8313 145.749 38.2733 145.837 39.7113C145.747 41.1262 145.93 42.5452 146.376 43.8914C146.573 44.2852 146.87 44.6204 147.238 44.8632C147.605 45.106 148.031 45.2478 148.471 45.2745C149.946 45.4057 151.427 45.4519 152.907 45.4129C155.387 45.4129 156.866 45.4129 157.359 45.3053C157.798 45.2726 158.221 45.1283 158.587 44.8862C158.954 44.644 159.253 44.3121 159.454 43.9221C159.911 42.5152 160.084 41.0317 159.962 39.5576V39.7113ZM139.752 47.2417H137.488V43.3843C137.483 43.1073 137.403 42.8368 137.257 42.6015C137.11 42.3661 136.903 42.1746 136.656 42.0472C136.165 41.762 135.607 41.6134 135.039 41.6169H124.41V47.088H122.13V31.9811H135.732C136.326 31.9445 136.919 32.0576 137.458 32.3101C137.996 32.5625 138.462 32.9462 138.813 33.4257C139.482 34.4226 139.812 35.6082 139.752 36.8067C139.817 37.7766 139.609 38.7453 139.152 39.6037C138.815 40.0798 138.343 40.4439 137.796 40.6487C138.371 40.8331 138.872 41.197 139.224 41.6868C139.576 42.1765 139.761 42.7662 139.752 43.3689V47.2417ZM137.488 36.8835C137.553 36.1249 137.333 35.3691 136.872 34.7627C136.595 34.522 136.272 34.3405 135.922 34.2294C135.573 34.1184 135.204 34.0802 134.838 34.1173H124.41V39.6652H134.838C135.212 39.6994 135.588 39.6556 135.944 39.5366C136.299 39.4175 136.626 39.2257 136.903 38.9736C137.346 38.3711 137.554 37.6281 137.488 36.8835ZM118.356 41.494C118.486 43.0365 118.096 44.578 117.247 45.8739C116.457 46.7631 115.353 47.3137 114.166 47.4107C113.489 47.4107 111.917 47.5337 109.422 47.5337C107.579 47.6029 105.734 47.4637 103.923 47.1187C103.331 46.9885 102.777 46.7239 102.304 46.3454C101.831 45.967 101.452 45.4848 101.196 44.9365C100.604 43.2078 100.353 41.3813 100.457 39.5576C100.342 37.7886 100.615 36.0159 101.258 34.3632C101.532 33.8291 101.927 33.3655 102.411 33.0084C102.894 32.6512 103.454 32.4101 104.046 32.3038C105.82 31.9951 107.622 31.8715 109.422 31.935C112.102 31.935 113.566 31.935 113.827 31.935C115.022 31.9443 116.178 32.3559 117.108 33.103C117.555 33.6204 117.896 34.2206 118.11 34.8693C118.324 35.518 118.408 36.2025 118.356 36.8835H116.107C116.107 35.3467 115.738 34.4861 114.983 34.1787C113.145 33.7988 111.264 33.6644 109.391 33.7792C107.946 33.7324 106.499 33.7941 105.063 33.9636C104.644 34.0074 104.246 34.1634 103.91 34.415C103.573 34.6667 103.312 35.0046 103.152 35.3928C102.77 36.7409 102.619 38.1438 102.706 39.5422C102.629 40.9385 102.77 42.3381 103.122 43.6916C103.284 44.0851 103.55 44.4272 103.892 44.6816C104.234 44.936 104.638 45.0931 105.063 45.1362C106.499 45.2972 107.946 45.3537 109.391 45.3053C110.566 45.2413 111.744 45.2413 112.919 45.3053C113.781 45.3323 114.621 45.0237 115.26 44.4447C115.917 43.5613 116.219 42.4651 116.107 41.371H108.806V39.3732H118.356V41.494ZM86.4853 43.0308C86.5701 43.7736 86.4176 44.524 86.0498 45.1753C85.6819 45.8266 85.1173 46.3453 84.4366 46.6577C82.223 47.2735 79.9212 47.5125 77.628 47.3646C73.9311 47.3646 71.5434 46.965 70.496 46.1505C70.0034 45.6095 69.6363 44.9669 69.4206 44.2683C69.205 43.5698 69.1461 42.8325 69.2482 42.1087H71.528C71.528 43.5226 71.8515 44.4139 72.4831 44.7981C74.1601 45.2957 75.9151 45.4781 77.6588 45.336C79.4285 45.4333 81.2035 45.3094 82.9424 44.9672C83.3493 44.8368 83.7 44.5731 83.9377 44.2188C84.1754 43.8645 84.2861 43.4404 84.2517 43.0154C84.3075 42.6393 84.2511 42.2551 84.0895 41.9107C83.9279 41.5664 83.6682 41.2771 83.3429 41.079C81.6365 40.7274 79.8909 40.6034 78.1518 40.7102C74.6396 40.7102 72.2828 40.2953 71.1275 39.4654C70.6385 39.0438 70.2585 38.5108 70.0199 37.9115C69.7812 37.3122 69.6909 36.6644 69.7566 36.0229C69.6579 35.3502 69.7601 34.6635 70.0506 34.0485C70.341 33.4334 70.8067 32.9175 71.3894 32.5651C73.585 31.9101 75.8809 31.6551 78.1672 31.8121C81.6022 31.8121 83.8358 32.2116 84.8525 33.0108C85.3237 33.5182 85.6782 34.1222 85.891 34.7805C86.1039 35.4388 86.17 36.1356 86.0848 36.8221H83.8512C83.8512 35.5619 83.5277 34.7474 82.8654 34.3785C81.346 33.8859 79.7451 33.6928 78.1518 33.8099C76.8414 33.7792 75.5304 33.8152 74.2237 33.9175C72.6833 34.1326 71.9902 34.8088 71.9902 35.9922C71.958 36.4263 72.0585 36.86 72.2785 37.2359C72.4986 37.6118 72.8277 37.9123 73.2225 38.0976C75.0875 38.6041 77.0242 38.7963 78.9528 38.6662C80.9186 38.5414 82.8917 38.7439 84.7909 39.2656C85.9154 39.7574 86.4853 41.0022 86.4853 42.9386V43.0308ZM65.4743 42.7695C65.4743 45.7049 63.9339 47.1802 60.6528 47.1802H48.5144V31.9811H60.1291C61.3655 31.9025 62.5894 32.2677 63.5796 33.0108C64.045 33.4103 64.4101 33.9132 64.6456 34.479C64.881 35.0448 64.9802 35.6578 64.9351 36.2688C65.0146 36.8797 64.8862 37.4995 64.5706 38.0289C64.255 38.5583 63.7704 38.9668 63.1945 39.1888C63.5545 39.2911 63.8909 39.4632 64.1843 39.6952C64.4776 39.9273 64.7223 40.2147 64.9043 40.5412C65.2974 41.1832 65.4954 41.9253 65.4743 42.6773V42.7695ZM62.6861 36.2688C62.6861 34.732 61.8389 34.0404 60.1291 34.0404H50.7634V38.4204H60.1291C60.7685 38.4759 61.4094 38.3309 61.9621 38.0054C62.2267 37.8063 62.4332 37.5404 62.5604 37.2352C62.6877 36.9299 62.7311 36.5964 62.6861 36.2688ZM63.2099 42.6927C63.2302 42.3596 63.1774 42.026 63.055 41.7154C62.9326 41.4049 62.7436 41.1247 62.5013 40.8946C61.9873 40.4467 61.319 40.2153 60.6374 40.2492H50.7634V45.044H60.6374C62.2856 45.044 63.2099 44.2602 63.2099 42.6927ZM44.7251 47.088H42.2604L40.412 43.7224H29.6292L27.8577 47.088H25.316L33.2799 31.9811H36.8074L44.7251 47.088ZM39.3953 41.7245L35.2978 33.8099H34.7125L30.5842 41.7552L39.3953 41.7245ZM27.6112 18.2574C35.837 11.3417 49.0074 13.6469 54.4758 19.6712C50.4892 17.3495 45.8611 16.3653 41.2721 16.8632C36.6831 17.3611 32.3753 19.315 28.9822 22.4375C-1.36371 15.5679 -1.51774 51.8521 15.3342 63.8393C-9.11191 51.2835 -3.82834 11.1419 27.6112 18.2574Z" fill="#222222"/>
</svg>
