<svg width="213" height="32" viewBox="0 0 213 32" fill="none" xmlns="http://www.w3.org/2000/svg">
<path d="M16.2544 12.5525H14.1252L12.6409 9.80425H3.60731L2.12634 12.5525H0L6.63554 0.210012H9.58012L16.2544 12.5525ZM11.8019 8.17568L8.37076 1.68064L7.88981 1.67462L4.44686 8.17568H11.8019ZM31.4577 8.95487C31.4577 11.3533 30.117 12.5525 27.4351 12.5525H17.3027V0.210012H27.0024C28.2298 0.210012 29.1883 0.49021 29.878 1.04729C30.6334 1.64555 31.0099 2.5355 31.0099 3.71437C31.0099 4.95416 30.5262 5.75087 29.5587 6.098C30.1855 6.28773 30.6637 6.65563 30.9858 7.20128C31.2995 7.6975 31.4578 8.28095 31.4578 8.95487H31.4577ZM29.1288 3.71443C29.1288 2.4977 28.4177 1.89065 26.9962 1.89065H19.1838V5.40988H26.9962C27.6982 5.40988 28.2089 5.29582 28.5311 5.06552C28.9284 4.80284 29.1288 4.35049 29.1288 3.71443ZM29.5642 8.96089C29.5642 8.3391 29.3706 7.85214 28.9761 7.49905C28.585 7.1459 28.0653 6.96773 27.4171 6.96773H19.1838V10.8894H27.4171C28.8509 10.8894 29.5642 10.2473 29.5642 8.96089H29.5642ZM48.623 9.15941C48.623 10.6531 48.0528 11.6422 46.9119 12.1264C46.0072 12.5147 44.1138 12.7104 41.2259 12.7104C38.1382 12.7104 36.1555 12.3775 35.2834 11.7152C34.5847 11.1899 34.235 10.0899 34.235 8.4153H36.1224C36.1224 9.56185 36.3912 10.2911 36.9288 10.6064C37.4367 10.9009 38.8728 11.0467 41.2382 11.0467C43.6273 11.0467 45.0965 10.948 45.6459 10.7463C46.3777 10.4836 46.7419 9.95281 46.7419 9.15339C46.7419 8.33362 46.4876 7.80501 45.9831 7.57471C45.5623 7.3762 44.12 7.27423 41.6563 7.27423C38.7174 7.27423 36.7616 6.93264 35.7941 6.24993C35.0298 5.70157 34.647 4.76504 34.647 3.44025C34.647 1.9987 35.1011 1.05608 36.0063 0.615772C36.866 0.203993 38.7534 0 41.662 0C44.5291 0 46.3895 0.326786 47.2403 0.980419C47.9306 1.51722 48.2768 2.55301 48.2768 4.09058H46.4344C46.4344 3.0608 46.1594 2.39236 45.61 2.08917C45.1021 1.8062 43.7884 1.66312 41.6682 1.66312C39.9004 1.66312 38.8072 1.69545 38.3863 1.75636C37.1467 1.92581 36.5288 2.48891 36.5288 3.44579C36.5288 4.2661 36.8688 4.84076 37.5468 5.16754C38.1714 5.4708 39.7657 5.62868 42.3343 5.64018C44.9024 5.65168 46.5236 5.81233 47.2016 6.13039C48.1483 6.57124 48.6231 7.58073 48.6231 9.15941H48.623ZM74.2246 12.5525H72.0954L70.6111 9.80425H61.5775L60.0965 12.5525H57.9702L64.6058 0.210012H67.5503L74.2246 12.5525ZM69.7721 8.17568L66.341 1.68064L65.86 1.67462L62.4171 8.17568H69.7721ZM89.6967 8.97239C89.6967 10.3498 89.356 11.3357 88.6781 11.9251C88.1411 12.4099 87.2779 12.6807 86.0922 12.7449C86.3071 12.7449 85.1516 12.7449 82.619 12.7449C80.0538 12.7449 78.8982 12.7449 79.1463 12.7449C77.9695 12.6807 77.1097 12.4126 76.5598 11.9399C75.8819 11.3505 75.5418 10.3613 75.5418 8.97239V0.210012H77.4409V8.96962C77.4409 9.78938 77.7428 10.3701 78.3461 10.7056C78.7967 10.9683 79.4808 11.1054 80.3944 11.1169C77.5217 11.0938 78.2625 11.0818 82.619 11.0818C86.9761 11.0818 87.7259 11.0938 84.8621 11.1169C85.7668 11.1054 86.4508 10.9683 86.9105 10.7056C87.5137 10.3701 87.8157 9.78938 87.8157 8.96962V0.210012H89.6968V8.97239H89.6967ZM104.888 1.89065H99.25V12.5525H97.3509V1.89065H91.6884V0.210012H104.888V1.89065H104.888ZM122.083 6.39578C122.083 8.39773 121.988 9.7077 121.794 10.3289C121.438 11.4848 120.36 12.2229 118.562 12.5382C117.852 12.6638 116.43 12.7279 114.298 12.7279C112.196 12.7279 110.774 12.6638 110.033 12.5382C108.224 12.2114 107.14 11.4816 106.785 10.3438C106.59 9.734 106.495 8.41801 106.495 6.39578C106.495 4.39708 106.59 3.08108 106.785 2.45105C107.14 1.2924 108.218 0.557084 110.016 0.239085C110.759 0.102027 112.187 0.0350924 114.298 0.0350924C116.409 0.0350924 117.83 0.0992578 118.562 0.22482C120.36 0.551606 121.438 1.28692 121.794 2.43353C121.988 3.05478 122.083 4.37685 122.083 6.39578H122.083ZM120.202 6.39578C120.202 4.11688 119.954 2.77458 119.461 2.37484C118.924 1.92304 117.201 1.69822 114.298 1.69822C112.223 1.69822 110.974 1.73608 110.556 1.80897C109.684 1.93453 109.108 2.30797 108.821 2.92645C108.537 3.54824 108.394 4.70358 108.394 6.39578C108.394 8.05884 108.543 9.19721 108.839 9.81846C109.135 10.4402 109.717 10.8165 110.589 10.9535C111.019 11.0265 112.256 11.0643 114.298 11.0643C116.361 11.0643 117.601 11.0325 118.007 10.971C118.879 10.834 119.461 10.4578 119.757 9.84199C120.053 9.22622 120.202 8.07967 120.202 6.39572L120.202 6.39578ZM147.509 4.15474C147.509 5.366 147.213 6.30531 146.622 6.97977C145.997 7.69425 145.072 8.05342 143.848 8.05342H135.522V12.5525H133.623V0.210012H143.925C146.315 0.210012 147.509 1.52601 147.509 4.15474H147.509ZM145.61 4.15474C145.61 2.64625 145.012 1.89065 143.821 1.89065H135.522V6.3903H143.836C145.018 6.3903 145.61 5.6462 145.61 4.15474H145.61ZM164.701 12.5525H162.572L161.087 9.80425H152.054L150.573 12.5525H148.446L155.082 0.210012H158.027L164.701 12.5525ZM160.248 8.17568L156.817 1.68064L156.336 1.67462L152.893 8.17568H160.248ZM180.872 12.5525H178.973V9.52405C178.973 9.0717 178.742 8.70977 178.28 8.43559C177.879 8.20475 177.434 8.08852 176.939 8.08852H168.061V12.5525H166.161V0.210012H177.509C178.641 0.210012 179.498 0.603733 180.08 1.39442C180.609 2.08917 180.872 3.00819 180.872 4.15474C180.872 5.17627 180.704 5.94066 180.367 6.44568C180.131 6.79275 179.752 7.07571 179.232 7.29777C180.325 7.74957 180.872 8.49096 180.872 9.52068V12.5524V12.5525ZM178.973 4.15805C178.973 3.34978 178.802 2.76911 178.465 2.41872C178.124 2.06557 177.557 1.89065 176.76 1.89065H168.061V6.42485H176.76C177.557 6.42485 178.133 6.23566 178.489 5.85898C178.811 5.51191 178.973 4.94598 178.973 4.15805ZM196.675 1.89071H191.037V12.5525H189.138V1.89071H183.476V0.210073H196.676V1.89071H196.675ZM212.742 9.15941C212.742 10.6531 212.171 11.6422 211.03 12.1264C210.126 12.5147 208.232 12.7104 205.345 12.7104C202.257 12.7104 200.274 12.3775 199.402 11.7152C198.703 11.1899 198.353 10.0899 198.353 8.4153H200.241C200.241 9.56185 200.51 10.2911 201.047 10.6064C201.555 10.9009 202.991 11.0467 205.357 11.0467C207.746 11.0467 209.215 10.948 209.764 10.7463C210.496 10.4836 210.86 9.95281 210.86 9.15339C210.86 8.33362 210.607 7.80501 210.101 7.57471C209.681 7.3762 208.238 7.27423 205.775 7.27423C202.836 7.27423 200.88 6.93264 199.912 6.24993C199.148 5.70157 198.766 4.76504 198.766 3.44025C198.766 1.9987 199.219 1.05608 200.125 0.615772C200.984 0.203993 202.872 0 205.78 0C208.647 0 210.508 0.326786 211.359 0.980419C212.049 1.51722 212.395 2.55301 212.395 4.09058H210.553C210.553 3.0608 210.278 2.39236 209.728 2.08917C209.221 1.8062 207.907 1.66312 205.786 1.66312C204.019 1.66312 202.925 1.69545 202.505 1.75636C201.265 1.92581 200.647 2.48891 200.647 3.44579C200.647 4.2661 200.988 4.84076 201.666 5.16754C202.29 5.4708 203.884 5.62868 206.453 5.64018C209.021 5.65168 210.642 5.81233 211.32 6.13039C212.267 6.57124 212.742 7.58073 212.742 9.15941H212.742ZM56.6384 7.16016H50.2897V5.4971H56.6384V7.16016Z" fill="#222222"/>
<path d="M8.29 26.8511C8.29 27.5738 8.11319 28.1348 7.76026 28.5372C7.38761 28.9638 6.83539 29.1782 6.10414 29.1782H1.1342V31.864H0V24.496H6.15072C7.57674 24.496 8.29 25.2812 8.29 26.8511ZM7.15579 26.8511C7.15579 25.9502 6.79941 25.499 6.08837 25.499H1.13414V28.1852H6.09737C6.80335 28.1852 7.15579 27.7411 7.15579 26.8511ZM19.9421 28.1885C19.9421 29.3833 19.8848 30.1658 19.7692 30.5364C19.5571 31.2262 18.9134 31.6671 17.8404 31.8552C17.4161 31.9303 16.5675 31.9687 15.2948 31.9687C14.0394 31.9687 13.1909 31.9303 12.7487 31.8552C11.6684 31.66 11.0214 31.2246 10.8092 30.5452C10.6936 30.1811 10.6363 29.3959 10.6363 28.1885C10.6363 26.9953 10.6936 26.2101 10.8092 25.8334C11.0213 25.142 11.665 24.7033 12.738 24.513C13.1819 24.4313 14.0344 24.3913 15.2948 24.3913C16.5547 24.3913 17.4038 24.4297 17.8404 24.5048C18.9134 24.6995 19.557 25.1387 19.7692 25.823C19.8848 26.1942 19.9421 26.9833 19.9421 28.1886V28.1885ZM18.8191 28.1885C18.8191 26.8281 18.671 26.027 18.3769 25.7884C18.0559 25.5181 17.0272 25.3843 15.2949 25.3843C14.0557 25.3843 13.3105 25.4067 13.0608 25.4506C12.5405 25.5252 12.196 25.7484 12.0254 26.1174C11.8559 26.4886 11.77 27.1784 11.77 28.1884C11.77 29.1815 11.8592 29.8608 12.036 30.2315C12.2122 30.6027 12.5602 30.8275 13.0804 30.9092C13.3374 30.9531 14.0754 30.9755 15.2949 30.9755C16.5268 30.9755 17.2664 30.9563 17.5088 30.9196C18.0296 30.8379 18.377 30.6131 18.5532 30.2457C18.73 29.8783 18.8192 29.1935 18.8192 28.1884L18.8191 28.1885ZM35.4984 24.496L31.3607 31.864H30.0312L28.7495 29.5561L27.4548 31.864H26.1141L22.0247 24.496H23.1802L26.6972 30.8748L26.865 30.8709L28.1714 28.5158L25.9396 24.496H27.0967L28.7405 27.4794L30.3752 24.496H31.5835L29.3229 28.5301L30.612 30.8748L30.7725 30.8709L34.2917 24.496H35.4983L35.4984 24.496ZM44.3108 31.864H37.0871V24.496H44.3108V25.499H38.2207V27.6314H44.0896V28.6239H38.2207V30.8709H44.3108V31.864ZM56.207 31.864H55.0728V30.0562C55.0728 29.7858 54.9358 29.5698 54.6591 29.4064C54.4206 29.2687 54.1546 29.1991 53.8589 29.1991H48.559V31.864H47.4248V24.4961H54.1995C54.8752 24.4961 55.3865 24.7313 55.7344 25.2029C56.0498 25.6174 56.2069 26.1663 56.2069 26.8512C56.2069 27.4604 56.107 27.9171 55.9055 28.2182C55.7646 28.4254 55.5379 28.5943 55.2282 28.727C55.8803 28.9968 56.2069 29.4393 56.2069 30.054V31.864L56.207 31.864ZM55.0728 26.8528C55.0728 26.3703 54.9712 26.0237 54.7697 25.8142C54.5666 25.6036 54.2282 25.4989 53.7517 25.4989H48.559V28.206H53.7517C54.2282 28.206 54.5722 28.093 54.7843 27.8682C54.9768 27.661 55.0728 27.3226 55.0728 26.8527V26.8528ZM80.3596 28.1885C80.3596 29.3833 80.3024 30.1658 80.1868 30.5364C79.9747 31.2262 79.3309 31.6671 78.2579 31.8552C77.8336 31.9303 76.9851 31.9687 75.7124 31.9687C74.457 31.9687 73.6084 31.9303 73.1662 31.8552C72.086 31.66 71.4389 31.2246 71.2268 30.5452C71.1111 30.1811 71.0539 29.3959 71.0539 28.1885C71.0539 26.9953 71.1111 26.2101 71.2268 25.8334C71.4389 25.142 72.0826 24.7033 73.1556 24.513C73.5995 24.4313 74.4519 24.3913 75.7124 24.3913C76.9722 24.3913 77.8213 24.4297 78.2579 24.5048C79.3309 24.6995 79.9746 25.1387 80.1868 25.823C80.3024 26.1942 80.3596 26.9833 80.3596 28.1886V28.1885ZM79.2367 28.1885C79.2367 26.8281 79.0885 26.027 78.7945 25.7884C78.4735 25.5181 77.4448 25.3843 75.7124 25.3843C74.4733 25.3843 73.728 25.4067 73.4783 25.4506C72.9581 25.5252 72.6135 25.7484 72.4429 26.1174C72.2735 26.4886 72.1876 27.1784 72.1876 28.1884C72.1876 29.1815 72.2768 29.8608 72.4536 30.2315C72.6298 30.6027 72.9777 30.8275 73.498 30.9092C73.755 30.9531 74.493 30.9755 75.7125 30.9755C76.9443 30.9755 77.684 30.9563 77.9264 30.9196C78.4472 30.8379 78.7946 30.6131 78.9707 30.2457C79.1476 29.8783 79.2368 29.1935 79.2368 28.1884L79.2367 28.1885ZM89.6676 25.4989H83.7903V27.7778H89.4555V28.7807H83.7903V31.864H82.6561V24.496H89.6676V25.499V25.4989ZM113.648 28.1797C113.648 29.7874 113.397 30.8468 112.895 31.3551C112.562 31.6951 111.93 31.864 110.997 31.864H104.663V24.496H110.997C112.154 24.496 112.895 24.8092 113.224 25.438C113.507 25.9902 113.648 26.9048 113.648 28.1797ZM112.514 28.1797C112.514 27.2969 112.459 26.6976 112.35 26.3839C112.145 25.7934 111.691 25.4989 110.985 25.4989H105.797V30.8709H110.985C111.696 30.8709 112.154 30.5731 112.361 29.9777C112.462 29.6689 112.514 29.0718 112.514 28.1797ZM125.671 31.864H124.537V30.0562C124.537 29.7858 124.4 29.5698 124.123 29.4064C123.885 29.2687 123.619 29.1991 123.323 29.1991H118.023V31.864H116.889V24.4961H123.664C124.339 24.4961 124.851 24.7313 125.198 25.2029C125.514 25.6174 125.671 26.1663 125.671 26.8512C125.671 27.4604 125.571 27.9171 125.37 28.2182C125.229 28.4254 125.002 28.5943 124.692 28.727C125.344 28.9968 125.671 29.4393 125.671 30.054V31.864L125.671 31.864ZM124.537 26.8528C124.537 26.3703 124.435 26.0237 124.234 25.8142C124.031 25.6036 123.692 25.4989 123.216 25.4989H118.023V28.206H123.216C123.692 28.206 124.036 28.093 124.248 27.8682C124.441 27.661 124.537 27.3226 124.537 26.8527V26.8528ZM130.049 31.864H128.916V24.496H130.049V31.864ZM142.3 24.496L138.172 31.864H136.831L132.741 24.496H133.897L137.414 30.8748L137.582 30.8709L141.092 24.496H142.3V24.496ZM145.362 31.864H144.228V24.496H145.362V31.864ZM157.745 31.864H156.046L149.626 25.4556V31.864H148.503V24.4856H150.136L156.611 30.9494V24.4856H157.745V31.864H157.745ZM169.563 29.0943C169.563 30.0753 169.379 30.7859 169.014 31.2262C168.691 31.6095 168.174 31.848 167.459 31.9424C167.125 31.9808 166.337 32 165.097 32C163.785 32 162.872 31.9336 162.357 31.8014C161.703 31.6254 161.25 31.2701 161.002 30.7371C160.754 30.2019 160.631 29.3263 160.631 28.1068C160.631 26.9311 160.763 26.0861 161.027 25.574C161.291 25.0619 161.752 24.7274 162.416 24.5705C162.911 24.4505 163.804 24.3912 165.097 24.3912C166.428 24.3912 167.161 24.3983 167.295 24.4104C168.042 24.4729 168.586 24.6649 168.926 24.9851C169.35 25.3739 169.563 26.011 169.563 26.8977H168.445C168.445 26.1694 168.258 25.7291 167.885 25.5723C167.584 25.4468 166.655 25.3842 165.101 25.3842C163.943 25.3842 163.223 25.4122 162.942 25.4692C162.458 25.5564 162.141 25.79 161.986 26.1661C161.838 26.5181 161.765 27.1921 161.765 28.1901C161.765 29.1886 161.836 29.8641 161.977 30.2161C162.13 30.5995 162.453 30.8347 162.942 30.9213C163.223 30.9789 163.943 31.0068 165.1 31.0068C166.463 31.0068 167.046 31.0123 166.853 31.0244C167.4 30.9932 167.789 30.8555 168.02 30.6099C168.302 30.3226 168.443 29.8153 168.443 29.0926L164.808 29.0943V28.1012H169.563V29.0943V29.0943Z" fill="#00A19C"/>
<path d="M183.093 23.2208L184.028 22.2557C184.263 22.0128 184.708 21.8828 185.137 21.8828H212.321C212.747 21.8828 212.855 22.1981 212.62 22.4404L211.643 23.4488C211.467 23.6298 211.166 23.6638 210.882 23.6638H183.253C183.002 23.6638 182.916 23.4028 183.093 23.2207V23.2208ZM178.162 29.1061L205.322 29.1039C205.755 29.1039 205.855 29.4192 205.621 29.6615L203.592 31.7551C203.415 31.9371 203.115 31.9651 202.827 31.9651H175.2C174.932 31.9651 174.863 31.7096 175.04 31.5275L177.027 29.4773C177.263 29.2344 177.726 29.1039 178.162 29.1061L178.162 29.1061ZM181.723 25.4032H208.909C209.344 25.4032 209.443 25.7185 209.207 25.9608L207.819 27.3936C207.643 27.5751 207.34 27.602 207.056 27.602H179.439C179.183 27.602 179.092 27.3481 179.268 27.166L180.616 25.7749C180.851 25.5337 181.297 25.4032 181.723 25.4032Z" fill="#00A19C"/>
</svg>
